<svg width="41" height="42" viewBox="0 0 41 42" fill="none" xmlns="http://www.w3.org/2000/svg">
<path d="M40.9482 4.14636V37.2605C40.5877 39.264 39.1265 40.7209 37.1198 41.0814H3.94083C1.93414 40.7209 0.47299 39.264 0.112488 37.2605V4.14636C0.479371 2.10032 2.04155 0.545586 4.14182 0.327583L36.7646 0.322266C38.8032 0.394579 40.7057 2.12478 40.9482 4.14636ZM15.7289 7.51317C10.5352 7.73862 7.52778 9.79848 7.20768 15.2475C7.00776 18.6568 7.01201 22.6702 7.20768 26.0796C7.70005 34.6625 14.5294 33.8681 21.045 33.8341C25.7773 33.8096 31.4156 34.4232 33.1086 28.7594C33.9465 25.9552 33.7168 19.783 33.6126 16.6789C33.4106 10.6482 31.5304 7.89494 25.2753 7.56741C22.2233 7.40683 18.7906 7.37918 15.7268 7.51211L15.7289 7.51317Z" fill="#E6F5F2"/>
<path d="M15.5695 9.90089C18.5226 9.75414 22.0851 9.74882 25.0403 9.8743C29.8003 10.0764 31.0498 11.8597 31.221 16.441C31.321 19.1176 31.3188 22.209 31.221 24.8857C31.0764 28.8501 30.131 31.1886 25.7528 31.4481C22.3839 31.648 18.4386 31.6363 15.0664 31.4481C10.2746 31.1812 9.65147 28.5205 9.5196 24.3274C9.42815 21.4221 9.39199 17.967 9.60362 15.0915C9.88755 11.2334 11.958 10.0795 15.5684 9.89983L15.5695 9.90089ZM27.2927 12.0437C25.235 12.2489 25.4944 15.3903 27.5883 15.2117C29.6822 15.033 29.343 11.8395 27.2927 12.0437ZM19.3957 13.9589C16.9094 14.2386 14.6124 16.291 13.8882 18.6508C12.1622 24.271 17.9132 29.3053 23.2708 26.8211C30.115 23.6468 27.3586 13.0635 19.3967 13.9589H19.3957Z" fill="#E6F5F2"/>
<path d="M20.3527 16.2678C26.0239 16.2231 26.226 24.7784 20.6526 25.0857C14.6857 25.4143 14.4156 16.3156 20.3527 16.2678Z" fill="#E6F5F2"/>
</svg>
