<svg width="41" height="42" viewBox="0 0 41 42" fill="none" xmlns="http://www.w3.org/2000/svg">
<path d="M36.0459 0.0810547C36.3411 0.189961 36.651 0.207044 36.9639 0.301002C38.7312 0.826315 40.1687 2.28694 40.6736 4.10418C40.7623 4.42556 40.7832 4.74374 40.8875 5.0459V36.1162C40.7821 36.4184 40.7644 36.7365 40.6736 37.0579C40.1656 38.8549 38.7228 40.3486 36.9639 40.8611C36.651 40.9529 36.3401 40.9732 36.0459 41.0811H5.74748C3.18115 40.7138 1.15938 38.6552 0.916305 35.986C0.967423 25.4882 0.763999 14.9628 1.01959 4.48108C1.46505 2.23462 3.50872 0.304206 5.74853 0.0810547H36.0469H36.0459ZM14.3103 13.7456C17.4567 10.5168 12.71 5.53277 9.49371 8.76579C6.27745 11.9988 11.1431 16.9968 14.3103 13.7456ZM22.2242 18.2588V16.937C22.2242 16.6273 21.882 16.2921 21.5618 16.2547C20.8138 16.1661 18.2151 16.1458 17.5036 16.2611C17.2491 16.3027 17.0394 16.5013 16.9653 16.7501L16.9736 32.8907C17.0748 33.2035 17.344 33.3573 17.6528 33.3946C18.4759 33.495 20.4841 33.4768 21.3281 33.3957C21.8403 33.3466 22.099 33.1875 22.1491 32.6355C22.4015 29.7996 21.4919 24.2113 22.8637 21.9168C23.8808 20.2159 26.492 20.1283 27.4195 21.9381C28.4867 24.0201 27.6865 29.994 27.9202 32.6355C27.9619 33.1031 28.204 33.338 28.664 33.3946C29.5195 33.4993 31.6185 33.48 32.4958 33.3968C32.9256 33.3562 33.2521 33.0861 33.3137 32.6344C32.91 26.7118 35.5858 14.7193 26.0111 16.0177C24.4233 16.2333 23.1631 16.9295 22.2232 18.2588H22.2242ZM9.7879 16.2761C9.47494 16.4117 9.29967 16.6679 9.25899 17.0149L9.29445 32.7572C9.38834 33.1138 9.65854 33.3338 10.0101 33.385C10.6006 33.4704 13.3474 33.4864 13.8899 33.3733C14.3677 33.274 14.5554 32.7721 14.5742 32.313L14.5367 17.0512C14.472 16.67 14.304 16.3433 13.9034 16.259L9.78895 16.2739L9.7879 16.2761Z" fill="#E6F5F2"/>
</svg>
