<svg width="42" height="42" viewBox="0 0 42 42" fill="none" xmlns="http://www.w3.org/2000/svg">
<path d="M35.0027 41.0799H27.5551C27.0332 40.8693 26.6436 40.8798 26.5336 40.2199C26.406 37.9546 26.6377 35.6039 26.5172 33.3491C26.4435 31.9614 26.1662 30.6392 25.1529 29.6294C29.199 29.1918 32.6555 27.6765 33.9227 23.5437C34.8728 20.4442 34.7663 16.4635 32.3758 14.0426C33.0416 12.2617 32.8252 10.3369 32.1851 8.58294C31.5521 8.37817 31.0045 8.54784 30.3972 8.72686C28.9861 9.14341 27.7446 9.94376 26.4716 10.647C23.1309 9.78228 19.6488 9.78228 16.3081 10.647C15.1615 10.0034 14.0335 9.31775 12.7827 8.88716C12.3813 8.74909 10.8567 8.2401 10.5724 8.62038C10.4787 8.74558 10.1815 9.85717 10.1359 10.0865C9.86562 11.438 9.92647 12.7426 10.4027 14.0426C8.43811 16.0645 8.09528 18.7908 8.41822 21.4996C8.68266 23.7134 9.6515 26.132 11.4663 27.4998C13.2671 28.8571 15.4353 29.3439 17.6257 29.668C16.8265 30.363 16.5152 31.3997 16.3257 32.413C14.78 32.9828 13.0565 33.2789 11.6617 32.1895C10.267 31.1002 10.1453 29.5908 8.29887 28.8255C7.91976 28.6687 6.61862 28.3809 6.36939 28.7436C6.05113 29.2081 7.31716 29.8985 7.57341 30.1114C9.58129 31.7812 9.1074 34.4408 12.0993 35.1955C13.3934 35.5219 14.9567 35.4506 16.2637 35.2353L16.3351 39.911C16.2567 40.5615 15.9641 40.8388 15.3826 41.0811H7.77467C7.29025 40.943 6.7836 40.8974 6.29801 40.7558C4.02452 40.0958 1.91134 38.0049 1.23035 35.7337C1.07941 35.2283 1.02792 34.7005 0.887512 34.1951V6.96704C1.32747 3.31051 4.28429 0.378258 7.97592 0.0810547H34.8003C38.5434 0.380598 41.588 3.42752 41.8875 7.1683L41.8781 34.0628C41.6043 37.6164 38.5656 40.7511 35.0015 41.0799H35.0027Z" fill="#E6F5F2"/>
</svg>
