<?xml version="1.0" encoding="UTF-8"?>
<svg id="Camada_2" data-name="Camada 2" xmlns="http://www.w3.org/2000/svg" viewBox="0 0 124.64 128.26">
  <defs>
    <style>
      .cls-1 {
        fill: #e5f5f2;
      }
    </style>
  </defs>
  <g id="LOGOS">
    <g>
      <path class="cls-1" d="M37.01,52.88l10.76-9.1c.44-.37.71-.92.73-1.49.02-.58-.2-1.14-.6-1.55-6.01-6.01-17.12-9.69-27.02-8.96-7.88.58-14.17,3.76-18.19,9.19l-.08.1c-3.28,4.27-2.88,7.89-1.96,10.17,1.47,3.66,5.09,6.38,10.21,7.66,2,.5,4.28.78,6.69.78,6.39,0,13.72-1.94,19.46-6.8ZM11.86,54.88c-3.8-.95-6.41-2.79-7.37-5.18-.75-1.87-.28-3.93,1.4-6.12l.12-.16c4.15-5.6,10.54-7.19,15.17-7.53.73-.05,1.46-.08,2.2-.08,7.2,0,14.95,2.48,19.89,6.34l-8.93,7.56c-6.75,5.71-16.38,6.68-22.48,5.16Z"/>
      <path class="cls-1" d="M122.03,41.06l-.08-.1c-4.02-5.43-10.31-8.61-18.19-9.19-9.9-.73-21.01,2.95-27.02,8.96-.41.41-.63.97-.6,1.55.02.58.29,1.12.73,1.49l10.76,9.1c5.74,4.86,13.07,6.8,19.46,6.8,2.41,0,4.68-.28,6.69-.78,5.12-1.27,8.75-4,10.21-7.66.91-2.28,1.31-5.9-1.96-10.17ZM120.15,49.7c-.96,2.4-3.58,4.24-7.37,5.18-6.09,1.52-15.72.55-22.48-5.16l-8.93-7.56c5.45-4.26,14.31-6.84,22.09-6.26,4.63.34,11.02,1.93,15.17,7.53l.12.16c1.68,2.19,2.15,4.25,1.4,6.12Z"/>
      <polygon class="cls-1" points="62.73 128.26 68.03 112.95 57.44 112.95 62.73 128.26"/>
      <path class="cls-1" d="M27.24,63.49c-4.37,2.05-7.72,4.97-9.96,8.66-5.49,9.08-3.53,22.17,4.89,32.58.41.51,1.01.77,1.61.77.46,0,.92-.15,1.3-.46.89-.72,1.03-2.02.31-2.91-7.33-9.06-9.16-20.24-4.57-27.84,1.81-2.98,4.56-5.36,8.18-7.06,1.03-.49,1.48-1.72.99-2.75-.49-1.03-1.72-1.48-2.75-.99Z"/>
      <path class="cls-1" d="M97.4,63.49c-1.03-.49-2.27-.04-2.75.99-.49,1.03-.04,2.27.99,2.75,3.62,1.7,6.37,4.08,8.18,7.06,4.59,7.59,2.76,18.78-4.57,27.84-.72.89-.58,2.19.31,2.91.38.31.84.46,1.3.46.6,0,1.2-.26,1.61-.77,8.42-10.41,10.39-23.5,4.89-32.58-2.24-3.69-5.59-6.61-9.96-8.66Z"/>
      <path class="cls-1" d="M33.29,71.99c-.72,3.58-.92,7.59-.07,12,.01.07.04.22.09.41h58.01c.05-.2.08-.34.09-.41.86-4.41.65-8.42-.07-12h-58.06Z"/>
      <path class="cls-1" d="M38.19,59.16c-.2.39-.41.81-.63,1.24h49.53c-.22-.43-.43-.85-.63-1.24-2.14-4.18-5.25-8.04-8.22-11.17h-31.82c-2.97,3.13-6.08,6.99-8.22,11.17Z"/>
      <path class="cls-1" d="M48.54,105.92s.06.04.1.06c2.1,1.25,4.43,2.05,6.83,2.43h13.72c2.4-.37,4.73-1.18,6.83-2.43.03-.02.06-.04.1-.06,4.6-2.76,7.88-6.4,10.19-9.93h-47.95c2.31,3.53,5.59,7.17,10.19,9.93Z"/>
      <path class="cls-1" d="M44.08,3.43c4.71,3,7.99,7.8,9.29,13.19-3.25,2.22-5.39,5.96-5.39,10.19v9.18l14.33,8.28,14.33-8.28v-9.18c0-4.23-2.14-7.97-5.39-10.19,1.31-5.39,4.59-10.18,9.29-13.19,1.96-1.25.15-4.4-1.83-3.14-5.27,3.36-9.19,8.68-10.81,14.71-1.14-.35-2.35-.54-3.6-.54h-4c-1.25,0-2.46.19-3.6.54-1.61-6.03-5.54-11.35-10.81-14.71-1.98-1.26-3.8,1.88-1.83,3.14Z"/>
    </g>
  </g>
</svg>