<?xml version="1.0" encoding="UTF-8"?>
<svg id="Camada_1" xmlns="http://www.w3.org/2000/svg" version="1.1" viewBox="0 0 128 128">
  <!-- Generator: Adobe Illustrator 29.1.0, SVG Export Plug-In . SVG Version: 2.1.0 Build 142)  -->
  <defs>
    <style>
      .st0 {
        fill: #0a1429;
      }

      .st1 {
        fill: #e5f5f2;
      }
    </style>
  </defs>
  <rect class="st0" x="1.78" y="1.78" width="124.43" height="124.43" rx="62.22" ry="62.22"/>
  <g>
    <path class="st1" d="M52.34,58.82l4.96-4.19c.2-.17.33-.42.34-.69.01-.27-.09-.53-.28-.71-2.77-2.77-7.89-4.46-12.45-4.13-3.63.27-6.52,1.73-8.38,4.23l-.04.05c-1.51,1.97-1.32,3.63-.9,4.69.67,1.69,2.35,2.94,4.7,3.53.92.23,1.97.36,3.08.36,2.94,0,6.32-.89,8.96-3.13ZM40.76,59.74c-1.75-.44-2.95-1.28-3.4-2.39-.34-.86-.13-1.81.65-2.82l.05-.07c1.91-2.58,4.85-3.31,6.99-3.47.33-.02.67-.04,1.01-.04,3.31,0,6.89,1.14,9.16,2.92l-4.11,3.48c-3.11,2.63-7.55,3.08-10.35,2.38Z"/>
    <path class="st1" d="M91.5,53.38l-.04-.05c-1.85-2.5-4.75-3.97-8.38-4.23-4.56-.34-9.68,1.36-12.45,4.13-.19.19-.29.45-.28.71.01.27.13.52.34.69l4.96,4.19c2.64,2.24,6.02,3.13,8.96,3.13,1.11,0,2.16-.13,3.08-.36,2.36-.59,4.03-1.84,4.7-3.53.42-1.05.61-2.72-.9-4.69ZM90.64,57.36c-.44,1.1-1.65,1.95-3.39,2.39-2.81.7-7.24.25-10.35-2.38l-4.11-3.48c2.51-1.96,6.59-3.15,10.17-2.89,2.13.16,5.08.89,6.99,3.47l.05.07c.77,1.01.99,1.96.65,2.82Z"/>
    <polygon class="st1" points="64.19 93.54 66.63 86.49 61.75 86.49 64.19 93.54"/>
    <path class="st1" d="M47.84,63.71c-2.01.95-3.56,2.29-4.59,3.99-2.53,4.18-1.62,10.21,2.25,15.01.19.23.46.35.74.35.21,0,.42-.07.6-.21.41-.33.47-.93.14-1.34-3.37-4.17-4.22-9.32-2.1-12.82.83-1.37,2.1-2.47,3.77-3.25.48-.22.68-.79.46-1.27-.22-.48-.79-.68-1.27-.46Z"/>
    <path class="st1" d="M80.16,63.71c-.48-.22-1.04-.02-1.27.46-.22.48-.02,1.04.46,1.27,1.67.78,2.93,1.88,3.77,3.25,2.12,3.5,1.27,8.65-2.1,12.82-.33.41-.27,1.01.14,1.34.18.14.39.21.6.21.28,0,.55-.12.74-.35,3.88-4.79,4.78-10.82,2.25-15.01-1.03-1.7-2.57-3.04-4.59-3.99Z"/>
    <path class="st1" d="M50.63,67.62c-.33,1.65-.43,3.5-.03,5.53,0,.03.02.1.04.19h26.72c.02-.09.03-.16.04-.19.4-2.03.3-3.88-.03-5.53h-26.74Z"/>
    <path class="st1" d="M52.89,61.71c-.09.18-.19.37-.29.57h22.81c-.1-.2-.2-.39-.29-.57-.99-1.93-2.42-3.7-3.79-5.15h-14.66c-1.37,1.44-2.8,3.22-3.79,5.15Z"/>
    <path class="st1" d="M57.65,83.25s.03.02.04.03c.97.58,2.04.94,3.15,1.12h6.32c1.11-.17,2.18-.54,3.15-1.12.01,0,.03-.02.04-.03,2.12-1.27,3.63-2.95,4.69-4.57h-22.08c1.06,1.63,2.57,3.3,4.69,4.57Z"/>
    <path class="st1" d="M55.6,36.04c2.17,1.38,3.68,3.59,4.28,6.07-1.5,1.02-2.48,2.74-2.48,4.69v4.23l6.6,3.81,6.6-3.81v-4.23c0-1.95-.98-3.67-2.48-4.69.6-2.48,2.11-4.69,4.28-6.07.9-.58.07-2.02-.84-1.44-2.43,1.55-4.23,4-4.98,6.78-.52-.16-1.08-.25-1.66-.25h-1.84c-.58,0-1.13.09-1.66.25-.74-2.78-2.55-5.23-4.98-6.78-.91-.58-1.75.87-.84,1.44Z"/>
  </g>
</svg>
