<svg width="299" height="222" viewBox="0 0 299 222" fill="none" xmlns="http://www.w3.org/2000/svg">
<g clip-path="url(#clip0_93_178)">
<path d="M108.119 31.5928C108.119 31.5928 108.567 39.0454 112.258 43.2338C115.215 46.5889 101.618 49.3519 98.4642 45.9968C97.8729 41.0629 100.223 40.0479 103.088 38.9765C105.954 37.9051 108.122 31.5928 108.122 31.5928H108.119Z" fill="#E6F5F2"/>
<path d="M107.234 31.5929C107.328 33.1279 107.609 34.6754 107.972 36.1697C108.307 37.5481 108.757 38.8952 109.333 40.1952C109.633 40.8719 109.974 41.5329 110.369 42.1625C110.735 42.7484 111.151 43.4344 111.667 43.9012C111.792 44.014 111.573 43.7602 111.63 43.8511C111.648 43.8824 111.673 43.9106 111.692 43.945C111.72 43.992 111.755 44.0923 111.792 44.1299C111.645 43.9795 111.767 43.9795 111.783 44.1361C111.808 44.3774 111.808 43.9795 111.789 44.1361C111.783 44.18 111.78 44.4087 111.798 44.2145C111.817 44.0202 111.78 44.227 111.78 44.2708C111.78 44.3022 111.742 44.3429 111.745 44.3742C111.727 44.1455 111.842 44.2019 111.789 44.2646C111.745 44.3147 111.708 44.4056 111.673 44.4651C111.57 44.6499 111.811 44.3241 111.661 44.4839C111.611 44.5371 111.561 44.5935 111.508 44.6436C111.451 44.6969 111.392 44.747 111.332 44.8003C111.17 44.9444 111.476 44.7126 111.254 44.8598C110.926 45.0791 110.591 45.2702 110.231 45.4362C110.193 45.455 110.153 45.4707 110.115 45.4895C109.918 45.5834 110.297 45.4205 110.09 45.502C109.987 45.5427 109.884 45.5834 109.781 45.6242C109.565 45.7056 109.346 45.7808 109.123 45.8497C108.626 46.0064 108.119 46.1379 107.606 46.2444C107.35 46.2977 107.093 46.3478 106.836 46.3917C106.705 46.4136 106.574 46.4355 106.445 46.4543C106.392 46.4637 106.339 46.47 106.286 46.4763C106.07 46.5076 106.402 46.4637 106.204 46.4857C105.644 46.5514 105.084 46.6016 104.524 46.6235C103.924 46.6454 103.323 46.6423 102.725 46.5984C102.588 46.589 102.45 46.5765 102.312 46.564C102.247 46.5577 101.853 46.5076 102.072 46.5389C101.79 46.4982 101.512 46.4512 101.233 46.3885C100.995 46.3353 100.758 46.2726 100.526 46.1974C100.404 46.1599 100.285 46.1129 100.166 46.069C100.129 46.0533 100.091 46.0377 100.05 46.022C100.279 46.1129 100.063 46.0251 100.013 46.0001C99.8158 45.8998 99.6218 45.7996 99.4404 45.6743C99.4028 45.6492 99.3653 45.621 99.3278 45.596C99.2902 45.5709 99.4717 45.7275 99.3184 45.5866C99.2402 45.5145 99.1651 45.4456 99.0931 45.3704L99.3528 45.997C99.2965 45.5051 99.2589 45.0133 99.262 44.5183C99.262 44.1267 99.2965 43.6976 99.3465 43.4313C99.4811 42.7014 99.6125 42.385 100 41.8054C100.025 41.7647 100.132 41.6394 100.016 41.7804C100.063 41.724 100.11 41.6676 100.157 41.6143C100.254 41.5078 100.354 41.4044 100.463 41.3073C100.517 41.2572 100.573 41.2134 100.626 41.1664C100.801 41.0129 100.529 41.2353 100.645 41.1476C100.773 41.0536 100.901 40.9627 101.036 40.8782C101.271 40.7309 101.512 40.5993 101.759 40.4803C101.899 40.4114 102.04 40.3487 102.181 40.2861C102.2 40.2767 102.441 40.1764 102.259 40.2516C102.359 40.2109 102.456 40.1702 102.556 40.1294C103.148 39.8945 103.764 39.7065 104.293 39.3369C104.872 38.9296 105.366 38.4378 105.804 37.8833C106.686 36.7712 107.384 35.5338 107.978 34.2463C108.344 33.4568 108.692 32.6517 108.973 31.8278C109.13 31.3736 108.795 30.8567 108.354 30.7345C107.866 30.5998 107.418 30.9006 107.262 31.3548C107.143 31.6994 107.009 32.0346 106.874 32.3729C106.843 32.4481 106.811 32.5264 106.78 32.6016C106.733 32.7175 106.843 32.4544 106.793 32.5734C106.774 32.6141 106.755 32.658 106.739 32.7019C106.655 32.8961 106.571 33.0872 106.483 33.2783C106.286 33.7074 106.076 34.1335 105.854 34.5501C105.616 34.9981 105.36 35.4367 105.084 35.8627C104.809 36.2888 104.581 36.602 104.305 36.9247C104.161 37.0939 104.008 37.2568 103.849 37.4103C103.77 37.4855 103.692 37.5575 103.614 37.6264C103.573 37.6609 103.536 37.6953 103.495 37.7267C103.417 37.7925 103.595 37.6578 103.461 37.7517C103.301 37.8676 103.135 37.9679 102.963 38.0619C102.923 38.0838 102.879 38.1026 102.835 38.1245C103.001 38.0431 102.898 38.0995 102.854 38.1151C102.725 38.1621 102.594 38.2122 102.466 38.2624C100.776 38.9077 99.0149 39.7191 98.1576 41.4201C97.6414 42.4476 97.4693 43.6005 97.4912 44.7407C97.5038 45.4205 97.4568 46.2758 97.9887 46.7645C98.2515 47.0057 98.5487 47.2187 98.8616 47.3941C100.298 48.1898 102.04 48.3841 103.655 48.4028C105.46 48.4216 107.299 48.1898 109.039 47.7137C110.369 47.3503 111.936 46.824 112.887 45.762C113.297 45.3046 113.604 44.7251 113.563 44.0923C113.507 43.259 112.947 42.717 112.499 42.1312C111.113 40.3111 110.328 38.206 109.765 36.01C109.533 35.1078 109.349 34.1961 109.205 33.2783C109.177 33.106 109.155 32.9337 109.13 32.7614C109.167 33.0183 109.13 32.7708 109.123 32.7081C109.114 32.6204 109.102 32.5358 109.092 32.4481C109.067 32.2382 109.045 32.0283 109.027 31.8184C109.02 31.7433 109.014 31.6681 109.008 31.5929C108.98 31.1136 108.62 30.7063 108.122 30.7063C107.666 30.7063 107.206 31.1136 107.237 31.5929H107.234Z" fill="#E6F5F2"/>
<path d="M100.911 25.4875C100.701 25.9167 100.585 26.3741 100.764 26.8377C100.92 27.2418 101.214 27.5426 101.568 27.7838C102.184 28.2067 102.935 28.3508 103.62 28.6171C103.842 28.7017 104.205 28.8583 104.309 29.0807C104.293 29.04 104.296 29.0525 104.321 29.1214C104.321 29.0713 104.321 29.0839 104.324 29.1559C104.33 29.0682 104.296 29.2405 104.324 29.1622C104.352 29.1308 104.343 29.1402 104.293 29.1935C104.327 29.1684 104.312 29.1778 104.252 29.2186C104.174 29.2687 104.09 29.3063 104.005 29.3439C103.345 29.6258 102.591 29.7135 101.896 29.5882C101.583 29.5318 101.258 29.6728 101.17 30.0017C101.092 30.2868 101.267 30.6753 101.583 30.7285C102.303 30.8538 103.023 30.8476 103.733 30.6721C104.384 30.5124 105.247 30.2179 105.46 29.5005C105.673 28.7831 105.16 28.072 104.528 27.7337C103.961 27.4298 103.336 27.2888 102.738 27.0601C102.51 26.9724 102.194 26.8064 102.025 26.6372C101.934 26.5464 101.887 26.4869 101.865 26.3991C101.828 26.2582 101.856 26.3428 101.856 26.3616C101.856 26.3647 101.868 26.2613 101.859 26.2958C101.878 26.2175 101.903 26.1517 101.934 26.0827C102.075 25.7945 102.012 25.4437 101.721 25.2714C101.461 25.1179 101.055 25.1962 100.911 25.4844V25.4875Z" fill="#E6F5F2"/>
<path d="M263.912 65.2883C263.928 65.3792 263.928 65.517 263.912 65.5577C263.925 65.5233 263.84 65.6642 263.865 65.636C263.894 65.6047 263.743 65.7426 263.806 65.6956C263.687 65.7864 263.612 65.8177 263.518 65.8491C263.365 65.9023 263.202 65.9431 263.043 65.965C262.414 66.059 261.713 65.9994 261.062 66.1153C260.34 66.2438 259.623 66.7168 259.582 67.5157C259.545 68.2644 260.268 68.7875 260.834 69.1321C261.485 69.53 262.214 69.7493 262.968 69.8307C263.287 69.8652 263.559 69.5331 263.559 69.2386C263.559 68.8909 263.287 68.681 262.968 68.6466C262.336 68.5776 261.654 68.3082 261.106 67.8916C261.015 67.8227 260.846 67.6911 260.762 67.572C260.781 67.5971 260.756 67.4718 260.762 67.5783C260.746 67.6284 260.746 67.619 260.765 67.547C260.74 67.5846 260.746 67.572 260.784 67.5094C260.818 67.453 260.887 67.3997 260.959 67.3684C261.106 67.3026 261.306 67.265 261.444 67.2462C262.251 67.1366 263.09 67.265 263.869 66.98C264.253 66.839 264.598 66.6322 264.842 66.297C265.129 65.9023 265.136 65.4387 265.054 64.9751C264.998 64.6587 264.613 64.4832 264.329 64.5615C263.997 64.6524 263.859 64.9751 263.916 65.2883H263.912Z" fill="#E6F5F2"/>
<path d="M132.82 119.994C134.985 117.344 146.586 115.534 161.709 114.547C161.716 114.237 161.722 113.926 161.722 113.616C161.722 85.0431 135.826 61.877 103.883 61.877C71.9397 61.877 46.044 85.04 46.044 113.616C46.044 132.099 56.8785 148.314 73.1755 157.464C68.3199 164.071 61.3149 171.583 54.5821 171.54C66.3426 172.075 80.9408 169.469 89.8949 163.83C94.3751 164.826 99.0587 165.356 103.883 165.356C112.69 165.356 121.034 163.592 128.505 160.444C128.089 142.916 129.203 124.418 132.82 119.994Z" fill="#0092FF"/>
<path d="M249.824 119.994C246.092 114.227 195.239 112.36 161.709 114.546C161.309 134.846 147.84 152.292 128.508 160.443C128.893 176.68 130.589 192.08 132.823 194.69C135.783 198.145 180.156 200.028 213.444 199.135C218.532 209.429 229.003 219.902 238.383 221.693C233.271 213.996 231.969 205.065 231.903 198.239C241.655 197.481 248.491 196.319 249.83 194.69C255.556 187.716 255.246 128.361 249.83 119.994H249.824Z" fill="#FF66C4"/>
<path d="M161.709 114.55C146.586 115.537 134.985 117.347 132.82 119.998C129.203 124.421 128.092 142.919 128.505 160.447C147.84 152.299 161.306 134.853 161.706 114.55H161.709Z" fill="#6A42E3"/>
<path d="M199.306 55.8622C202.594 53.1556 207.528 53.3498 211.439 54.1048C211.908 54.1956 212.396 53.9732 212.531 53.4845C212.65 53.049 212.384 52.482 211.911 52.3912C207.275 51.4984 201.887 51.4482 198.052 54.606C197.682 54.9099 197.736 55.5458 198.052 55.8622C198.418 56.2287 198.934 56.1692 199.306 55.8622Z" fill="#E6F5F2"/>
<path d="M185.547 153.019C180.059 139.573 179.699 125.006 181.529 110.771C182.459 103.551 183.882 96.3892 185.431 89.278C186.979 82.1668 188.853 74.6797 191.034 67.509C191.582 65.7046 192.154 63.9096 192.749 62.1208C192.968 61.4598 193.334 60.7581 193.343 60.0532C193.352 59.3484 193.293 58.5997 193.268 57.8792C193.158 54.6932 193.052 51.5042 192.943 48.3182C192.817 44.6185 192.689 40.9188 192.564 37.2191C192.495 35.1704 192.495 33.1028 192.354 31.0572C192.311 30.44 192.145 29.9169 192.52 29.353C193.19 28.338 195.011 28.4382 195.417 29.6193C195.505 29.8699 195.474 30.2239 195.499 30.487L195.69 32.4982C196.002 35.8408 196.318 39.1802 196.631 42.5228C196.653 42.7577 196.675 42.9958 196.697 43.2307C196.803 44.3742 198.355 44.371 198.471 43.2307C198.9 39.0267 199.325 34.8226 199.754 30.6217C199.822 29.9388 199.797 29.1055 200.239 28.5573C200.495 28.2346 200.986 27.89 201.427 27.9527C201.471 27.9589 201.484 27.9433 201.575 28.056C201.922 28.4884 201.994 29.1963 202.059 29.7226C202.31 31.7338 202.119 33.8076 202.097 35.8345C202.072 38.2341 202.044 40.6338 202.019 43.0334C202.009 44.0264 203.517 44.252 203.761 43.2683C204.8 39.0737 205.839 34.879 206.878 30.6844C207.072 29.8949 207.169 28.9614 207.96 28.5447C209.318 27.8305 210.485 29.165 210.281 30.4494C209.925 32.6861 209.427 34.9104 209.002 37.1377C208.576 39.365 208.179 41.4357 207.769 43.5847C207.556 44.7 209.121 45.1542 209.481 44.0578C210.288 41.5924 211.092 39.1301 211.899 36.6647L213.291 32.4073C213.373 32.1536 213.438 31.881 213.545 31.6336C213.742 31.1793 214.139 30.7596 214.54 30.4588C214.902 30.1863 215.76 29.6788 216.163 29.7383C216.676 29.8135 217.046 30.6154 217.086 31.054C217.118 31.3736 217.017 31.6461 216.93 31.95C216.867 32.1693 216.808 32.3917 216.745 32.611L215.841 35.869C214.902 39.246 213.964 42.6261 213.025 46.0032C212.39 48.2869 211.755 50.5738 211.12 52.8575C210.954 53.4527 211.564 54.2108 212.212 53.9508C213.357 53.4871 214.499 53.0235 215.644 52.5599C216.104 52.375 216.57 52.1401 217.052 52.0117C218.128 51.7266 219.198 52.3531 219.348 53.4903C219.517 54.7841 218.341 55.4075 217.471 56.0685C216.223 57.0145 214.974 57.9575 213.723 58.9035C212.822 59.5865 211.886 60.2412 211.01 60.9555C210.619 61.275 210.519 61.5914 210.475 62.0488C210.366 63.1953 210.275 64.3419 210.175 65.4884C209.725 70.6354 209.274 75.7793 208.824 80.9263C208.251 87.4893 207.675 94.0554 207.103 100.618C206.646 105.831 206.192 111.044 205.736 116.257C205.629 117.485 205.52 118.71 205.413 119.938C205.36 120.561 205.26 121.169 205.016 121.755C204.575 122.807 203.392 124.301 202.069 123.888C200.745 123.474 201.334 121.767 201.615 120.862C202.491 118.027 204.259 115.542 206.139 113.287C207.86 111.219 209.74 109.286 211.746 107.491C215.778 103.889 220.318 100.881 225.127 98.4192C230.011 95.9162 235.248 93.8486 240.582 92.5485C243.536 91.828 246.555 91.734 249.58 91.7403C252.186 91.7434 255.146 92.1225 257.533 90.8632C259.473 89.8388 260.746 87.9216 261.472 85.8979C262.37 83.4074 261.988 81.1456 260.361 79.078C258.735 77.0073 257.712 74.166 257.79 71.4029C257.924 66.5723 261.272 62.0738 265.036 59.3077C268.374 56.8548 272.472 55.6894 276.596 55.8586C280.069 55.9996 283.704 57.0741 286.448 59.2669C288.685 61.0526 290.324 63.7592 289.667 66.7039C289.283 68.43 288.222 69.9462 287.493 71.5408C286.557 73.5833 285.753 75.6884 285.059 77.8249C283.623 82.2577 282.612 86.8878 282.346 91.5492C282.13 95.3366 282.346 99.6253 284.408 102.94C284.68 103.375 284.978 103.754 285.322 104.127C285.466 104.284 285.606 104.443 285.744 104.606C285.835 104.716 285.925 104.826 286.016 104.935C286.107 105.045 286.288 105.28 286.226 105.201C289.514 109.525 291.341 114.863 292.202 120.179C292.956 124.853 292.915 129.652 292.38 134.348C291.77 139.68 290.553 144.974 288.344 149.88C284.23 159.021 277.222 166.828 268.487 171.758C258.381 177.466 246.508 178.816 235.101 177.829C232.147 177.576 229.21 177.162 226.294 176.623C223.428 176.094 220.509 175.533 217.721 174.675C215.04 173.848 212.137 174.092 209.671 175.458C209.046 175.803 208.457 176.222 207.86 176.614C203.558 179.44 199.319 182.391 194.945 185.1C193.293 186.125 191.075 184.568 191.948 182.644C192.276 181.921 193.102 181.523 193.737 181.106C196.206 179.484 198.674 177.864 201.143 176.241C202.745 175.189 204.35 174.136 205.951 173.08C206.759 172.551 206.271 171.141 205.269 171.458C201.862 172.529 198.455 173.6 195.048 174.672C193.415 175.186 191.779 175.699 190.146 176.213C189.326 176.47 188.487 176.529 187.784 175.915C186.526 174.822 187.202 173.09 188.541 172.52C190.308 171.768 192.107 171.085 193.891 170.367C194.942 169.945 194.56 168.444 193.418 168.654C191.882 168.939 190.343 169.221 188.807 169.506C188.256 169.606 187.668 169.785 187.101 169.782C185.359 169.769 184.527 167.702 185.647 166.417C186.11 165.888 185.897 165.173 185.256 164.932C183.544 164.29 183.497 161.806 185.24 161.167C185.537 161.057 185.869 161.013 186.179 160.951C187.68 160.644 189.179 160.337 190.681 160.03C194.948 159.159 199.219 158.285 203.486 157.414C204.569 157.191 205.648 156.972 206.73 156.75C207.403 156.612 207.56 155.719 207.122 155.265C206.042 154.153 204.953 153.053 203.887 151.932C203.07 151.076 202.738 149.83 203.402 148.768C204.234 147.436 205.795 147.408 207.009 148.163C210.551 150.362 214.227 152.339 218.047 154.012C228.24 158.476 240.492 161.467 251.129 156.731C257.198 154.031 262.314 148.758 264.895 142.64C265.514 141.168 266.062 139.652 266.465 138.107C266.869 136.563 267.404 134.514 266.465 133.132C265.374 131.519 263.03 132.462 261.851 133.452C260.243 134.799 259.241 136.873 258.419 138.756C256.504 143.144 255.337 147.803 254.151 152.427C250.816 165.418 247.187 179.22 238.602 189.856C237.541 191.168 236.412 192.418 235.217 193.609C234.406 194.417 235.661 195.67 236.471 194.865C246.239 185.138 250.766 171.724 254.314 158.723C255.625 153.924 256.717 149.05 258.237 144.31C258.997 141.945 259.839 139.573 261.053 137.399C261.801 136.055 262.939 134.154 264.679 134.038C264.917 134.022 264.957 134.047 265.02 134.141C265.007 134.125 265.139 134.486 265.158 134.664C265.242 135.46 265.073 136.29 264.895 137.061C264.557 138.527 264.056 139.959 263.512 141.359C261.15 147.408 256.163 152.564 250.234 155.193C239.881 159.788 227.642 156.452 217.85 151.982C215.782 151.039 213.754 150.008 211.768 148.905C210.263 148.069 208.824 147.001 207.275 146.261C204.443 144.914 201.055 147.161 201.29 150.321C201.443 152.398 203.186 153.749 204.534 155.136C204.978 155.597 205.426 156.054 205.87 156.515L206.261 155.03C199.256 156.461 192.229 157.802 185.246 159.325C183.92 159.613 182.822 160.5 182.365 161.803C181.648 163.858 182.837 165.903 184.789 166.636L184.398 165.152C183.078 166.661 182.969 168.883 184.383 170.383C185.403 171.464 186.792 171.664 188.187 171.411C190.089 171.066 191.992 170.709 193.894 170.358L193.421 168.644C191.644 169.359 189.87 170.082 188.09 170.79C186.557 171.398 185.412 172.573 185.353 174.308C185.284 176.273 186.798 177.936 188.722 178.155C190.239 178.328 191.985 177.485 193.396 177.043C195.871 176.266 198.343 175.486 200.817 174.709C202.46 174.192 204.099 173.676 205.742 173.162L205.06 171.539C201.03 174.186 197 176.833 192.971 179.484C192.439 179.831 191.87 180.157 191.378 180.561C189.667 181.968 189.551 184.659 191.159 186.197C192.451 187.431 194.379 187.538 195.865 186.614C196.497 186.219 197.113 185.793 197.736 185.386C201.812 182.707 205.861 179.979 209.969 177.347C212.334 175.831 214.884 175.687 217.524 176.47C220.277 177.288 223.153 177.839 225.975 178.353C231.587 179.38 237.297 179.975 243.007 179.888C253.754 179.728 264.526 177.018 273.38 170.75C281.27 165.164 287.433 157.273 290.934 148.254C292.827 143.383 293.822 138.176 294.301 132.982C294.717 128.49 294.626 123.951 293.888 119.496C293.015 114.233 291.172 108.917 287.987 104.587C287.465 103.876 286.883 103.244 286.31 102.579C286.404 102.689 286.288 102.545 286.257 102.501C286.129 102.332 286.013 102.144 285.904 101.962C285.688 101.608 285.494 101.239 285.325 100.863C284.981 100.095 284.743 99.2807 284.555 98.463C284.12 96.5584 284.026 94.5879 284.08 92.6425C284.198 88.1158 285.14 83.611 286.46 79.291C287.092 77.2203 287.821 75.1747 288.691 73.1917C289.436 71.4907 290.478 69.8899 291.103 68.1418C293.503 61.4473 286.955 56.3222 281.223 54.7778C277.538 53.7847 273.549 53.8098 269.891 54.9188C265.458 56.2627 261.776 59.1949 259.082 62.9353C256.673 66.2841 255.45 70.3817 256.31 74.473C256.604 75.8764 257.139 77.2391 257.849 78.4859C258.603 79.8079 259.839 80.9012 260.152 82.43C260.577 84.5163 259.326 87.0883 257.818 88.4948C255.931 90.2523 253.313 89.9672 250.922 89.9641C248.032 89.9609 245.144 89.9484 242.278 90.3995C239.553 90.8287 236.887 91.7027 234.284 92.6049C224.435 96.0227 215.106 101.339 207.775 108.829C205.889 110.756 204.099 112.82 202.576 115.047C201.143 117.143 199.722 119.696 199.506 122.278C199.291 124.859 201.743 126.422 204.052 125.332C205.97 124.427 206.953 122.312 207.156 120.298C207.419 117.682 207.613 115.06 207.844 112.441C208.342 106.746 208.839 101.051 209.34 95.3523C209.89 89.0713 210.438 82.7902 210.989 76.5061C211.364 72.2174 211.739 67.9288 212.115 63.637C212.168 63.0136 212.224 62.3934 212.278 61.77L211.84 62.5375C214.142 60.7957 216.448 59.0508 218.751 57.309C220.074 56.3066 221.316 55.2383 221.122 53.3681C220.863 50.8714 218.341 49.5838 216.098 50.4704C214.643 51.0437 213.197 51.6451 211.749 52.2341L212.841 53.3274C214.421 47.6416 216.001 41.9589 217.581 36.2731L218.516 32.9054C218.913 31.4801 219.067 30.061 217.947 28.8737C217.531 28.432 216.92 27.9903 216.298 27.9934C215.559 27.9965 214.818 28.2534 214.174 28.598C213.141 29.1462 212.249 30.0672 211.84 31.1731C211.473 32.163 211.179 33.1874 210.851 34.193C209.828 37.3225 208.802 40.4552 207.779 43.5847L209.49 44.0578C210.335 39.6438 211.251 35.2393 212.024 30.8159C212.315 29.1431 211.555 27.4389 209.915 26.8061C207.869 26.0167 205.876 27.3794 205.385 29.3874C204.894 31.3955 204.346 33.5852 203.827 35.6841C203.239 38.0556 202.654 40.4239 202.066 42.7953L203.808 43.0303C203.833 40.7183 203.858 38.4096 203.883 36.0976C203.908 33.792 204.121 31.4331 203.774 29.1494C203.58 27.8837 203.032 26.2266 201.496 26.1764C199.472 26.1138 198.249 27.865 198.089 29.6913C197.902 31.8341 197.654 33.9737 197.435 36.1133C197.194 38.4847 196.954 40.8562 196.713 43.2276H198.487C198.217 40.3831 197.952 37.5355 197.682 34.6911L197.257 30.1675C197.085 28.338 195.724 26.7873 193.762 26.85C192.414 26.8907 191.197 27.7835 190.718 29.0366C190.452 29.732 190.524 30.4087 190.593 31.054C190.671 31.7683 190.643 32.5107 190.668 33.2281C190.781 36.5425 190.893 39.8537 191.006 43.1681C191.134 46.9649 191.266 50.7617 191.394 54.5554L191.528 58.5433C191.547 59.0508 191.676 59.6898 191.585 60.1942C191.541 60.4323 191.338 60.7832 191.253 61.0338C191.1 61.4911 190.947 61.9516 190.796 62.4122C190.493 63.3332 190.199 64.2542 189.908 65.1814C189.326 67.0329 188.772 68.8905 188.237 70.7576C187.167 74.4918 186.188 78.251 185.281 82.029C183.504 89.4221 181.936 96.8873 180.703 104.393C178.323 118.879 177.506 133.934 181.917 148.132C182.48 149.946 183.128 151.734 183.848 153.492C184.273 154.535 185.991 154.078 185.559 153.019H185.547Z" fill="#E6F5F2"/>
<path d="M189.348 171.752C190.975 171.26 192.598 170.771 194.225 170.28C196.8 169.503 199.378 168.726 201.953 167.946C202.544 167.767 203.139 167.589 203.73 167.41C204.819 167.081 204.356 165.368 203.258 165.697C201.631 166.188 200.007 166.677 198.38 167.169C195.805 167.946 193.227 168.723 190.652 169.503C190.061 169.681 189.467 169.86 188.875 170.038C187.787 170.367 188.25 172.081 189.348 171.752Z" fill="#E6F5F2"/>
<path d="M185.209 166.624C186.989 166.201 188.769 165.778 190.546 165.355C193.368 164.685 196.193 164.011 199.015 163.341C199.669 163.184 200.32 163.031 200.974 162.874C202.084 162.611 201.615 160.898 200.501 161.161C198.721 161.584 196.941 162.007 195.164 162.429C192.342 163.1 189.517 163.773 186.695 164.444C186.041 164.6 185.39 164.754 184.736 164.91C183.626 165.174 184.095 166.887 185.209 166.624Z" fill="#E6F5F2"/>
<path d="M237.729 108.738C231.256 114.026 224.01 118.259 217.468 123.453C215.838 124.746 214.295 126.15 212.672 127.453C211.048 128.756 209.509 129.865 207.857 130.974C204.465 133.252 200.902 135.272 197.244 137.089C193.587 138.906 189.776 140.623 185.881 141.954C181.848 143.336 177.609 144.266 173.329 143.969C166.543 143.496 160.496 139.689 156.072 134.677C150.997 128.925 148.294 121.764 147.027 114.271C146.323 110.111 145.997 105.9 145.556 101.709C145.156 97.8931 144.515 94.1245 143.933 90.334C142.997 84.219 142.052 77.6121 137.697 72.8724C132.707 67.4403 124.3 65.827 117.436 68.1609C115.756 68.731 114.001 69.6363 113.188 71.3061C112.48 72.7534 112.506 74.7301 113.826 75.8297C114.924 76.7413 116.76 76.8102 117.812 75.7733C119.01 74.5891 118.566 72.7972 117.458 71.7352C116.216 70.5417 114.508 70.0968 112.85 69.8682C111.191 69.6395 109.674 69.6865 108.091 69.9402C104.912 70.4477 101.881 71.9326 99.5029 74.1035C98.3391 75.1655 97.3473 76.4186 96.5651 77.7876C95.9989 78.7806 97.5288 79.6766 98.0951 78.6835C101.105 73.4144 107.691 70.4602 113.626 71.8042C114.376 71.9733 115.099 72.1926 115.744 72.6281C116.225 72.9539 116.948 73.5679 116.729 74.232C116.579 74.6862 116.05 74.8084 115.618 74.752C114.971 74.6674 114.574 74.1693 114.492 73.5365C114.267 71.8136 115.897 70.6701 117.286 70.1062C118.966 69.4233 120.821 69.0599 122.627 68.9472C126.156 68.7279 129.744 69.4766 132.82 71.2497C135.498 72.7941 137.56 75.0747 138.942 77.8283C140.253 80.4378 140.939 83.323 141.464 86.1769C142.037 89.2814 142.49 92.4109 142.988 95.528C144.252 103.425 144.299 111.505 146.251 119.289C147.94 126.028 151.197 132.343 156.09 137.309C160.571 141.854 166.387 145.112 172.8 145.707C180.782 146.447 188.594 143.12 195.668 139.815C202.641 136.557 209.355 132.609 215.243 127.619C218.288 125.038 221.404 122.607 224.673 120.317C227.943 118.027 231.156 115.89 234.328 113.575C235.908 112.422 237.46 111.235 238.974 109.998C239.86 109.274 238.599 108.024 237.72 108.742L237.729 108.738Z" fill="#E6F5F2"/>
<path d="M261.791 84.1411C260.99 85.7513 265.383 84.7395 267.082 84.1505C263.872 82.9006 260.277 79.9809 258.281 77.1709C258.281 77.1709 262.542 82.6249 261.791 84.1411Z" fill="#E6F5F2"/>
<path d="M261.025 83.6929C260.696 84.3915 260.749 85.1621 261.456 85.607C261.963 85.9234 262.648 85.9234 263.224 85.8827C264.607 85.7887 266.009 85.4566 267.319 85.0055C268.186 84.7079 268.13 83.6115 267.319 83.2919C265.693 82.6497 264.163 81.6661 262.805 80.5728C261.447 79.4795 260.095 78.1763 259.051 76.7196L257.658 77.7941C257.749 77.9131 257.508 77.5936 257.574 77.6876C257.618 77.7471 257.665 77.8035 257.708 77.863C257.862 78.0666 258.015 78.2734 258.165 78.4801C258.625 79.1161 259.072 79.7645 259.492 80.4287C259.948 81.1523 260.377 81.8948 260.724 82.6779C260.634 82.4743 260.756 82.7563 260.768 82.7938C260.799 82.8784 260.831 82.9599 260.859 83.0445C260.909 83.198 260.946 83.3546 260.987 83.5112C261.047 83.7493 261.003 83.4016 260.993 83.5394C260.99 83.5989 260.993 83.6741 261 83.7337C261.022 83.9623 261.031 83.5833 261.006 83.7149C260.99 83.7932 260.906 83.9623 261.031 83.6898C260.831 84.1252 260.909 84.6453 261.35 84.9053C261.732 85.1308 262.361 85.0243 262.564 84.5857C263.137 83.3483 262.37 81.8979 261.779 80.8109C261.137 79.6267 260.377 78.5083 259.582 77.4244C259.363 77.1268 259.141 76.8324 258.916 76.541C258.303 75.7547 256.936 76.7979 257.524 77.6155C258.688 79.2383 260.099 80.6699 261.66 81.9104C263.221 83.151 264.961 84.2537 266.853 85.0024V83.2888C266.378 83.4517 265.896 83.5895 265.408 83.7117C265.123 83.7838 264.835 83.8496 264.548 83.9059C264.294 83.9592 263.862 84.0344 263.718 84.0532C263.822 84.0375 263.584 84.0688 263.587 84.0688C263.521 84.0751 263.453 84.0845 263.387 84.0876C263.259 84.1002 263.133 84.1064 263.005 84.1127C262.889 84.1158 262.774 84.119 262.658 84.1127C262.605 84.1127 262.551 84.1033 262.498 84.1033C262.332 84.1002 262.63 84.1346 262.53 84.1096C262.476 84.0939 262.226 84.025 262.37 84.0814C262.514 84.1378 262.392 84.0908 262.361 84.0688C262.242 83.9937 262.508 84.191 262.436 84.1252C262.545 84.2286 262.592 84.404 262.592 84.4886C262.592 84.3853 262.551 84.7267 262.58 84.5732C262.592 84.5106 262.667 84.3696 262.567 84.5857C262.77 84.1534 262.689 83.6271 262.248 83.3703C261.863 83.1447 261.241 83.2543 261.034 83.6898L261.025 83.6929Z" fill="#E6F5F2"/>
<path d="M132.354 105.055C127.745 115.035 119.98 123.61 109.915 128.23C106.621 129.743 103.07 130.514 99.7563 131.986C98.2796 132.641 96.8123 133.377 95.5389 134.383C94.6066 135.119 93.6055 136.215 93.9121 137.506C94.3094 139.185 96.4713 139.818 97.8979 140.21C99.3246 140.601 100.745 140.98 102.169 141.366L101.777 139.881C98.9554 142.506 96.1303 145.134 93.3082 147.759C91.4373 149.501 89.5633 151.243 87.6924 152.985C86.7506 153.862 85.4804 154.761 84.7608 155.851C83.4593 157.825 84.6388 160.607 86.9446 161.073C88.7467 161.437 89.9481 160.256 91.2183 159.209L89.9637 157.953C88.4463 159.416 86.3064 160.97 87.1417 163.398C87.6767 164.955 89.2504 165.926 90.8773 165.697C91.7158 165.578 92.3634 165.136 92.9829 164.591C95.7986 162.12 98.6113 159.648 101.427 157.176C102.422 156.302 103.417 155.431 104.409 154.557L103.154 153.301C99.6531 156.919 96.1522 160.538 92.6512 164.156C91.9035 164.926 91.2652 165.656 91.162 166.809C90.9336 169.365 93.6305 171.245 95.9519 170.23C96.8217 169.851 97.4443 169.043 98.0825 168.363C99.0649 167.314 100.044 166.267 101.027 165.218C102.876 163.241 104.728 161.268 106.577 159.291L105.185 158.216C103.01 161.8 100.836 165.384 98.6613 168.968C98.3704 169.447 98.0606 169.923 97.7853 170.412C96.9562 171.881 97.2034 173.748 98.5331 174.841C100.144 176.17 102.478 175.684 103.623 174.008C105 171.991 106.226 169.873 107.619 167.862C113.238 159.748 119.817 152.33 126.928 145.498C134.278 138.437 142.206 132.043 150.374 125.965C156.15 121.667 162.329 117.081 164.888 110.058C167.992 101.546 164.988 91.9663 160.599 84.4949C158.334 80.6386 155.571 77.0767 152.758 73.612C150.102 70.3383 147.283 67.1868 144.202 64.3048C138.148 58.6409 130.993 54.0515 122.864 52.0967C117.245 50.7465 111.436 51.207 105.795 50.0354C103.764 49.6125 101.28 49.0048 99.9034 47.3382C98.5268 45.6716 99.5342 43.2532 100.673 41.4895C102.394 38.8204 104.912 36.9345 106.865 34.4754C109.133 31.6184 109.63 28.1411 109.364 24.573C109.08 20.7574 107.978 17.017 105.422 14.1004C103.514 11.9264 100.908 10.4164 98.1201 9.69275C92.426 8.21413 86.0279 9.85565 81.7761 13.9313C79.1199 16.4781 77.5618 19.8677 76.861 23.4546C75.888 28.4356 76.545 33.4823 76.908 38.4884C77.224 42.849 77.5963 48.018 75.3124 51.9526C73.6354 54.8409 70.6945 56.542 67.9288 58.2336C64.7345 60.1884 61.7091 62.3312 59.6129 65.5077C57.3259 68.9693 56.478 73.1577 56.6125 77.2647C56.7471 81.4374 57.7764 85.5193 59.0779 89.4633C60.2981 93.163 61.6465 96.8283 63.3047 100.359C64.9629 103.889 67.0841 107.564 69.8185 110.549C71.0762 111.925 72.4997 113.168 74.0734 114.168C75.303 114.948 76.7171 115.721 78.1907 115.856C79.6643 115.991 80.775 115.12 80.9971 113.666C81.2787 111.849 80.6123 109.967 79.8958 108.322C78.2689 104.582 75.7316 101.311 73.6823 97.8025C70.9698 93.163 68.1228 88.652 64.9566 84.3101C61.7904 79.9682 58.5367 75.761 55.1702 71.6102C51.8038 67.4594 48.5751 63.6532 45.1367 59.7969L45.2744 60.8714C46.5728 58.2618 47.8712 55.6492 49.1695 53.0397C49.5231 52.3254 49.7921 51.5986 49.7608 50.7841C49.7045 49.3556 48.8504 48.0211 47.5614 47.4008C46.3632 46.8244 44.9052 46.8777 43.7726 47.5919C43.1532 47.9835 42.7402 48.538 42.2959 49.1019C41.2447 50.4364 40.1904 51.7678 39.1391 53.1023L40.6534 53.7288C39.9651 48.4252 39.2768 43.1247 38.5854 37.8211C38.4759 36.9721 38.3664 36.1232 38.2537 35.2742C38.0003 33.3382 36.5486 31.7719 34.4681 32.0413C32.569 32.2888 31.4177 33.9961 31.5804 35.835C31.6836 37.0254 31.8056 38.2158 31.9183 39.4062C32.1967 42.3384 32.4752 45.2675 32.7536 48.1997L34.4963 47.9647C33.6891 45.8032 32.8819 43.6416 32.0747 41.4832C31.5616 40.1111 31.0485 38.739 30.5385 37.3669C30.2069 36.4772 29.9347 35.4403 29.2777 34.7354C28.4142 33.8113 27.0157 33.4541 25.8143 33.852C24.4534 34.3031 23.6649 35.4716 23.5023 36.8531L25.0165 36.2266C23.2645 34.4347 20.1922 35.0267 19.3693 37.4483C19.0033 38.5259 19.3568 39.5065 19.6885 40.5152C20.602 43.2876 21.5125 46.06 22.426 48.8325C22.7013 49.672 22.9767 50.5085 23.2551 51.348L24.9665 50.875C23.6681 47.6514 22.3697 44.4279 21.0682 41.2044C20.4581 39.6913 20.0076 38.0341 18.2743 37.4514C15.518 36.521 13.1402 39.3968 14.1664 41.9719C16.7006 48.3469 19.2943 54.7 21.8597 61.0625C23.4835 65.0911 25.3356 69.0351 27.1784 72.9635C31.7118 82.6278 36.5893 92.1449 41.9831 101.358C44.9803 106.474 48.1402 111.499 51.5848 116.326C54.6853 120.674 58.011 124.906 61.7904 128.688C62.6133 129.512 63.4611 130.31 64.334 131.078C65.2069 131.845 66.4458 130.58 65.5886 129.822C61.8624 126.542 58.6024 122.742 55.5957 118.798C52.173 114.305 49.0475 109.585 46.0941 104.77C40.4344 95.5439 35.3785 85.9453 30.6731 76.1996C28.2453 71.1716 25.9019 66.0967 23.7119 60.9591C23.6274 60.7617 23.8151 61.2191 23.7244 60.9873C23.6024 60.6709 23.471 60.3607 23.3458 60.0475L21.5719 55.646C20.0201 51.796 18.4683 47.9459 16.9165 44.0959C16.5598 43.2062 16.1813 42.3228 15.8402 41.4268C15.446 40.3868 15.8747 39.1274 17.148 39.0648C17.9552 39.024 18.4933 39.5472 18.7593 40.2113C20.1296 43.6134 21.5031 47.0186 22.8734 50.4207C22.9986 50.7309 23.1237 51.041 23.2488 51.3511C23.6649 52.3818 25.3231 51.9902 24.9602 50.8781C23.6868 47.0092 22.3885 43.1435 21.1401 39.2653C20.9962 38.8173 20.893 38.385 21.0776 37.9213C21.5344 36.7716 22.9516 36.6557 23.7588 37.4828C24.347 38.0842 25.1855 37.5736 25.2731 36.8562C25.4827 35.0988 27.7509 35.1239 28.3548 36.5837C28.6582 37.3136 28.9085 38.0686 29.187 38.8079C30.135 41.3422 31.0798 43.8766 32.0278 46.4078C32.2812 47.0844 32.5346 47.7642 32.788 48.4409C33.1103 49.3024 34.6308 49.2773 34.5307 48.2059C34.3148 45.9473 34.1021 43.6886 33.8862 41.4331L33.4701 37.0348C33.395 36.2516 33.1197 35.1583 33.5983 34.4691C34.2084 33.5857 35.5475 33.57 36.1795 34.4409C36.3922 34.7323 36.4485 35.0581 36.4986 35.3995C36.6206 36.2642 36.7238 37.1288 36.8365 37.9934C37.2338 41.0478 37.6312 44.1052 38.0285 47.1596C38.3132 49.3494 38.5979 51.5391 38.8826 53.732C38.9671 54.3836 39.8587 55.0414 40.3969 54.3585C41.2009 53.3373 42.0081 52.3191 42.8122 51.2979C43.6162 50.2766 44.5266 48.6132 46.0816 48.7855C47.2579 48.917 48.1402 50.0386 47.9775 51.2164C47.9181 51.6581 47.6834 52.0529 47.4895 52.4445L45.4308 56.5859C44.8677 57.7168 44.3076 58.8445 43.7445 59.9754C43.5599 60.3482 43.6068 60.7398 43.8822 61.0499C50.7432 68.7407 57.2633 76.7572 63.336 85.0838C66.3895 89.266 69.1615 93.5953 71.777 98.0625C73.7856 101.493 76.1946 104.726 77.9404 108.303C78.6537 109.766 79.4922 111.63 79.2638 113.306C79.0918 114.575 77.7183 114.033 76.8861 113.679C73.7606 112.351 71.2013 109.747 69.224 107.047C66.8963 103.871 65.1036 100.306 63.5988 96.6748C62.0939 93.044 60.88 89.6325 59.8663 86.0174C58.7901 82.1924 58.0955 78.1951 58.4678 74.2134C58.8401 70.2318 60.5421 66.4444 63.4674 63.6406C65.8795 61.3287 68.8862 59.847 71.6394 58.0018C74.3925 56.1567 76.7015 53.8698 77.8309 50.687C79.3608 46.3733 78.9259 41.4331 78.563 36.9627C78.1688 32.1321 77.6432 27.17 78.9197 22.4208C79.7769 19.2318 81.4163 16.4124 84.0037 14.3291C86.1312 12.6155 88.7404 11.5473 91.4248 11.115C96.7904 10.2535 102.563 12.3211 105.432 17.0953C106.358 18.6366 106.927 20.3345 107.268 22.095C107.684 24.2503 107.85 26.5967 107.5 28.777C107.037 31.6748 105.369 33.6327 103.351 35.6313C100.301 38.6513 94.5534 44.8728 99.0899 49.0424C100.758 50.5774 103.088 51.2728 105.256 51.7302C107.753 52.2565 110.309 52.482 112.85 52.6449C115.75 52.8329 118.622 52.9833 121.478 53.5973C125.411 54.4431 129.175 55.9123 132.676 57.8859C139.662 61.8268 145.444 67.5628 150.54 73.6934C156.175 80.4663 161.713 87.8657 163.668 96.6278C164.553 100.597 164.685 104.826 163.465 108.739C162.451 111.99 160.492 114.813 158.137 117.238C155.618 119.832 152.718 122.018 149.824 124.173C146.12 126.933 142.443 129.728 138.858 132.641C131.215 138.85 123.925 145.523 117.324 152.844C114.173 156.337 111.182 159.977 108.385 163.758C106.955 165.694 105.579 167.668 104.262 169.682C103.614 170.672 102.982 171.668 102.366 172.677C101.896 173.444 101.196 174.077 100.226 173.783C99.0211 173.419 98.8365 172.119 99.4059 171.164C99.7782 170.537 100.163 169.917 100.542 169.293C101.846 167.141 103.151 164.992 104.456 162.84C105.21 161.6 105.964 160.356 106.718 159.115C107.237 158.26 106.02 157.298 105.325 158.041C102.24 161.336 99.1463 164.623 96.0708 167.924C95.7799 168.238 95.5014 168.545 95.079 168.679C94.0748 168.999 93.0141 168.272 92.9297 167.226C92.8577 166.342 93.4772 165.869 94.0247 165.302C95.93 163.332 97.8385 161.361 99.7438 159.391C101.302 157.781 102.857 156.171 104.415 154.564C105.216 153.733 104.014 152.559 103.16 153.307C101.048 155.162 98.9366 157.016 96.8217 158.871C95.5045 160.027 94.1874 161.183 92.8702 162.342C92.1131 163.006 91.1745 164.162 90.0639 163.937C88.5746 163.636 88.437 161.916 89.3818 160.986C89.9888 160.387 90.6082 159.805 91.2214 159.212C92.0599 158.404 90.8335 157.245 89.9669 157.956C89.1002 158.667 88.2148 159.729 87.0322 159.259C85.6681 158.721 85.8058 157.173 86.7162 156.321C87.6266 155.469 88.6309 154.542 89.5883 153.652C93.1236 150.363 96.659 147.076 100.194 143.787C101.142 142.907 102.087 142.027 103.035 141.146C103.526 140.689 103.27 139.831 102.644 139.661C101.368 139.317 100.094 138.972 98.8178 138.624C98.2014 138.458 97.5757 138.299 96.9813 138.057C96.4306 137.835 95.8456 137.49 95.6485 137.143C95.7361 137.296 95.6391 137.058 95.6172 137.008C95.6829 137.162 95.6797 136.905 95.6203 137.055C95.7079 136.823 95.6516 136.836 95.8518 136.548C96.052 136.259 96.5902 135.793 96.9969 135.504C98.2577 134.618 99.6719 133.941 101.086 133.34C104.346 131.952 107.8 131.178 111.023 129.678C115.772 127.463 120.086 124.336 123.775 120.618C127.98 116.382 131.387 111.373 133.887 105.96C134.362 104.929 132.835 104.027 132.357 105.064L132.354 105.055Z" fill="#E6F5F2"/>
<path d="M89.873 160.318C91.1745 159.181 92.4791 158.044 93.7807 156.91C95.8581 155.096 97.9386 153.282 100.016 151.471C100.495 151.052 100.977 150.635 101.455 150.215C101.815 149.899 101.777 149.282 101.455 148.959C101.095 148.599 100.564 148.643 100.201 148.959C98.8991 150.096 97.5945 151.233 96.2929 152.367C94.2155 154.181 92.135 155.995 90.0576 157.806C89.5789 158.226 89.0971 158.642 88.6184 159.062C88.2586 159.378 88.2962 159.996 88.6184 160.318C88.9782 160.678 89.5101 160.635 89.873 160.318Z" fill="#E6F5F2"/>
<path d="M23.521 36.9972C24.0122 38.4539 24.5034 39.9106 24.9946 41.3673C25.7736 43.6761 26.5527 45.9848 27.3317 48.2936C27.5132 48.8262 27.6915 49.3619 27.873 49.8944C28.0263 50.3487 28.483 50.6463 28.9648 50.5147C29.406 50.3925 29.7376 49.8788 29.5843 49.4214C29.0931 47.9647 28.6019 46.508 28.1107 45.0513C27.3317 42.7425 26.5527 40.4337 25.7736 38.1249C25.5922 37.5924 25.4139 37.0567 25.2324 36.5241C25.0791 36.0699 24.6223 35.7723 24.1405 35.9039C23.6994 36.026 23.3677 36.5398 23.521 36.9972Z" fill="#E6F5F2"/>
<path d="M28.8522 58.3054C31.9746 56.0436 35.7164 54.7718 39.574 54.7216C40.7129 54.706 40.7191 52.9298 39.574 52.9454C35.4286 52.9987 31.3207 54.3332 27.9574 56.7704C27.5695 57.0524 27.3818 57.5442 27.6383 57.9859C27.8636 58.3681 28.4611 58.5874 28.8522 58.3054Z" fill="#E6F5F2"/>
<path d="M96.7435 43.1874C94.8569 42.7676 93.1205 41.6962 91.9129 40.1831C95.5421 40.346 98.4642 41.4581 103.392 38.103C103.392 38.103 98.8584 41.6555 98.7208 43.3158C98.5487 43.9831 98.1952 43.9173 97.9105 43.7231C97.5538 43.4787 97.1658 43.2814 96.7435 43.1874Z" fill="#E6F5F2"/>
<path d="M96.9781 42.3288C95.2136 41.9216 93.6806 40.963 92.5386 39.5533L91.9129 41.0695C93.6962 41.1541 95.4701 41.4767 97.2597 41.342C99.6625 41.1603 101.856 40.208 103.839 38.8672L102.766 37.4732C102.062 38.0245 101.386 38.6135 100.729 39.2243C99.7532 40.1328 98.6363 41.1635 98.0825 42.404C98.0043 42.5763 97.9261 42.7549 97.8854 42.9428C97.8792 42.9648 97.876 42.9898 97.8729 43.0118C97.8573 43.0963 97.8667 43.2561 97.8322 43.2373C97.7196 43.1747 98.2577 42.9679 98.2671 42.9679C98.3766 42.9616 98.5393 43.0838 98.386 42.9742C98.2546 42.8802 98.1138 42.7956 97.9699 42.7173C97.657 42.5481 97.3223 42.4134 96.9781 42.3288C95.8706 42.0532 95.3982 43.7667 96.5057 44.0424C97.0157 44.1677 97.3849 44.5468 97.8792 44.6846C98.4767 44.8538 99.09 44.5844 99.384 44.0361C99.4529 43.9046 99.5154 43.7573 99.5561 43.6132C99.5843 43.5161 99.5874 43.4159 99.6062 43.3156C99.5436 43.6602 99.5811 43.4472 99.5968 43.4127C99.6156 43.3689 99.6249 43.3125 99.6343 43.2655C99.6813 43.0587 99.5843 43.3344 99.6468 43.2185C99.7939 42.9491 99.9441 42.6954 100.122 42.4447C100.238 42.285 100.097 42.4698 100.194 42.3508C100.244 42.2881 100.294 42.2255 100.348 42.1659C100.473 42.0187 100.601 41.8715 100.732 41.7274C101.005 41.4298 101.289 41.1415 101.577 40.8627C102.084 40.3709 102.613 39.901 103.151 39.4436C103.436 39.2024 103.723 38.9612 104.018 38.7325C104.362 38.4631 104.334 37.8773 104.086 37.5672C103.827 37.2414 103.314 37.0879 102.941 37.3385C101.946 38.0089 100.898 38.6197 99.7657 39.0207C98.8397 39.3497 97.9543 39.5282 97.0689 39.5815C95.3419 39.6849 93.6305 39.3778 91.9097 39.2964C91.5625 39.2807 91.2246 39.5313 91.0994 39.8415C90.9555 40.1955 91.0494 40.5213 91.284 40.8126C92.6012 42.4322 94.4752 43.5756 96.5057 44.0455C97.6164 44.3024 98.0919 42.5888 96.9781 42.332V42.3288Z" fill="#E6F5F2"/>
<path d="M111.273 14.4728C110.757 9.51376 97.6226 -4.99368 80.2494 3.49588C62.8761 11.9854 62.6696 38.0807 70.1157 44.4995C79.0104 50.0914 83.4875 48.1648 85.6556 44.8097C86.9822 42.7578 85.8997 37.2881 84.8609 33.3503C84.3072 31.2577 83.4687 29.2559 82.4363 27.3544C81.5509 25.7223 80.8344 23.1347 83.2904 20.9355C87.2199 17.4144 88.7279 25.0331 89.7635 25.0331C89.3505 23.3759 91.0556 18.1913 93.5366 17.7778C93.5366 17.7778 112.058 22.0194 111.27 14.4728H111.273Z" fill="#E6F5F2"/>
<path d="M112.158 14.4728C112.005 13.0662 111.332 11.7599 110.569 10.5882C109.511 8.96865 108.197 7.50882 106.752 6.22755C103.02 2.91631 98.3766 0.717168 93.4115 0.140755C87.5735 -0.535904 81.4288 1.24346 76.6358 4.59543C72.6437 7.38664 69.5776 11.3213 67.6003 15.7603C65.695 20.0333 64.6938 24.6916 64.5843 29.3687C64.4936 33.319 65.0161 37.404 66.6273 41.0379C67.2499 42.4382 68.0821 43.7978 69.1959 44.8629C69.7434 45.3861 70.4286 45.7432 71.0825 46.116C71.8552 46.5577 72.6468 46.9681 73.4571 47.3346C74.7899 47.9361 76.179 48.453 77.6213 48.7161C79.7081 49.0983 81.9138 48.9824 83.7753 47.8797C84.5199 47.438 85.1926 46.8553 85.7401 46.1849C86.4534 45.3109 86.9039 44.4243 87.0573 43.2934C87.2606 41.7929 87.1104 40.2735 86.9039 38.7824C86.6756 37.1377 86.322 35.5119 85.9184 33.9017C85.4585 32.069 84.8453 30.2991 84.0475 28.5824C83.7002 27.8399 83.2841 27.1288 82.9431 26.3832C82.9337 26.3644 82.8774 26.2297 82.9275 26.355C82.8993 26.2861 82.8711 26.2172 82.8461 26.1483C82.7992 26.0198 82.7554 25.8914 82.7147 25.7598C82.6678 25.6126 82.6302 25.4622 82.5958 25.3118C82.552 25.1208 82.5301 24.9735 82.5207 24.8921C82.3862 23.498 82.9775 22.3107 84.1288 21.3835C84.0287 21.4649 84.1414 21.3741 84.157 21.3615C84.2227 21.3145 84.2915 21.2676 84.3604 21.2237C84.4574 21.161 84.5543 21.1047 84.6545 21.0545C84.7076 21.0263 84.7608 21.0013 84.814 20.9793C84.6326 21.0608 84.7515 21.0044 84.789 20.995C84.9079 20.9668 85.033 20.9292 85.1519 20.8979C84.911 20.9637 85.1676 20.8979 85.2614 20.8979C85.2958 20.8979 85.3365 20.9042 85.374 20.901C85.5555 20.8854 85.2145 20.8666 85.3302 20.8916C85.4085 20.9104 85.4898 20.923 85.568 20.948C85.6212 20.9637 85.6713 20.9856 85.7213 21.0013C85.6087 20.9668 85.5899 20.9355 85.7088 21.0013C85.7902 21.0451 85.8715 21.089 85.9466 21.1422C85.9779 21.1642 86.0092 21.1861 86.0404 21.2049C86.2031 21.3051 85.9278 21.1047 86.0185 21.1892C86.175 21.3271 86.3283 21.468 86.4659 21.6247C86.5348 21.703 86.5973 21.7844 86.6662 21.8628C86.6943 21.8972 86.7632 21.9975 86.6443 21.8314C86.6756 21.8753 86.7068 21.916 86.7381 21.9599C86.8695 22.1447 86.9947 22.3327 87.1104 22.5269C87.5297 23.2098 87.8676 23.9366 88.2555 24.6383C88.5871 25.2367 89.0064 25.8945 89.7635 25.929C90.3611 25.954 90.7428 25.3432 90.6176 24.8043C90.6114 24.773 90.5707 24.5631 90.5989 24.7292C90.627 24.8952 90.5957 24.6634 90.5926 24.6289C90.5863 24.5067 90.5863 24.3846 90.5926 24.2593C90.5989 24.0964 90.6145 23.9366 90.6333 23.7737C90.6051 23.9961 90.6395 23.7392 90.6458 23.711C90.6583 23.6327 90.6739 23.5544 90.6896 23.4792C90.7615 23.119 90.8523 22.7618 90.9618 22.411C91.0243 22.2105 91.0901 22.0131 91.1651 21.8158C91.1964 21.7312 91.2308 21.6435 91.2621 21.5589C91.284 21.5025 91.3091 21.4461 91.331 21.3897C91.3059 21.4461 91.3091 21.4461 91.331 21.3897C91.4905 21.0295 91.6689 20.6755 91.8691 20.3371C91.9661 20.1711 92.0693 20.0113 92.1788 19.8547C92.2289 19.7827 92.2789 19.7137 92.329 19.6448C92.232 19.7701 92.4072 19.554 92.426 19.5289C92.5386 19.3973 92.6606 19.2689 92.7889 19.1499C92.8452 19.0966 92.9047 19.0465 92.9641 18.9964C93.0955 18.8867 92.8671 19.0465 93.0548 18.9337C93.1894 18.8523 93.3176 18.7708 93.4616 18.705C93.2676 18.7927 93.4616 18.7082 93.5085 18.6956C93.5961 18.6737 93.6837 18.6486 93.7744 18.633H93.302C95.467 19.1279 97.6883 19.4506 99.8971 19.6636C101.659 19.8328 103.439 19.9205 105.206 19.7952C106.821 19.6793 108.52 19.4255 109.949 18.6173C111.464 17.759 112.33 16.2208 112.158 14.4728C112.111 13.9966 111.783 13.5862 111.273 13.5862C110.829 13.5862 110.341 13.9935 110.387 14.4728C110.409 14.6952 110.419 14.9207 110.406 15.1463C110.406 15.1995 110.397 15.2528 110.394 15.3029C110.387 15.4909 110.444 15.0899 110.4 15.2716C110.372 15.3844 110.356 15.5003 110.325 15.6131C110.303 15.6914 110.275 15.7666 110.253 15.8418C110.234 15.9075 110.15 16.0454 110.272 15.8073C110.25 15.848 110.234 15.895 110.212 15.9357C110.168 16.0172 110.125 16.1018 110.075 16.1801C110.025 16.2584 109.796 16.5184 109.996 16.3023C109.877 16.4276 109.768 16.5623 109.64 16.6782C109.583 16.7283 109.317 16.9225 109.558 16.7565C109.464 16.8223 109.371 16.8912 109.274 16.9539C109.098 17.0666 108.917 17.1637 108.732 17.2546C108.651 17.2922 108.57 17.3298 108.488 17.3642C108.751 17.2483 108.36 17.4112 108.288 17.4363C107.841 17.5961 107.378 17.712 106.915 17.8059C106.664 17.8561 106.414 17.8937 106.164 17.9312C106.423 17.8937 106.014 17.95 105.945 17.9563C105.801 17.972 105.657 17.9876 105.513 18.0002C104.39 18.0973 103.26 18.1004 102.137 18.0503C101.014 18.0002 99.9284 17.9062 98.8303 17.7777C98.5737 17.7464 98.3172 17.7151 98.0606 17.6806C98.3297 17.7151 97.9324 17.6618 97.8635 17.6524C97.7446 17.6368 97.6226 17.618 97.5037 17.5992C97.047 17.5334 96.5902 17.4582 96.1365 17.3799C95.5171 17.2734 94.8976 17.1575 94.2813 17.0322C94.1373 17.0008 93.9903 16.9695 93.8464 16.9382C93.4146 16.8505 93.0267 16.9695 92.6325 17.1449C91.1245 17.8153 90.2203 19.46 89.6227 20.9167C89.0877 22.2168 88.5809 23.8583 88.9125 25.2711L89.7666 24.1465C89.823 24.1465 90.0357 24.2029 90.0795 24.2279C89.9356 24.1465 90.286 24.3814 90.1389 24.2749C90.1045 24.2499 90.0826 24.1903 90.0451 24.1716C90.1421 24.2217 90.1483 24.3219 90.0451 24.159C89.8761 23.8927 89.726 23.6171 89.5789 23.3383C89.1972 22.6083 88.8312 21.8659 88.3619 21.1861C87.8676 20.4687 87.2669 19.7545 86.4534 19.3911C85.4804 18.9525 84.4355 19.0903 83.5313 19.6448C82.2454 20.4343 81.1692 21.7844 80.8501 23.2787C80.5528 24.6665 80.8469 26.0449 81.4288 27.3168C81.7636 28.0498 82.1735 28.7453 82.5145 29.4752C82.9087 30.321 83.2528 31.1856 83.5501 32.069C84.0757 33.6322 84.4511 35.2581 84.7796 36.8714C85.0831 38.3563 85.3271 39.8569 85.374 41.3731C85.3834 41.702 85.3834 42.0341 85.3709 42.363C85.3647 42.5103 85.3553 42.6544 85.3428 42.8016C85.3365 42.8799 85.3271 42.9582 85.3177 43.0334C85.3115 43.0992 85.3115 43.0961 85.3177 43.024C85.3115 43.0679 85.3052 43.1117 85.2958 43.1556C85.2458 43.4156 85.1895 43.6662 85.1081 43.9168C85.0925 43.9638 85.0737 44.0139 85.0549 44.0609C85.13 43.8698 85.0424 44.0891 85.0268 44.1173C84.9736 44.2176 84.9173 44.3147 84.8578 44.4087C84.7546 44.5653 84.6451 44.7188 84.5324 44.8692C84.4542 44.9725 84.6732 44.7031 84.545 44.8535C84.5199 44.8848 84.4949 44.9162 84.4699 44.9444C84.3948 45.0352 84.3166 45.126 84.2352 45.2138C83.9787 45.4957 83.7002 45.7495 83.4061 45.9907C83.6032 45.8309 83.3436 46.0345 83.2935 46.069C83.209 46.1285 83.1246 46.1849 83.0401 46.2382C82.8649 46.3478 82.6834 46.4512 82.4988 46.5452C82.405 46.5921 82.308 46.636 82.211 46.6799C82.1703 46.6987 82.0546 46.7394 82.2454 46.6642C82.2047 46.6799 82.1641 46.6987 82.1265 46.7112C81.9075 46.7895 81.6885 46.8647 81.4633 46.9242C81.2505 46.9806 81.0378 47.0213 80.8219 47.062C80.775 47.0714 80.728 47.0777 80.6811 47.084C80.9095 47.0464 80.6686 47.084 80.6279 47.0902C80.5059 47.1028 80.3808 47.1153 80.2587 47.1216C79.7237 47.156 79.1856 47.1341 78.6506 47.0746C78.5943 47.0683 78.5349 47.062 78.4785 47.0526C78.6381 47.0746 78.4473 47.0464 78.4066 47.0401C78.2721 47.0182 78.1375 46.9963 78.003 46.9712C77.687 46.9117 77.3773 46.8396 77.0675 46.7582C76.373 46.5733 75.6909 46.3415 75.0245 46.0721C74.2987 45.7808 73.5916 45.4362 72.8971 45.0728C72.2025 44.7094 71.2608 44.2426 70.6695 43.7947C70.4067 43.5942 70.1752 43.3248 69.9562 43.0773C69.8529 42.9582 69.7528 42.8361 69.6527 42.7139C69.4963 42.5197 69.7434 42.8423 69.5964 42.6387C69.5432 42.5666 69.49 42.4915 69.4368 42.4194C68.9988 41.796 68.6234 41.1256 68.298 40.4364C68.2135 40.2579 68.1353 40.0793 68.0571 39.9007C68.1572 40.1326 68.0227 39.8193 68.0008 39.7629C67.9601 39.6627 67.9225 39.5655 67.885 39.4653C67.7286 39.0549 67.5878 38.6414 67.4595 38.2216C67.1936 37.3539 66.9808 36.4673 66.815 35.5745C66.7743 35.3584 66.7368 35.1422 66.7024 34.926C66.6836 34.8039 66.6648 34.6817 66.6461 34.5595C66.6398 34.5094 66.6304 34.4624 66.6242 34.4123C66.6179 34.3622 66.6117 34.3152 66.6023 34.265C66.6148 34.3653 66.6179 34.381 66.6085 34.3152C66.546 33.8233 66.4928 33.3315 66.4521 32.8397C66.28 30.7345 66.3144 28.6137 66.5334 26.5148C66.5616 26.2516 66.5898 25.9854 66.6242 25.7222C66.6304 25.6658 66.6398 25.6094 66.6461 25.5562C66.6242 25.7254 66.6461 25.5405 66.6555 25.4998C66.6774 25.3463 66.6993 25.1928 66.7243 25.0393C66.8088 24.4786 66.9089 23.9178 67.0215 23.3633C67.2436 22.2637 67.519 21.1767 67.8475 20.1053C68.5295 17.8811 69.3148 16.0109 70.4786 13.9809C71.6613 11.9165 72.9221 10.2343 74.6053 8.5708C78.3409 4.8711 83.6314 2.3399 88.9438 1.85433C93.9715 1.39383 98.7959 2.74714 102.966 5.5227C103.436 5.83284 103.892 6.16177 104.337 6.50323C104.212 6.40612 104.477 6.61601 104.515 6.6442C104.612 6.71938 104.706 6.7977 104.8 6.87602C105.006 7.04518 105.21 7.22061 105.413 7.39604C106.161 8.05391 106.868 8.75563 107.528 9.5012C107.675 9.66724 107.819 9.8364 107.963 10.0087C108.028 10.087 108.094 10.1685 108.157 10.2468C108.194 10.2938 108.426 10.5914 108.288 10.4097C108.545 10.748 108.792 11.0926 109.026 11.4466C109.424 12.0481 109.727 12.6809 110.056 13.3199C109.915 13.0443 110.109 13.4578 110.14 13.5424C110.19 13.6771 110.234 13.8149 110.275 13.9527C110.309 14.0687 110.337 14.1846 110.362 14.3005C110.375 14.36 110.384 14.4226 110.397 14.4853C110.444 14.6889 110.372 14.2503 110.397 14.4602C110.45 14.9364 110.766 15.3468 111.282 15.3468C111.72 15.3468 112.221 14.9395 112.168 14.4602L112.158 14.4728Z" fill="#E6F5F2"/>
<path d="M96.9687 24.1343C97.0751 24.103 97.1846 24.0748 97.2941 24.0529C97.3223 24.0466 97.3504 24.0435 97.3754 24.0372C97.4412 24.0278 97.4318 24.0278 97.3442 24.0403C97.3723 24.0247 97.4349 24.0309 97.4693 24.0278C97.5819 24.0184 97.6946 24.0184 97.8041 24.0215C97.8604 24.0215 97.9167 24.0278 97.973 24.0309C98.0012 24.0309 98.0293 24.0372 98.0575 24.0403C97.9762 24.0278 97.9605 24.0278 98.0043 24.0341C98.2108 24.0717 98.4142 24.1186 98.6144 24.1938C98.7583 24.2471 98.5393 24.1531 98.6488 24.2064C98.6989 24.2314 98.7489 24.2534 98.799 24.2784C98.8991 24.3285 98.993 24.3881 99.0868 24.4507C99.3434 24.623 99.7532 24.5102 99.8971 24.2377C100.054 23.9401 99.9597 23.6112 99.6844 23.4263C98.8084 22.8436 97.6602 22.6839 96.6559 22.9877C96.3618 23.0786 96.1428 23.4044 96.2429 23.7145C96.343 24.0247 96.6527 24.2252 96.9687 24.128V24.1343Z" fill="#E6F5F2"/>
<path d="M104.108 23.8178C104.177 23.7771 104.246 23.7395 104.315 23.7082C104.334 23.6988 104.355 23.6894 104.377 23.68C104.287 23.7176 104.271 23.7239 104.33 23.7019C104.368 23.6894 104.402 23.6737 104.44 23.6612C104.593 23.6079 104.753 23.5735 104.912 23.5484L104.756 23.5703C104.991 23.539 105.225 23.539 105.46 23.5703L105.303 23.5484C105.425 23.5672 105.547 23.5923 105.663 23.6267C105.96 23.7113 106.32 23.5234 106.389 23.2132C106.458 22.9031 106.295 22.5773 105.976 22.4864C105.153 22.2484 104.246 22.3674 103.508 22.7997C103.242 22.9563 103.123 23.3417 103.295 23.6111C103.467 23.8805 103.817 23.9901 104.105 23.8241L104.108 23.8178Z" fill="#E6F5F2"/>
<path d="M104.596 26.1077C104.944 26.0387 105.288 25.9698 105.635 25.9009C105.776 25.8727 105.92 25.7474 105.989 25.6284C106.064 25.4999 106.095 25.3151 106.048 25.171C106.001 25.0269 105.914 24.889 105.776 24.817L105.635 24.7575C105.532 24.7293 105.425 24.7293 105.322 24.7575C104.975 24.8264 104.631 24.8953 104.283 24.9642C104.143 24.9924 103.999 25.1177 103.93 25.2368C103.855 25.3652 103.824 25.55 103.871 25.6941C103.917 25.8382 104.005 25.9761 104.143 26.0481L104.283 26.1077C104.387 26.1359 104.493 26.1359 104.596 26.1077Z" fill="#E6F5F2"/>
<path d="M97.3911 27.0697C97.4255 27.0634 97.46 27.0571 97.4975 27.0509L97.3411 27.0728C97.4881 27.054 97.6383 27.054 97.7853 27.0728L97.6289 27.0509C97.7759 27.0728 97.9199 27.1135 98.0575 27.1699L97.9167 27.1104C98.0356 27.1605 98.1451 27.2263 98.2484 27.3015C98.3641 27.3861 98.5706 27.3986 98.7051 27.361C98.8397 27.3234 98.9899 27.2169 99.0587 27.0885C99.1306 26.9506 99.1682 26.7846 99.1181 26.6311L99.0587 26.4901C99.0055 26.4024 98.9367 26.3303 98.8459 26.2771C98.7489 26.205 98.6457 26.1455 98.5331 26.0954C98.3829 26.0265 98.2296 25.9638 98.07 25.9294C97.7353 25.8573 97.413 25.8573 97.0783 25.9231C96.9375 25.9513 96.7936 26.0766 96.7247 26.1956C96.6496 26.3241 96.6184 26.5089 96.6653 26.653C96.7122 26.7971 96.7998 26.935 96.9375 27.007C97.0845 27.0853 97.2316 27.0979 97.3942 27.0665L97.3911 27.0697Z" fill="#E6F5F2"/>
<path d="M98.0732 31.809L96.4463 31.4049L95.6485 31.2075C95.3857 31.1417 95.0916 31.029 94.8194 31.0415C94.3908 31.0634 94.0716 31.4205 94.0967 31.8466C94.1123 32.0878 94.1655 32.3384 94.2468 32.5671C94.4064 33.0182 94.6504 33.4255 94.9758 33.7732C95.345 34.1648 95.8111 34.4498 96.318 34.6221C96.6121 34.7193 96.9781 34.5094 97.0438 34.2086C97.1189 33.8828 96.9437 33.5852 96.6308 33.4818C96.5714 33.4631 96.5151 33.4411 96.4556 33.4192C96.5964 33.4787 96.4118 33.3941 96.3868 33.3816C96.2773 33.3252 96.1741 33.2563 96.0708 33.1874C96.0176 33.1467 96.0208 33.1498 96.0802 33.1968C96.0552 33.178 96.0333 33.1561 96.0083 33.1373C95.9738 33.1059 95.9394 33.0746 95.905 33.0433C95.8143 32.9587 95.7329 32.8647 95.6547 32.7676C95.7486 32.8835 95.6266 32.7237 95.6109 32.6987C95.5765 32.6454 95.5452 32.5953 95.5139 32.5389C95.492 32.4982 95.4701 32.4575 95.4482 32.4167C95.4357 32.3885 95.3606 32.2037 95.4138 32.3447C95.37 32.2288 95.3325 32.1129 95.3043 31.9907C95.2918 31.9343 95.2699 31.8654 95.2699 31.809C95.2793 31.8873 95.2824 31.8967 95.2762 31.8309C95.2762 31.7244 95.2668 31.7745 95.2355 31.975L95.0227 32.1881C94.9383 32.2288 94.8507 32.2382 94.7662 32.2131C94.7912 32.2194 94.8163 32.2225 94.8382 32.2288C94.9007 32.2444 94.9602 32.2601 95.0227 32.2758L95.4201 32.376L96.1866 32.5671C96.7091 32.6955 97.2284 32.8271 97.7509 32.9556C98.0513 33.0307 98.4048 32.8584 98.4767 32.542C98.5487 32.2256 98.386 31.8936 98.0638 31.8153L98.0732 31.809Z" fill="#E6F5F2"/>
<path d="M278.576 70.8577C278.576 70.8577 281.927 64.3449 284.687 68.0947C287.446 71.8445 282.321 76.9727 280.744 76.578C280.35 78.749 282.518 84.2719 284.292 83.8803C283.898 86.446 296.313 78.1569 297.889 71.2525C299.072 64.3449 294.539 63.1639 294.539 63.1639C294.539 63.1639 294.933 52.5096 290.005 49.944C285.078 47.3783 271.086 50.536 267.936 45.6021C264.782 40.6681 258.084 49.944 262.22 52.3123C259.657 54.0885 261.037 57.641 264.388 58.0357C263.994 62.9696 269.71 62.3776 272.269 61.7855C274.828 61.1934 277.985 68.8904 276.211 74.216C278.379 71.2556 278.576 70.8609 278.576 70.8609V70.8577Z" fill="#E6F5F2"/>
<path d="M279.343 71.3059C279.437 71.121 279.543 70.9425 279.649 70.767C279.765 70.5728 279.887 70.3817 280.012 70.1906C280.081 70.0873 280.15 69.987 280.222 69.8868C280.26 69.8335 280.297 69.7803 280.335 69.7301C280.36 69.6925 280.507 69.4983 280.444 69.5798C280.375 69.6675 280.5 69.5077 280.522 69.4827C280.566 69.4294 280.61 69.3761 280.654 69.3229C280.751 69.207 280.851 69.0911 280.954 68.9783C281.161 68.7559 281.38 68.5428 281.614 68.3486C281.674 68.2985 281.777 68.2296 281.652 68.3173C281.708 68.2797 281.761 68.239 281.818 68.2014C281.936 68.1231 282.058 68.0479 282.184 67.9821C282.271 67.9382 282.393 67.8944 282.231 67.9539C282.29 67.932 282.346 67.91 282.406 67.8912C282.465 67.8725 282.525 67.8599 282.584 67.8411C282.612 67.8317 282.644 67.8317 282.672 67.8223C282.781 67.791 282.5 67.8317 282.615 67.8286C282.675 67.8286 282.734 67.8223 282.797 67.8192C282.831 67.8192 283.032 67.8286 282.891 67.8192C282.75 67.8098 282.969 67.8349 283.016 67.8474C283.053 67.8568 283.26 67.9288 283.154 67.885C283.047 67.8411 283.229 67.9257 283.26 67.9414C283.322 67.9758 283.382 68.0166 283.441 68.0541C283.473 68.0729 283.504 68.0949 283.532 68.1199C283.52 68.1105 283.429 68.0353 283.504 68.1043C283.576 68.1701 283.645 68.2327 283.714 68.3016C283.97 68.5679 284.139 68.8248 284.33 69.207C284.364 69.2759 284.417 69.4075 284.474 69.5892C284.499 69.6737 284.521 69.7615 284.543 69.846C284.555 69.9024 284.602 70.1875 284.583 70.0434C284.605 70.2157 284.611 70.3911 284.611 70.5634C284.611 70.6511 284.608 70.7357 284.602 70.8234C284.599 70.8798 284.574 71.1022 284.58 71.0521C284.549 71.2777 284.421 71.7664 284.305 72.0828C284.214 72.3303 284.061 72.6561 283.864 72.9975C283.776 73.151 283.682 73.3014 283.582 73.4486C283.532 73.5207 283.482 73.5959 283.432 73.6648C283.407 73.6992 283.257 73.9029 283.335 73.7995C283.088 74.119 282.816 74.4198 282.525 74.7017C282.393 74.827 282.259 74.9492 282.121 75.0651C282.074 75.1027 281.905 75.2374 282.043 75.134C281.968 75.1904 281.893 75.2437 281.818 75.2969C281.692 75.3815 281.564 75.4629 281.433 75.535C281.373 75.5694 281.308 75.5976 281.248 75.629C281.076 75.7229 281.361 75.6039 281.233 75.6384C281.176 75.654 281.123 75.6791 281.067 75.6948C281.032 75.7042 280.807 75.7668 280.982 75.7229C281.142 75.6822 280.976 75.7104 280.935 75.7229C280.763 75.7574 281.057 75.748 280.989 75.7323C280.557 75.6352 279.981 75.8608 279.897 76.3526C279.59 78.157 280.244 80.1087 280.985 81.7346C281.605 83.0973 282.756 85.0897 284.536 84.7482L283.444 83.6549C283.319 84.5571 283.832 85.2776 284.79 85.2526C285.559 85.2338 286.329 84.8328 286.995 84.4819C289.139 83.351 291.094 81.7784 292.862 80.1306C294.867 78.2636 296.801 76.1051 297.983 73.6084C299.166 71.1116 299.438 67.7659 298.108 65.194C297.448 63.919 296.206 62.691 294.78 62.3151L295.43 63.1703C295.465 62.265 295.424 61.3502 295.358 60.4449C295.224 58.5026 294.942 56.5384 294.36 54.6745C293.778 52.8105 292.79 50.8213 291.113 49.5933C289.633 48.5062 287.652 48.2462 285.879 48.0739C283.663 47.8578 281.433 47.864 279.211 47.8045C278.069 47.7763 276.928 47.7356 275.786 47.651C274.644 47.5664 273.858 47.485 272.788 47.2688C272.325 47.1748 271.869 47.0621 271.418 46.9211C271.205 46.8553 270.999 46.7832 270.792 46.7018C270.727 46.6767 270.498 46.5765 270.673 46.6548C270.567 46.6078 270.461 46.5608 270.357 46.5076C270.176 46.4167 269.998 46.3196 269.826 46.2162C269.741 46.1661 269.66 46.1097 269.578 46.0565C269.544 46.0314 269.51 46.0063 269.472 45.9813C269.309 45.8685 269.503 46.0095 269.45 45.9656C269.316 45.8497 269.181 45.7338 269.056 45.6085C268.99 45.5427 268.934 45.4707 268.868 45.4017C268.831 45.361 268.743 45.2388 268.871 45.4143C268.834 45.3641 268.799 45.314 268.765 45.2639C268.211 44.4619 267.607 43.7853 266.663 43.4563C265.909 43.1932 265.048 43.2746 264.316 43.5691C262.692 44.2207 261.4 45.6805 260.677 47.25C259.945 48.8446 259.636 50.8181 260.818 52.2842C261.081 52.61 261.41 52.8763 261.769 53.0862V51.5543C260.371 52.5505 259.589 54.2516 260.23 55.9369C260.906 57.7194 262.558 58.6968 264.385 58.9318L263.499 58.0452C263.374 59.7995 264.034 61.5194 265.652 62.3589C267.025 63.0701 268.659 63.1546 270.176 63.0199C270.883 62.9573 271.59 62.8508 272.285 62.7004C272.357 62.6847 272.435 62.6753 272.504 62.6503C272.629 62.6064 272.297 62.6377 272.485 62.6503C272.532 62.6534 272.613 62.6659 272.657 62.6503C272.529 62.6879 272.494 62.6096 272.666 62.6597C272.723 62.6785 272.782 62.7004 272.838 62.7161C272.945 62.7443 272.679 62.6315 272.773 62.691C272.795 62.7067 272.823 62.7129 272.848 62.7286C272.914 62.7693 272.979 62.8069 273.045 62.8476C273.07 62.8633 273.095 62.8821 273.117 62.8978C273.211 62.9573 272.96 62.7537 273.107 62.8915C273.22 62.998 273.336 63.0951 273.445 63.2079C273.502 63.2674 273.558 63.3301 273.611 63.3927C273.642 63.4303 273.674 63.4679 273.705 63.5055C273.624 63.3959 273.79 63.6057 273.705 63.5055C273.952 63.8344 274.171 64.1884 274.365 64.5518C274.806 65.3757 275.088 66.1463 275.344 67.1049C275.948 69.3479 276.08 71.7695 275.357 73.9906C275.222 74.4072 275.479 74.8803 275.87 75.0369C276.308 75.2123 276.709 75.04 276.978 74.6735C277.653 73.7525 278.329 72.8315 278.974 71.8854C279.099 71.7006 279.243 71.5158 279.343 71.3184C279.559 70.8924 279.455 70.3567 279.024 70.1029C278.63 69.8711 278.029 69.9933 277.81 70.4225C277.71 70.6229 277.566 70.8078 277.441 70.9895C276.796 71.9324 276.12 72.8534 275.445 73.7776L277.065 74.4605C277.766 72.3115 277.735 69.9713 277.315 67.7691C276.959 65.8863 276.283 63.9535 275.1 62.4247C274.631 61.817 274.065 61.2907 273.336 61.015C272.679 60.7644 272.059 60.9461 271.402 61.0683C271.252 61.0965 271.105 61.1215 270.955 61.1466C270.864 61.1623 270.777 61.1748 270.686 61.1873C270.886 61.1591 270.652 61.1904 270.573 61.1998C270.21 61.2437 269.844 61.2719 269.478 61.2844C269.112 61.297 268.727 61.2938 268.352 61.2656C268.264 61.2594 268.177 61.2531 268.092 61.2437C268.023 61.2374 267.814 61.2061 267.998 61.2343C267.817 61.2061 267.639 61.1748 267.46 61.1341C267.263 61.0871 267.069 61.0338 266.878 60.9649C266.81 60.9398 266.594 60.8459 266.769 60.9273C266.675 60.8834 266.584 60.8396 266.494 60.7926C266.415 60.7487 266.337 60.7049 266.262 60.6548C266.215 60.6266 265.977 60.4355 266.143 60.5796C266.005 60.4605 265.887 60.3321 265.758 60.2068C265.73 60.1786 265.658 60.0721 265.771 60.2287C265.743 60.1911 265.718 60.1567 265.693 60.1159C265.636 60.0282 265.58 59.9405 265.533 59.8465C265.517 59.8152 265.502 59.7839 265.486 59.7525C265.383 59.5489 265.521 59.8559 265.474 59.7306C265.433 59.6241 265.399 59.5145 265.367 59.4048C265.339 59.3014 265.317 59.1981 265.298 59.0915C265.292 59.0634 265.273 58.9192 265.292 59.079C265.286 59.0226 265.28 58.9631 265.277 58.9067C265.255 58.6216 265.261 58.3366 265.283 58.0515C265.32 57.5315 264.842 57.2213 264.397 57.1649C264.188 57.1368 263.769 57.0271 263.496 56.9175C263.424 56.8893 263.515 56.93 263.399 56.8736C263.315 56.8329 263.234 56.789 263.152 56.7452C263.021 56.67 262.893 56.5885 262.771 56.5008C262.864 56.5697 262.739 56.4758 262.708 56.4476C262.655 56.4006 262.598 56.3536 262.548 56.3003C262.486 56.2408 262.426 56.1782 262.37 56.1155C262.358 56.0998 262.217 55.9338 262.279 56.0121C262.279 56.0121 262.139 55.8054 262.095 55.727C262.06 55.6675 262.029 55.6111 261.998 55.5485C261.988 55.5297 261.891 55.2947 261.957 55.4702C261.91 55.348 261.873 55.2227 261.841 55.0942C261.826 55.0316 261.816 54.9689 261.804 54.9032C261.785 54.8029 261.797 55.041 261.804 54.8718C261.807 54.7309 261.804 54.5899 261.807 54.4489C261.813 54.3455 261.769 54.5836 261.813 54.4176C261.829 54.3549 261.841 54.2892 261.857 54.2265C261.873 54.1638 261.894 54.1012 261.916 54.0385C261.995 53.8036 261.838 54.1795 261.951 53.9571C262.013 53.8349 262.082 53.7159 262.16 53.6031C262.307 53.3901 262.057 53.7096 262.235 53.5122C262.276 53.4684 262.317 53.4245 262.358 53.3807C262.483 53.2554 262.611 53.1489 262.686 53.0956C263.215 52.7197 263.299 51.9208 262.686 51.5637C262.605 51.5167 262.526 51.4603 262.445 51.4102C262.342 51.3444 262.567 51.5167 262.48 51.4384C262.451 51.4102 262.417 51.3883 262.389 51.3601C262.326 51.2974 262.264 51.2379 262.204 51.1721C262.051 51.0092 262.239 51.2567 262.151 51.1032C262.107 51.0312 262.06 50.9622 262.02 50.8871C261.985 50.8244 261.907 50.6082 261.991 50.8463C261.935 50.6834 261.888 50.5237 261.848 50.3576C261.791 50.1196 261.844 50.4579 261.835 50.3075C261.832 50.2198 261.819 50.1321 261.816 50.0412C261.81 49.8564 261.826 49.6778 261.838 49.4961C261.854 49.2706 261.804 49.6465 261.851 49.421C261.869 49.327 261.885 49.233 261.907 49.139C261.951 48.9479 262.007 48.7568 262.07 48.572C262.098 48.4874 262.129 48.4028 262.16 48.3214C262.245 48.0927 262.139 48.3527 262.201 48.2211C262.292 48.0363 262.376 47.8484 262.476 47.6698C262.577 47.4912 262.674 47.3315 262.78 47.1654C262.836 47.0777 262.896 46.9931 262.958 46.9086C262.986 46.871 263.015 46.8334 263.04 46.7958C263.146 46.6454 262.939 46.9117 263.071 46.7582C263.321 46.4668 263.571 46.1818 263.862 45.9249C263.928 45.8685 263.997 45.8121 264.063 45.7557C263.953 45.834 264.225 45.6179 264.063 45.7557C264.097 45.7307 264.131 45.7056 264.166 45.6805C264.319 45.574 264.476 45.4738 264.641 45.3829C264.72 45.3391 264.804 45.3046 264.882 45.2608C265.011 45.1918 264.717 45.314 264.942 45.2388C265.104 45.1856 265.267 45.1386 265.436 45.101C265.655 45.0509 265.339 45.0947 265.474 45.0947C265.546 45.0947 265.621 45.0853 265.693 45.0853C265.774 45.0853 265.855 45.0947 265.937 45.0979C266.052 45.101 265.752 45.0571 265.862 45.0885C265.905 45.101 265.952 45.1073 265.996 45.1167C266.077 45.1355 266.156 45.1668 266.234 45.1887C266.415 45.242 266.096 45.1041 266.309 45.2263C266.378 45.267 266.443 45.3078 266.512 45.3453C266.547 45.3641 266.578 45.3923 266.612 45.4143C266.428 45.2952 266.591 45.3955 266.631 45.4331C266.766 45.5552 266.891 45.6837 267.01 45.8215C267.116 45.9468 267.025 45.8403 267.01 45.8152C267.041 45.856 267.069 45.8967 267.097 45.9406C267.16 46.0345 267.223 46.1316 267.288 46.2256C268.327 47.6886 270.01 48.4373 271.706 48.8571C273.736 49.3583 275.861 49.4805 277.944 49.5588C280.109 49.6402 282.274 49.6309 284.439 49.7562C284.94 49.7844 285.437 49.8219 285.935 49.8721C286.163 49.894 286.395 49.9222 286.623 49.9504C286.658 49.9535 286.798 49.9754 286.623 49.9504C286.676 49.9567 286.726 49.9661 286.78 49.9723C286.908 49.9911 287.033 50.0099 287.161 50.0318C287.577 50.1008 287.99 50.1885 288.397 50.2981C288.579 50.3482 288.76 50.4015 288.938 50.4641C289.02 50.4923 289.098 50.5205 289.179 50.5519C289.217 50.5675 289.257 50.5832 289.295 50.5989C289.492 50.674 289.123 50.5111 289.308 50.6051C289.461 50.6834 289.62 50.7555 289.771 50.8432C289.855 50.8933 289.94 50.9434 290.021 50.9998C290.062 51.028 290.349 51.2411 290.199 51.122C290.543 51.3946 290.841 51.7078 291.122 52.043C291.15 52.0775 291.254 52.2122 291.147 52.0743C291.178 52.1151 291.21 52.1558 291.238 52.1965C291.297 52.2811 291.357 52.3657 291.413 52.4503C291.545 52.6476 291.663 52.8481 291.779 53.0549C291.895 53.2616 291.992 53.4559 292.089 53.6595C292.136 53.7566 292.18 53.8568 292.223 53.954C292.239 53.9915 292.308 54.1576 292.245 54.0041C292.27 54.0667 292.295 54.1294 292.32 54.1952C292.668 55.0817 292.924 56.0059 293.121 56.9394C293.221 57.4156 293.306 57.8917 293.378 58.3742C293.394 58.4775 293.409 58.5809 293.422 58.6843C293.397 58.4963 293.431 58.7658 293.44 58.8315C293.469 59.054 293.494 59.2764 293.516 59.4988C293.634 60.6673 293.694 61.8452 293.672 63.0199C293.672 63.0795 293.672 63.1358 293.669 63.1954C293.656 63.5807 293.954 63.9535 294.32 64.0506C294.392 64.0694 294.46 64.0976 294.532 64.1226C294.689 64.1759 294.529 64.1884 294.448 64.085C294.467 64.1101 294.542 64.1258 294.573 64.1414C294.683 64.1947 294.792 64.2479 294.898 64.3106C295.014 64.3764 295.127 64.4484 295.239 64.5236C295.302 64.5643 295.358 64.6113 295.421 64.6552C295.174 64.4829 295.446 64.6771 295.502 64.7272C295.634 64.84 295.759 64.9622 295.881 65.0906C295.946 65.1595 296.006 65.2285 296.069 65.3005C296.1 65.3381 296.131 65.3757 296.159 65.4133C296.2 65.4634 296.184 65.4446 296.112 65.3506C296.137 65.382 296.159 65.4164 296.184 65.4478C296.303 65.6263 296.422 65.8049 296.525 65.9928C296.582 66.0931 296.632 66.1965 296.682 66.2998C296.704 66.3437 296.722 66.3876 296.741 66.4283C296.647 66.2278 296.776 66.5191 296.791 66.5567C296.885 66.8042 296.96 67.0611 297.023 67.318C297.057 67.4558 297.085 67.5968 297.11 67.7377C297.12 67.7973 297.132 67.8537 297.142 67.9132C297.157 68.0197 297.16 68.0322 297.148 67.9508C297.154 67.9978 297.16 68.0448 297.164 68.0917C297.295 69.4263 297.21 70.7984 296.747 72.064C296.704 72.1862 296.654 72.3083 296.604 72.4305C296.669 72.2707 296.522 72.6059 296.497 72.6592C296.369 72.9349 296.231 73.2043 296.081 73.4706C295.784 74.0031 295.455 74.5169 295.102 75.0118C294.723 75.5444 294.454 75.8858 294.004 76.4121C293.581 76.9071 293.137 77.3895 292.68 77.8563C291.804 78.7491 290.878 79.5918 289.908 80.3812C289.408 80.7885 289.151 80.9859 288.613 81.3774C288.181 81.6907 287.74 81.9914 287.29 82.2765C286.861 82.5459 286.426 82.8059 285.976 83.0346C285.794 83.1286 285.606 83.2101 285.419 83.3009C285.253 83.3792 285.622 83.2288 285.453 83.2852C285.409 83.3009 285.369 83.3197 285.325 83.3354C285.247 83.3636 285.165 83.3918 285.084 83.4168C285.012 83.4387 284.94 83.4607 284.865 83.4763C284.812 83.4889 284.599 83.5515 284.79 83.4983C284.968 83.4481 284.79 83.4857 284.737 83.4983C284.546 83.5327 284.79 83.5108 284.805 83.5139C284.621 83.4638 284.999 83.6236 284.887 83.5547C284.971 83.6048 285.062 83.6988 285.106 83.7739C285.178 83.9024 285.165 83.8899 285.181 84.0747C285.175 83.9838 285.203 83.7927 285.156 84.1436C285.25 83.4575 284.784 82.9124 284.064 83.0503C283.908 83.0816 284.308 83.0284 284.064 83.0378C284.148 83.0378 284.27 83.0597 284.108 83.0378C284.036 83.0284 283.917 82.9406 284.127 83.0566C284.07 83.0252 284.014 82.997 283.958 82.9657C283.904 82.9375 283.742 82.7965 283.92 82.95C283.873 82.9093 283.823 82.8686 283.776 82.8247C283.657 82.7151 283.551 82.5929 283.448 82.4707C283.326 82.3298 283.526 82.5835 283.401 82.4144C283.354 82.3517 283.31 82.2859 283.266 82.2201C283.157 82.0604 283.057 81.8943 282.96 81.7252C282.766 81.3868 282.593 81.0391 282.437 80.682C282.403 80.6005 282.334 80.4314 282.265 80.2434C282.196 80.0554 282.127 79.8612 282.065 79.667C281.943 79.2911 281.836 78.9089 281.752 78.5204C281.658 78.0881 281.633 77.9315 281.608 77.612C281.595 77.4428 281.589 77.2736 281.592 77.1045C281.592 77.0387 281.599 76.9729 281.602 76.904C281.611 76.6408 281.583 76.9823 281.608 76.8351L280.516 77.4553C281.902 77.7623 283.297 76.528 284.152 75.5914C285.375 74.2506 286.329 72.5151 286.379 70.6668C286.429 68.8185 285.369 66.7134 283.548 66.1714C282.058 65.7266 280.641 66.7228 279.681 67.7691C278.955 68.5616 278.31 69.4764 277.816 70.4319C277.294 71.4468 278.823 72.3459 279.346 71.3278L279.343 71.3059Z" fill="#E6F5F2"/>
<path d="M261.826 62.4593C261.848 62.4562 261.866 62.4531 261.888 62.4499L261.732 62.4719C261.838 62.4593 261.945 62.4593 262.051 62.4719L261.894 62.4499C262.035 62.4687 262.167 62.5095 262.298 62.5627L262.157 62.5032C262.326 62.5752 262.479 62.6724 262.627 62.7851L262.508 62.6911C262.727 62.8634 262.924 63.0671 263.115 63.2707C263.327 63.4963 263.74 63.5025 263.95 63.2707C264.172 63.0295 264.175 62.6755 263.95 62.4343C263.659 62.1241 263.352 61.8171 262.986 61.5978C262.792 61.4819 262.573 61.388 262.351 61.3347C262.067 61.2689 261.797 61.2689 261.513 61.319C261.375 61.3441 261.228 61.4725 261.159 61.5916C261.084 61.72 261.053 61.9049 261.1 62.049C261.147 62.1931 261.234 62.3309 261.372 62.4029C261.519 62.4813 261.663 62.4938 261.829 62.4625L261.826 62.4593Z" fill="#E6F5F2"/>
<path d="M267.42 64.8904H267.448C267.395 64.8904 267.345 64.8998 267.291 64.9061C267.47 64.881 267.645 64.8841 267.823 64.9061L267.667 64.8841C267.814 64.9061 267.958 64.9405 268.099 64.9938C268.239 65.047 268.002 64.9468 268.095 64.9906C268.13 65.0063 268.167 65.0251 268.202 65.0439C268.264 65.0752 268.324 65.1097 268.38 65.1473C268.415 65.1692 268.446 65.1911 268.477 65.2162C268.571 65.282 268.368 65.1222 268.452 65.1974C268.512 65.2506 268.571 65.3008 268.627 65.3603C268.649 65.3822 268.668 65.4041 268.687 65.4261C268.721 65.4668 268.784 65.5796 268.687 65.4229C268.727 65.4919 268.777 65.5545 268.815 65.6234C268.968 65.8928 269.356 66.0088 269.625 65.8365C269.894 65.6642 270.001 65.3133 269.838 65.0251C269.585 64.5865 269.19 64.2106 268.731 63.9913C268.499 63.8817 268.261 63.7939 268.008 63.7532C267.695 63.7031 267.413 63.7062 267.104 63.7532C266.966 63.7752 266.816 63.913 266.75 64.0258C266.675 64.1542 266.644 64.339 266.691 64.4831C266.738 64.6272 266.825 64.7651 266.963 64.8371C267.113 64.9155 267.251 64.9217 267.42 64.8967V64.8904Z" fill="#E6F5F2"/>
<path d="M266.738 67.6312C266.891 67.7002 266.957 67.7221 267.126 67.7346C267.21 67.7409 267.298 67.7252 267.382 67.7064C267.542 67.6657 267.701 67.5686 267.817 67.4527C267.933 67.3368 268.036 67.1739 268.067 67.0141C268.099 66.8543 268.095 66.7698 268.07 66.6069C268.058 66.5223 268.017 66.4471 267.983 66.3719C267.911 66.2215 267.776 66.1056 267.642 66.0116C267.495 65.9114 267.329 65.8769 267.157 65.8581C266.985 65.8393 266.816 65.8957 266.662 65.9678C266.509 66.0398 266.39 66.1777 266.296 66.3124C266.246 66.3844 266.215 66.4753 266.184 66.5536C266.153 66.6413 266.143 66.7416 266.134 66.8293C266.124 66.917 266.143 67.0141 266.159 67.0987C266.174 67.1895 266.215 67.2741 266.253 67.3556C266.29 67.4245 266.34 67.4809 266.406 67.5216C266.462 67.5749 266.531 67.6093 266.606 67.6281C266.684 67.6532 266.763 67.6563 266.841 67.6375C266.919 67.6344 266.994 67.6093 267.06 67.5686C267.185 67.4871 267.298 67.365 267.332 67.2146L267.354 67.058C267.354 66.9514 267.326 66.8512 267.273 66.7604C267.273 66.7541 267.266 66.7478 267.266 66.7416L267.326 66.8825C267.31 66.8481 267.301 66.8105 267.298 66.7729L267.319 66.9295C267.313 66.8888 267.316 66.8481 267.319 66.8073L267.298 66.964C267.304 66.9233 267.313 66.8825 267.329 66.8449L267.269 66.9859C267.285 66.9483 267.307 66.9139 267.332 66.8825L267.238 67.0016C267.26 66.9734 267.282 66.9514 267.31 66.9295L267.191 67.0235C267.216 67.0047 267.244 66.989 267.273 66.9765L267.132 67.036C267.157 67.0266 267.185 67.0172 267.21 67.0141L267.054 67.036C267.088 67.0329 267.119 67.0329 267.154 67.036L266.997 67.0141C267.038 67.0204 267.075 67.0298 267.113 67.0454L266.972 66.9859C267.007 67.0016 267.038 67.0204 267.066 67.0423L266.947 66.9483C266.972 66.9702 266.997 66.9922 267.016 67.0172L266.922 66.8982C266.941 66.9233 266.953 66.9483 266.966 66.9765L266.907 66.8355C266.916 66.8606 266.922 66.8857 266.928 66.9139L266.907 66.7572C266.907 66.7823 266.907 66.8073 266.907 66.8324L266.928 66.6758C266.925 66.704 266.916 66.729 266.907 66.7541L266.966 66.6131C266.953 66.6413 266.938 66.6695 266.919 66.6914L267.013 66.5724C266.994 66.5975 266.972 66.6194 266.947 66.6382L267.066 66.5442C267.038 66.5661 267.01 66.5818 266.978 66.5975L267.119 66.5379C267.091 66.5505 267.063 66.5567 267.032 66.563L267.188 66.5411C267.163 66.5411 267.141 66.5411 267.116 66.5411L267.273 66.563C267.248 66.5599 267.226 66.5536 267.201 66.5442L267.341 66.6037H267.332C267.263 66.5567 267.191 66.5317 267.113 66.5285C267.035 66.5097 266.957 66.516 266.878 66.5379C266.8 66.5567 266.734 66.5912 266.678 66.6444C266.612 66.6852 266.562 66.7416 266.525 66.8105C266.453 66.9483 266.415 67.1143 266.465 67.2678L266.525 67.4088C266.578 67.4965 266.647 67.5686 266.738 67.6218V67.6312Z" fill="#E6F5F2"/>
<path d="M260.261 64.2543C260.277 64.2763 260.289 64.3013 260.302 64.3264L260.242 64.1854C260.261 64.2293 260.274 64.2763 260.28 64.3264L260.258 64.1698C260.264 64.2168 260.264 64.2669 260.258 64.3139L260.28 64.1572C260.274 64.2105 260.258 64.2575 260.239 64.3076L260.299 64.1666C260.28 64.2074 260.258 64.2481 260.23 64.2825L260.324 64.1635C260.305 64.1854 260.289 64.2042 260.268 64.223L260.843 64.0695H260.834C260.881 64.0852 260.928 64.104 260.975 64.1259C260.928 64.1071 260.884 64.0789 260.843 64.0507L260.962 64.1447C260.925 64.1165 260.89 64.082 260.862 64.0445L260.956 64.1635C260.931 64.129 260.909 64.0914 260.89 64.0539L260.95 64.1948C260.937 64.1604 260.928 64.129 260.921 64.0914L260.943 64.2481C260.943 64.2199 260.94 64.1917 260.943 64.1635L260.921 64.3201C260.925 64.2951 260.931 64.27 260.943 64.2449L260.884 64.3859C260.896 64.3577 260.912 64.3327 260.928 64.3076L260.834 64.4266C260.856 64.4016 260.878 64.3765 260.903 64.3546L260.784 64.4486C260.809 64.4298 260.834 64.4172 260.859 64.4047L260.718 64.4642C260.743 64.4548 260.765 64.4486 260.79 64.4454L260.634 64.4674C260.655 64.4674 260.677 64.4674 260.699 64.4674L260.543 64.4454C260.562 64.4486 260.58 64.4548 260.599 64.4611C260.677 64.4862 260.756 64.4893 260.834 64.4705C260.912 64.4674 260.987 64.4423 261.053 64.4016C261.122 64.364 261.178 64.3139 261.219 64.2481C261.272 64.1917 261.306 64.1228 261.325 64.0476C261.359 63.8972 261.353 63.7249 261.266 63.5902L261.172 63.4712C261.097 63.3991 261.012 63.3459 260.912 63.3177C260.771 63.2613 260.612 63.2769 260.468 63.302C260.371 63.3208 260.274 63.3615 260.196 63.4179C260.064 63.5088 259.973 63.5933 259.889 63.7312C259.851 63.7938 259.82 63.869 259.798 63.9348C259.783 63.9818 259.776 64.0288 259.77 64.082C259.764 64.1353 259.754 64.1823 259.758 64.2324C259.764 64.3045 259.77 64.389 259.792 64.4642C259.82 64.5613 259.864 64.6647 259.923 64.7462C259.967 64.8057 260.011 64.8715 260.064 64.9247C260.117 64.978 260.183 65.025 260.242 65.0688C260.33 65.1315 260.427 65.1691 260.527 65.2098C260.63 65.238 260.737 65.238 260.84 65.2098C260.94 65.1816 261.028 65.1315 261.1 65.0563C261.159 65.0031 261.203 64.9341 261.253 64.8715C261.272 64.8464 261.291 64.8182 261.306 64.7869C261.344 64.7148 261.375 64.6365 261.4 64.5582C261.416 64.5018 261.422 64.4454 261.431 64.389C261.441 64.3327 261.447 64.2763 261.447 64.2168C261.447 64.1353 261.431 64.0507 261.416 63.9724C261.409 63.9411 261.4 63.9097 261.388 63.8784C261.359 63.8032 261.328 63.7218 261.284 63.6529C261.203 63.5244 261.081 63.4211 260.931 63.3803C260.853 63.3553 260.774 63.3521 260.696 63.3709C260.618 63.3741 260.543 63.3991 260.477 63.4398C260.352 63.5213 260.239 63.6435 260.205 63.7938C260.171 63.9442 260.177 64.1165 260.264 64.2512L260.261 64.2543Z" fill="#E6F5F2"/>
<path d="M263.575 73.1732C264.838 73.2922 266.137 73.1325 267.335 72.7127C267.626 72.6124 267.851 72.3023 267.748 71.9859C267.654 71.6977 267.332 71.4628 267.022 71.5724C265.874 71.9734 264.795 72.105 263.575 71.9922C263.265 71.964 262.971 72.2866 262.983 72.5843C262.999 72.9288 263.243 73.145 263.575 73.1763V73.1732Z" fill="#E6F5F2"/>
<path d="M267.129 72.7442C267.889 72.7442 267.892 71.5601 267.129 71.5601C266.365 71.5601 266.365 72.7442 267.129 72.7442Z" fill="black"/>
<path d="M266.55 72.5812C266.547 72.6408 266.54 72.6971 266.534 72.7567L266.556 72.6C266.54 72.7128 266.515 72.8224 266.484 72.929C266.469 72.9791 266.45 73.0292 266.431 73.0825C266.393 73.1796 266.494 72.9509 266.447 73.048C266.437 73.0699 266.425 73.0919 266.415 73.1138C266.365 73.214 266.309 73.3111 266.246 73.4051C266.234 73.4239 266.218 73.4458 266.203 73.4646C266.162 73.521 266.293 73.3519 266.234 73.4271C266.196 73.4709 266.159 73.5179 266.118 73.5618C266.043 73.6401 265.965 73.7121 265.883 73.781C265.802 73.85 266.002 73.6965 265.912 73.7591C265.893 73.7716 265.871 73.7873 265.852 73.803C265.808 73.8343 265.761 73.8625 265.718 73.8907C265.668 73.9189 265.614 73.9471 265.564 73.9721C265.542 73.9815 265.521 73.9909 265.499 74.0035C265.433 74.0348 265.636 73.9502 265.546 73.9815C265.433 74.0223 265.323 74.0567 265.208 74.0787C264.904 74.1413 264.701 74.5172 264.795 74.8054C264.898 75.1281 265.195 75.2847 265.521 75.2189C266.753 74.9683 267.673 73.8186 267.742 72.5812C267.761 72.2711 267.457 71.9766 267.151 71.9892C266.816 72.0048 266.578 72.2492 266.559 72.5812H266.55Z" fill="#E6F5F2"/>
<path d="M265.258 73.4455L265.27 73.4612L265.176 73.3421C265.305 73.5082 265.408 73.6867 265.489 73.8778L265.43 73.7368C265.514 73.9373 265.571 74.1441 265.599 74.3571L265.658 74.4981L265.752 74.6171C265.846 74.7111 265.965 74.7612 266.09 74.78C266.199 74.7957 266.296 74.78 266.397 74.7393C266.522 74.686 266.603 74.6077 266.678 74.4981C266.806 74.3101 266.941 74.1222 267.066 73.9311C267.248 73.6491 267.332 73.3327 267.263 73.0038C267.229 72.8409 267.138 72.6843 267.022 72.5621C266.872 72.4055 266.669 72.3271 266.456 72.3146C266.3 72.3052 266.121 72.3553 265.99 72.4368C265.827 72.5402 265.668 72.7187 265.636 72.9161C265.611 72.9944 265.608 73.0727 265.627 73.151C265.63 73.2293 265.655 73.3045 265.696 73.3703C265.768 73.4925 265.908 73.6115 266.049 73.6429C266.199 73.6773 266.372 73.6711 266.506 73.5833C266.628 73.505 266.753 73.3797 266.778 73.2293C266.778 73.2137 266.784 73.2012 266.788 73.1886L266.728 73.3296C266.728 73.3296 266.741 73.3045 266.747 73.292L266.653 73.411C266.653 73.411 266.678 73.3829 266.691 73.3703L266.572 73.4643C266.587 73.4518 266.603 73.4424 266.622 73.4361L266.481 73.4956C266.503 73.4862 266.528 73.48 266.553 73.4768L266.397 73.4988C266.422 73.4988 266.447 73.4988 266.472 73.4988L266.315 73.4768C266.334 73.48 266.353 73.4862 266.372 73.4925L266.231 73.433C266.249 73.4424 266.268 73.4518 266.284 73.4674L266.165 73.3735C266.181 73.3891 266.196 73.4048 266.212 73.4204L266.118 73.3014C266.134 73.3233 266.149 73.3484 266.159 73.3735L266.099 73.2325C266.112 73.2638 266.121 73.2983 266.127 73.3327L266.106 73.1761C266.112 73.2168 266.112 73.2575 266.106 73.2983L266.127 73.1416C266.118 73.198 266.102 73.2481 266.084 73.3014L266.143 73.1604C266.087 73.2889 265.999 73.4048 265.921 73.5207C265.833 73.6491 265.746 73.7744 265.658 73.9029L266.738 74.0438C266.7 73.7744 266.616 73.5301 266.509 73.2826C266.403 73.0351 266.256 72.8221 266.09 72.6091C266.002 72.4994 265.805 72.4368 265.671 72.4368C265.527 72.4368 265.352 72.5026 265.251 72.6091C265.151 72.7156 265.07 72.8691 265.079 73.0289L265.101 73.1855C265.129 73.2857 265.179 73.3735 265.255 73.4455H265.258Z" fill="#E6F5F2"/>
<path d="M226.125 27.0728C227.952 26.086 229.779 25.1023 231.606 24.1155C232.016 23.8962 232.179 23.2947 231.925 22.9C231.656 22.4834 231.149 22.3455 230.711 22.5805C228.884 23.5673 227.057 24.551 225.23 25.5377C224.82 25.757 224.657 26.3585 224.911 26.7532C225.18 27.1699 225.687 27.3077 226.125 27.0728Z" fill="#0092FF"/>
<path d="M229.426 40.117C230.255 40.4491 231.081 40.7812 231.91 41.1132C232.11 41.1947 232.416 41.1289 232.592 41.0224C232.767 40.9159 232.951 40.7028 232.998 40.493C233.052 40.2643 233.039 40.0105 232.908 39.81C232.776 39.6095 232.604 39.4936 232.379 39.4028C231.55 39.0707 230.724 38.7387 229.895 38.4066C229.695 38.3251 229.388 38.3909 229.213 38.4974C229.038 38.604 228.853 38.817 228.806 39.0269C228.753 39.2555 228.765 39.5093 228.897 39.7098C229.028 39.9103 229.2 40.0262 229.426 40.117Z" fill="#0092FF"/>
<path d="M218.341 17.3678C218.341 18.859 218.341 20.3532 218.341 21.8444C218.341 22.308 218.748 22.7529 219.226 22.7309C219.705 22.709 220.112 22.3394 220.112 21.8444C220.112 20.3532 220.112 18.859 220.112 17.3678C220.112 16.9042 219.705 16.4593 219.226 16.4812C218.748 16.5032 218.341 16.8728 218.341 17.3678Z" fill="#0092FF"/>
<path d="M0.791547 41.7839C-0.391075 44.4435 -0.203358 47.4227 1.03245 50.0291C2.18692 52.4663 4.47707 54.703 7.18021 55.2732C8.71324 55.5959 10.8188 55.2513 11.2412 53.4625C11.3601 52.9613 11.0847 52.5478 10.6217 52.3692C9.77697 52.0465 8.96666 52.5979 8.55055 53.3121C8.15634 53.9888 8.09064 54.7594 8.04997 55.5238C7.97175 57.04 8.13444 58.5782 8.49423 60.0537C9.21069 63.0046 10.7594 65.7708 12.89 67.9323C14.0882 69.1478 15.4836 70.1785 17.0104 70.9397C17.439 71.1527 17.9709 71.0556 18.2243 70.6202C18.4527 70.2255 18.3369 69.6209 17.9052 69.4047C13.2967 67.1022 10.1274 62.2277 9.83016 57.1183C9.78949 56.3978 9.79887 55.6742 9.8677 54.9537C9.89273 54.6968 9.93653 54.465 10.0867 54.2081C10.1211 54.1517 10.1587 54.0953 10.1931 54.042C10.1274 54.1392 10.2807 53.9481 10.2181 54.0264C10.1555 54.1047 10.3871 53.9293 10.2087 54.0358C10.1493 54.0734 9.96156 54.0076 10.1524 54.0828L9.53294 52.9895C9.52042 53.0458 9.50791 53.1054 9.48601 53.1618C9.53607 53.0239 9.47349 53.1868 9.44847 53.2181C9.36712 53.3341 9.53294 53.1336 9.43908 53.2369C9.40154 53.2777 9.36399 53.3153 9.32019 53.3529C9.21382 53.4437 9.41718 53.2902 9.29829 53.3654C9.23572 53.403 9.17628 53.4406 9.11057 53.4719C9.22008 53.4186 8.90408 53.5345 8.85715 53.5471C8.68195 53.5909 8.67569 53.5909 8.57871 53.6003C8.45043 53.6129 8.31903 53.616 8.19076 53.6129C7.85912 53.6066 7.79342 53.5972 7.4743 53.5158C6.45124 53.2495 5.45321 52.6731 4.6773 51.9839C3.80129 51.2038 3.18182 50.3705 2.65621 49.3117C2.21507 48.4251 1.8678 47.2128 1.78958 46.2636C1.76455 45.9503 1.75204 45.6339 1.76142 45.3207C1.76768 45.0293 1.79897 44.6377 1.82712 44.4717C1.87718 44.1459 1.94914 43.8201 2.03987 43.5006C2.11809 43.2249 2.24949 42.8615 2.33083 42.6798C2.52481 42.2412 2.45911 41.7243 2.01171 41.4643C1.63315 41.2419 0.994908 41.3422 0.797804 41.7839H0.791547Z" fill="#FF66C4"/>
<path d="M9.30768 78.4237C10.1368 78.7557 10.9627 79.0878 11.7918 79.4199C11.992 79.5013 12.2986 79.4355 12.4738 79.329C12.6491 79.2225 12.8336 79.0095 12.8806 78.7996C12.9338 78.5709 12.9212 78.3172 12.7898 78.1167C12.6584 77.9162 12.4864 77.8003 12.2611 77.7094C11.432 77.3774 10.6061 77.0453 9.77697 76.7132C9.57674 76.6318 9.27013 76.6976 9.09493 76.8041C8.91973 76.9106 8.73514 77.1236 8.68821 77.3335C8.63502 77.5622 8.64754 77.8159 8.77894 78.0164C8.91034 78.2169 9.08241 78.3328 9.30768 78.4237Z" fill="#FF66C4"/>
<path d="M34.2491 22.5805C34.5807 21.5843 34.9124 20.5913 35.244 19.5951C35.3911 19.1534 35.0751 18.6051 34.6245 18.5018C34.1365 18.389 33.6922 18.649 33.5326 19.122C33.201 20.1182 32.8694 21.1113 32.5377 22.1075C32.3907 22.5492 32.7067 23.0974 33.1572 23.2008C33.6453 23.3136 34.0895 23.0535 34.2491 22.5805Z" fill="#FF66C4"/>
<path d="M41.7922 30.0768C43.1188 29.4127 44.4422 28.7486 45.7687 28.0876C46.1848 27.8808 46.335 27.2574 46.0878 26.8721C45.8125 26.4461 45.3182 26.3302 44.8739 26.5526C43.5474 27.2167 42.224 27.8808 40.8974 28.5418C40.4813 28.7486 40.3312 29.372 40.5783 29.7573C40.8536 30.1834 41.348 30.2993 41.7922 30.0768Z" fill="#FF66C4"/>
<path d="M17.7237 21.7971C18.0553 22.2952 18.387 22.7933 18.7186 23.2883C18.8469 23.4825 19.0221 23.6329 19.2473 23.6955C19.4601 23.755 19.7416 23.7268 19.9294 23.6047C20.1171 23.4825 20.286 23.3008 20.3361 23.0752C20.3861 22.8497 20.3799 22.5897 20.2454 22.3923C19.9137 21.8942 19.5821 21.3961 19.2505 20.9012C19.1222 20.7069 18.947 20.5566 18.7217 20.4939C18.509 20.4344 18.2274 20.4626 18.0397 20.5848C17.852 20.7069 17.683 20.8886 17.633 21.1142C17.5829 21.3397 17.5892 21.5998 17.7237 21.7971Z" fill="#FF66C4"/>
</g>
<defs>
<clipPath id="clip0_93_178">
<rect width="299" height="221.694" fill="white"/>
</clipPath>
</defs>
</svg>
