<svg width="255" height="196" viewBox="0 0 255 196" fill="none" xmlns="http://www.w3.org/2000/svg">
<g clip-path="url(#clip0_169_254)">
<path d="M185.201 104.515C184.851 103.733 184.128 103.179 183.284 103.061C180.508 102.673 177.989 100.904 176.755 98.1481C174.801 93.7813 176.833 88.632 181.295 86.8224C185.33 85.1875 190.009 86.9595 191.963 90.8638C193.38 93.6925 193.072 96.9004 191.474 99.3365C190.997 100.065 190.906 100.982 191.262 101.778C191.83 103.045 193.31 103.609 194.571 103.039L206.393 97.699C209.204 96.4298 210.459 93.109 209.193 90.2857L203.876 78.4114C203.309 77.145 203.871 75.658 205.132 75.088C205.911 74.7357 206.816 74.8029 207.528 75.2789C209.86 76.8384 212.914 77.1961 215.658 75.9538C220.006 73.9909 221.885 68.7825 219.741 64.4533C217.802 60.541 213.131 58.7501 209.089 60.3662C206.163 61.5385 204.273 64.1441 203.858 67.032C203.734 67.8951 203.196 68.6426 202.404 69.0003C201.143 69.5703 199.663 69.0056 199.095 67.7392L193.76 55.8273C192.496 53.0039 189.19 51.7429 186.379 53.0147L174.557 58.3549C173.296 58.9249 171.816 58.3603 171.248 57.0938C170.892 56.2979 170.983 55.3809 171.46 54.6522C173.055 52.2161 173.366 49.0082 171.95 46.1795C169.996 42.2752 165.316 40.5032 161.282 42.1381C156.819 43.9477 154.785 49.097 156.741 53.4638C157.976 56.2199 160.497 57.9892 163.271 58.3764C164.117 58.4947 164.84 59.0486 165.188 59.8311C165.755 61.0976 165.193 62.5845 163.932 63.1546L152.073 68.5136C149.262 69.7827 148.006 73.1035 149.272 75.9269L154.589 87.8011C155.157 89.0676 154.594 90.5546 153.334 91.1246C152.541 91.4823 151.628 91.3908 150.903 90.9122C148.477 89.3096 145.284 88.9977 142.467 90.4201C138.58 92.383 136.816 97.0832 138.444 101.135C140.245 105.618 145.372 107.661 149.72 105.696C152.464 104.456 154.225 101.923 154.611 99.1376C154.728 98.2879 155.28 97.5619 156.059 97.2123C157.32 96.6423 158.8 97.2069 159.368 98.4734L164.703 110.385C165.967 113.209 169.273 114.47 172.084 113.198L183.943 107.839C185.204 107.269 185.766 105.782 185.199 104.515H185.201Z" fill="#00E8FF"/>
<path d="M41.2641 66.8676C41.2641 66.0098 40.8304 65.2058 40.1076 64.7514C37.7357 63.2537 36.159 60.6024 36.159 57.5801C36.159 52.7912 40.1156 48.9326 44.9263 49.1235C49.2738 49.2956 52.8183 52.8396 53.0056 57.2037C53.1422 60.3658 51.5493 63.165 49.0998 64.7299C48.3663 65.1978 47.9085 65.9964 47.9085 66.8703C47.9085 68.2578 49.0275 69.3844 50.4116 69.3844H63.3739C66.4578 69.3844 68.9555 66.873 68.9555 63.778V50.7583C68.9555 49.3709 70.0745 48.2442 71.4586 48.2442C72.3126 48.2442 73.1103 48.6798 73.5654 49.4058C75.0565 51.7882 77.6961 53.372 80.7051 53.372C85.4729 53.372 89.3145 49.3978 89.1245 44.5658C88.9531 40.199 85.4248 36.6389 81.0799 36.4506C77.9317 36.3135 75.1449 37.9134 73.5868 40.3738C73.121 41.1105 72.3259 41.5703 71.4559 41.5703C70.0745 41.5703 68.9529 40.4464 68.9529 39.0562V25.9962C68.9529 22.8985 66.4525 20.3898 63.3712 20.3898H50.4089C49.0275 20.3898 47.9059 19.2658 47.9059 17.8757C47.9059 17.0045 48.3636 16.2032 49.0971 15.7353C51.5467 14.1703 53.1395 11.3712 53.003 8.20903C52.8156 3.84224 49.2712 0.300948 44.9236 0.128858C40.1156 -0.0620549 36.1563 3.79922 36.1563 8.58548C36.1563 11.6078 37.7331 14.2591 40.1049 15.7568C40.8277 16.2139 41.2614 17.0152 41.2614 17.873C41.2614 19.2605 40.1424 20.3871 38.7584 20.3871H25.7559C22.672 20.3871 20.1743 22.8985 20.1743 25.9935V39.0132C20.1743 40.4007 19.0553 41.5273 17.6712 41.5273C16.8039 41.5273 16.0061 41.0675 15.5403 40.3307C13.9822 37.8704 11.1954 36.2705 8.04722 36.4076C3.70504 36.5959 0.176685 40.156 0.00535362 44.5228C-0.184717 49.352 3.65953 53.3289 8.42468 53.3289C11.4337 53.3289 14.0733 51.7452 15.5644 49.3628C16.0195 48.6368 16.8172 48.2012 17.6712 48.2012C19.0526 48.2012 20.1743 49.3251 20.1743 50.7153V63.7753C20.1743 66.873 22.6746 69.3817 25.7559 69.3817H38.7584C40.1397 69.3817 41.2614 68.2578 41.2614 66.8676H41.2641Z" fill="#FF009D"/>
<path d="M66.3481 97.2711C65.4941 97.2711 64.6937 97.7013 64.2386 98.4246C62.7421 100.804 60.0972 102.38 57.0882 102.372C52.3203 102.359 48.4895 98.3736 48.6929 93.5416C48.875 89.1748 52.414 85.6254 56.7616 85.4507C59.9098 85.3216 62.6912 86.9296 64.2412 89.3953C64.7044 90.132 65.4995 90.5945 66.3668 90.5972C67.7482 90.5999 68.8726 89.4786 68.8752 88.0912L68.9127 75.0715C68.9207 71.9738 66.4284 69.457 63.3471 69.4489L50.3848 69.4113C49.0035 69.4086 47.8871 68.2793 47.8898 66.8918C47.8898 66.0206 48.3529 65.222 49.0864 64.7568C51.5413 63.1999 53.1422 60.4061 53.0137 57.244C52.837 52.8772 49.3033 49.3252 44.9584 49.1396C40.1504 48.9353 36.1831 52.7831 36.167 57.572C36.159 60.5944 37.7277 63.251 40.0969 64.7541C40.8197 65.2112 41.248 66.0152 41.2454 66.873C41.2427 68.2605 40.1183 69.3844 38.737 69.379L25.7345 69.3414C22.6505 69.3333 20.1448 71.8367 20.1368 74.9316L20.0966 88.8763C20.45 89.8282 21.3602 90.5085 22.431 90.5139C23.2984 90.5139 24.0962 90.0594 24.5646 89.3254C26.128 86.8677 28.9202 85.2759 32.0684 85.4238C36.4133 85.6254 39.9336 89.1936 40.0915 93.5604C40.2656 98.3897 36.4133 102.356 31.6454 102.342C28.6364 102.334 26.0022 100.742 24.5165 98.3547C24.064 97.6287 23.2663 97.1904 22.4123 97.1877C21.3415 97.1851 20.4259 97.86 20.0672 98.8118L20.027 112.716C20.019 115.814 22.5113 118.331 25.5926 118.339L38.5549 118.376C39.9363 118.379 41.0526 119.508 41.0499 120.896C41.0499 121.767 40.5868 122.566 39.8533 123.031C37.3984 124.588 35.7976 127.382 35.9261 130.544C36.1027 134.91 39.6364 138.463 43.9813 138.648C48.7893 138.852 52.7567 135.005 52.7728 130.216C52.7808 127.193 51.212 124.537 48.8428 123.034C48.12 122.576 47.6917 121.772 47.6944 120.915C47.6971 119.527 48.8214 118.403 50.2028 118.409L63.2052 118.446C66.2892 118.454 68.7949 115.951 68.8029 112.856L68.8404 99.796C68.8431 98.4085 67.7268 97.2792 66.3454 97.2765L66.3481 97.2711Z" fill="#6A42E3"/>
<path d="M137.828 44.4422C137.657 40.0755 134.128 36.5153 129.784 36.3271C126.635 36.19 123.848 37.7899 122.29 40.2502C121.825 40.987 121.03 41.4468 120.16 41.4468C118.778 41.4468 117.656 40.3228 117.656 38.9327V25.8726C117.656 22.775 115.156 20.2663 112.075 20.2663H99.1125C97.7312 20.2663 96.6095 19.1423 96.6095 17.7521C96.6095 16.8809 97.0673 16.0796 97.8008 15.6118C100.25 14.0468 101.843 11.2477 101.707 8.0855C101.519 3.71871 97.9748 0.177413 93.6272 0.00532252C88.8193 -0.18559 84.8599 3.67568 84.8599 8.46194C84.8599 11.4843 86.4367 14.1355 88.8086 15.6333C89.5314 16.0904 89.965 16.8917 89.965 17.7494C89.965 19.1369 88.846 20.2636 87.462 20.2636H74.4596C71.3756 20.2636 68.8779 22.775 68.8779 25.8699V39.3118C69.0894 40.4842 70.1093 41.3769 71.3381 41.3769C72.2055 41.3769 73.0032 40.9171 73.469 40.1803C75.0271 37.72 77.8139 36.1201 80.9621 36.2572C85.3096 36.4454 88.8353 40.0055 89.0067 44.3723C89.1967 49.2016 85.3525 53.1785 80.5873 53.1785C77.5783 53.1785 74.9387 51.5947 73.4476 49.2124C72.9925 48.4864 72.1948 48.0508 71.3408 48.0508C70.112 48.0508 69.0921 48.9408 68.8806 50.1158V63.6545C68.8806 66.7521 71.3809 69.2609 74.4622 69.2609H87.4647C88.846 69.2609 89.9677 68.1369 89.9677 66.7467C89.9677 65.889 89.534 65.085 88.8112 64.6306C86.4394 63.1329 84.8626 60.4816 84.8626 57.4593C84.8626 52.6703 88.8193 48.8117 93.6299 49.0026C97.9775 49.1747 101.522 52.7187 101.709 57.0828C101.846 60.245 100.253 63.0441 97.8035 64.6091C97.0699 65.0769 96.6122 65.8755 96.6122 66.7494C96.6122 68.1369 97.7312 69.2636 99.1152 69.2636H112.077C115.161 69.2636 117.659 66.7521 117.659 63.6572V50.6375C117.659 49.25 118.778 48.1234 120.162 48.1234C121.016 48.1234 121.814 48.559 122.269 49.2823C123.76 51.6647 126.4 53.2484 129.409 53.2484C134.177 53.2484 138.018 49.2742 137.828 44.4422Z" fill="#0092FF"/>
<path d="M252.893 95.1363C252.358 94.3969 251.739 93.73 251.027 93.1573C250.082 92.399 248.942 91.9446 248.005 91.1621C247.386 90.6459 246.918 90.1403 246.562 89.4708C246.824 89.2799 247.017 89.0325 247.138 88.7475C248.637 88.8228 250.029 86.997 250.765 85.8945C251.774 84.3807 252.366 82.6867 252.644 80.8959C253.19 77.3895 252.754 73.7783 251.373 70.5113C250.026 67.3303 247.735 64.5365 244.739 62.7995C241.759 61.0705 238.177 60.3553 234.764 60.8043C231.19 61.2776 227.681 63.0146 225.614 66.0638C225.344 66.4618 225.111 66.8813 224.91 67.3196C224.35 68.5968 224.112 69.9251 224.332 71.3153C224.46 72.1273 224.752 72.9233 225.154 73.6466C224.969 74.1198 224.819 74.6065 224.712 75.1013C224.409 76.5103 223.96 77.8843 223.646 79.2933C223.368 80.5544 223.143 81.8289 222.99 83.1115C222.618 86.2145 222.589 89.9306 224.516 92.5792C224.827 93.0067 225.178 93.3832 225.558 93.7139C224.064 93.8779 222.632 94.456 221.366 95.2573C218.994 96.7524 217.074 98.9035 215.372 101.108C213.685 103.292 212.165 105.607 210.39 107.723C208.513 109.963 206.296 111.877 203.898 113.537C203.295 113.953 202.68 114.354 202.056 114.738C202.099 114.518 202.144 114.298 202.187 114.08C203.903 105.658 207.1 97.4999 210.623 89.6859C211.26 88.2715 211.926 86.8733 212.598 85.4751C213.567 83.4557 214.536 81.439 215.508 79.4196C215.779 78.8577 216.065 78.3038 216.317 77.7337C216.978 76.2521 216.231 74.4801 214.579 74.1494C213.275 73.8886 212.421 74.6468 211.768 75.6471V70.9926C211.768 69.9601 211.921 68.8119 211.276 67.9299C210.275 66.5586 208.585 66.7361 207.627 67.7417C207.199 67.2496 206.588 66.9324 205.852 66.9324C205.116 66.9324 204.535 67.2335 204.109 67.7041C203.684 67.2335 203.084 66.9324 202.366 66.9324C201.649 66.9324 201.039 67.2389 200.61 67.7202C199.74 66.8624 198.222 66.7603 196.916 67.0641C195.053 67.4943 194.14 68.9302 193.224 70.4441C192.793 71.1566 192.362 71.8692 191.929 72.5818C191.653 73.0362 191.305 73.5094 191.16 74.0284C190.499 76.3839 193.374 78.2527 195.229 76.6608C195.73 76.2306 196.086 75.5826 196.45 75.026C196.45 76.3946 196.45 77.766 196.45 79.1346C195.634 80.7668 194.828 82.4043 194.033 84.0473C193.733 84.6657 193.463 85.2976 193.128 85.8972C192.67 86.72 192.237 87.559 191.814 88.4006C189.862 92.2995 188.165 96.3329 186.732 100.452C184.768 106.102 183.306 111.964 182.741 117.93C182.626 119.14 182.554 120.358 182.527 121.576C177.871 122.136 173.133 121.869 168.673 120.283C164.117 118.662 160.133 115.596 158.01 111.16C157.772 110.665 157.569 110.157 157.384 109.64C158.077 108.145 158.771 106.65 159.464 105.153C159.734 104.572 160.032 103.996 160.27 103.399C161.009 101.539 158.875 99.7586 157.194 100.845C156.867 101.057 156.597 101.377 156.34 101.687V95.6687C156.34 95.0691 156.407 94.3915 156.219 93.8107C155.652 92.0414 153.516 91.5816 152.249 92.6598C151.307 91.8747 149.875 91.8774 148.975 92.6975C148.052 91.8693 146.566 91.8693 145.645 92.6975C144.901 92.0253 143.771 91.8344 142.837 92.3237C141.967 92.7808 141.504 93.7031 141.496 94.6658C141.485 95.8946 141.496 97.1234 141.496 98.3523C141.496 100.318 141.504 102.281 141.496 104.246C141.493 105.013 141.528 105.782 141.579 106.545C141.691 108.172 141.892 109.796 142.168 111.404C142.532 113.539 143.038 115.65 143.691 117.715C144.462 120.159 145.442 122.544 146.641 124.806C147.977 127.323 149.604 129.689 151.5 131.816C153.572 134.139 155.987 136.158 158.629 137.799C161.705 139.708 165.097 141.095 168.59 142.012C172.868 143.133 177.312 143.574 181.724 143.558C182.961 143.553 184.197 143.513 185.431 143.44C186.312 143.389 186.318 142.004 185.431 142.055C180.921 142.316 176.362 142.176 171.912 141.34C168.346 140.67 164.853 139.565 161.624 137.906C158.854 136.481 156.375 134.725 154.147 132.579C152.099 130.606 150.448 128.516 148.973 126.113C147.623 123.916 146.542 121.63 145.693 119.328C144.92 117.234 144.309 115.08 143.849 112.894C143.653 111.969 143.485 111.039 143.345 110.105C143.313 109.89 143.281 109.673 143.252 109.457C143.246 109.42 143.241 109.382 143.236 109.347C143.236 109.336 143.233 109.323 143.23 109.307C143.217 109.205 143.204 109.103 143.19 109C143.142 108.619 143.099 108.237 143.062 107.852C142.96 106.814 142.888 105.771 142.872 104.728C142.858 103.897 142.872 103.066 142.872 102.235V95.2627C142.872 94.9508 142.831 94.5932 142.906 94.2866C143.019 93.843 143.396 93.4692 143.859 93.4208C144.339 93.3697 144.705 93.6332 144.933 94.0097V100.175C144.933 101.065 146.312 101.068 146.312 100.175V94.0742C146.732 93.324 147.629 93.2487 148.145 93.8483V100.178C148.145 101.068 149.524 101.071 149.524 100.178V94.2974C149.54 94.2732 149.559 94.2544 149.572 94.2275C149.963 93.3132 151.077 93.1519 151.607 94.007V100.178C151.607 101.068 152.986 101.071 152.986 100.178V93.8779C153.636 93.0605 154.94 93.48 154.961 94.6147C154.972 95.1283 154.961 95.6392 154.961 96.1527V102.722C152.779 102.464 150.405 102.872 148.523 103.94C147.487 104.526 146.622 105.333 145.91 106.285C145.685 106.583 145.862 107.059 146.156 107.231C146.51 107.438 146.874 107.282 147.099 106.984C148.137 105.599 149.634 104.741 151.256 104.34C152 104.158 152.496 104.096 153.261 104.066C153.797 104.047 154.335 104.061 154.87 104.115C154.972 104.125 155.071 104.139 155.17 104.15C155.202 104.155 155.232 104.158 155.264 104.163C155.331 104.174 155.398 104.185 155.465 104.198C155.486 104.203 155.505 104.203 155.526 104.206C155.738 104.257 155.968 104.211 156.134 104.02C156.15 104.002 156.166 103.983 156.182 103.964C156.182 103.964 156.185 103.959 156.187 103.959C156.704 103.367 157.205 102.759 157.74 102.187C157.895 102.02 158.056 101.904 158.291 101.896C158.439 101.891 158.581 101.929 158.706 102.009C158.88 102.122 158.937 102.203 158.982 102.337C159.103 102.708 159.028 102.81 158.891 103.109C158.067 104.886 157.245 106.661 156.42 108.438C156.302 108.694 156.182 108.947 156.067 109.202C155.796 109.804 156.211 110.482 156.45 111.049C157.084 112.555 157.919 113.948 158.934 115.225C160.942 117.758 163.659 119.67 166.606 120.947C171.658 123.136 177.122 123.582 182.503 122.964C182.521 126.908 183.025 130.856 184.165 134.631C185.605 139.401 188.135 143.98 192.108 147.073C194.148 148.662 196.493 149.81 198.993 150.458C201.978 151.23 205.164 151.477 208.24 151.447C214.403 151.386 220.552 149.899 226.01 147.005C231.79 143.94 236.378 139.202 240.485 134.174C242.581 131.609 244.618 128.947 246.441 126.177C246.717 125.758 246.974 125.325 247.234 124.892C247.558 124.346 247.876 123.797 248.187 123.244C248.072 127.18 247.539 131.087 247.001 134.986C245.81 143.596 245.478 152.305 244.166 160.899C243.451 165.58 242.439 170.23 240.9 174.712C240.006 177.312 238.488 179.6 236.512 181.499C232.301 185.543 226.564 187.699 221.023 189.149C215.369 190.628 209.56 191.383 203.756 191.967C195.114 192.835 186.454 193.454 177.778 193.852C158.401 194.744 138.993 194.664 119.6 194.591C110.059 194.556 100.497 194.424 91.0011 193.394C88.581 193.131 86.1663 192.811 83.765 192.416C81.7706 192.088 79.4951 191.873 77.7684 190.722C75.3564 189.114 75.2814 185.131 75.434 182.55C75.5116 181.249 75.683 179.864 76.2907 178.692C76.3844 178.509 76.4914 178.334 76.6039 178.162C77.2678 178.517 77.9959 178.718 78.7723 178.665C80.4856 178.544 82.0383 176.801 81.3985 175.059C81.2834 174.744 81.0612 174.583 80.7346 174.551C78.9543 174.373 77.4632 175.118 76.3522 176.306C76.0872 176.07 75.8409 175.812 75.6214 175.556C74.4783 174.233 73.7876 172.555 73.3298 170.883C72.3233 167.21 72.3206 163.271 72.6606 159.503C72.8185 157.742 72.9899 155.884 73.536 154.198C73.9054 153.055 74.5559 152.069 75.699 151.598C76.8047 151.141 78.2529 150.931 79.4416 150.966C81.4761 151.023 83.0904 152.574 84.4182 153.964C85.7487 155.357 86.9266 156.909 88.3508 158.21C91.5418 161.122 95.9429 162.41 100.098 163.136C105.136 164.015 110.257 164.174 115.36 164.101C120.845 164.024 126.327 163.701 131.813 163.841C137.384 163.98 142.949 164.217 148.523 164.271C154.089 164.322 159.649 164.244 165.212 164.115C170.33 163.994 175.454 164.021 180.567 163.712C184.792 163.456 189.011 162.953 193.139 162.018C193.776 162.477 194.458 162.878 195.203 163.185C196.841 163.862 199.178 164.239 200.527 162.776C201.593 161.622 201.221 159.31 199.531 159.014C198.367 158.81 196.945 159.587 195.845 159.899C195.053 160.125 194.258 160.332 193.457 160.523C190.676 158.258 188.842 155.04 186.042 152.787C182.307 149.78 177.432 149.837 172.876 149.622C167.308 149.358 161.734 149.296 156.163 149.218C150.809 149.143 145.45 148.858 140.098 148.82C131.09 148.759 121.056 150.235 113.006 145.185C109.21 142.803 105.503 139.156 100.636 139.837C96.3471 140.436 94.2162 144.744 94.4036 148.751C94.5241 151.351 95.4021 153.819 96.2856 156.239C96.5881 157.067 97.9186 156.71 97.6134 155.871C96.6764 153.3 95.6806 150.625 95.7743 147.844C95.8465 145.691 96.7059 143.34 98.5316 142.079C100.625 140.633 103.39 141.052 105.583 142.044C107.885 143.082 109.826 144.763 111.93 146.134C120.253 151.555 130.563 150.154 139.962 150.205C145.594 150.235 151.229 150.536 156.865 150.614C162.668 150.695 168.475 150.767 174.273 151.079C176.94 151.222 179.745 151.246 182.281 152.182C184.203 152.889 185.737 154.228 187.115 155.709C188.668 157.379 190.084 159.329 191.781 160.907C189.166 161.456 186.521 161.832 183.863 162.082C178.535 162.58 173.179 162.596 167.832 162.684C162.034 162.781 156.244 162.937 150.445 162.908C144.574 162.878 138.706 162.703 132.841 162.496C127.128 162.292 121.418 162.631 115.708 162.722C110.297 162.808 104.833 162.684 99.5087 161.633C97.1958 161.176 94.8828 160.541 92.7572 159.498C90.7842 158.53 89.1914 157.215 87.727 155.588C86.3591 154.069 85.0607 152.456 83.4384 151.195C82.7316 150.646 81.9687 150.176 81.1201 149.88C79.9663 149.477 78.7776 149.592 77.5917 149.764C75.2493 150.1 73.3807 150.929 72.4357 153.23C71.7316 154.946 71.5576 156.911 71.3622 158.742C70.9446 162.66 70.9205 166.737 71.8334 170.59C72.2483 172.343 72.8908 174.102 73.9188 175.591C74.3551 176.226 74.8959 176.868 75.517 177.404C74.8691 178.423 74.4355 179.603 74.2561 180.759C73.8064 183.653 73.8786 186.979 75.1422 189.67C76.8368 193.284 81.6608 193.51 85.0875 194.026C89.8633 194.744 94.6713 195.204 99.49 195.489C109.398 196.078 119.335 195.989 129.256 196.008C139.311 196.027 149.369 196.013 159.424 195.823C169.415 195.634 179.403 195.269 189.372 194.58C196.533 194.088 203.721 193.513 210.834 192.526C216.97 191.674 223.14 190.426 228.859 187.971C234.028 185.753 238.994 182.297 241.449 177.049C243.264 173.171 244.177 168.724 244.953 164.534C245.828 159.821 246.34 155.051 246.79 150.28C247.237 145.535 247.617 140.778 248.243 136.051C248.505 134.077 248.8 132.112 249.033 130.135C249.402 127.005 249.689 123.797 249.603 120.616C250.2 119.444 250.765 118.256 251.295 117.054C252.888 113.44 254.237 109.648 254.775 105.717C255.262 102.138 255.08 98.1775 252.891 95.1498L252.893 95.1363ZM143.241 109.361C143.246 109.401 143.249 109.412 143.241 109.361V109.361ZM197.508 160.84C197.944 160.703 199.004 160.146 199.443 160.402C199.77 160.592 199.823 161.09 199.735 161.421C199.598 161.942 199.098 162.198 198.613 162.313C197.422 162.601 196.118 162.184 194.991 161.555C195.187 161.504 195.385 161.453 195.58 161.399C196.225 161.224 196.868 161.036 197.508 160.837V160.84ZM80.1563 175.917C80.1215 176.745 79.2247 177.342 78.3814 177.28C78.087 177.258 77.8032 177.183 77.5328 177.067C78.261 176.403 79.1578 175.968 80.159 175.917H80.1563ZM241.403 81.7832C241.414 81.7698 241.417 81.7671 241.403 81.7832V81.7832ZM237.832 79.3255C237.832 79.3255 237.832 79.3309 237.837 79.3336C237.808 79.3282 237.811 79.3255 237.832 79.3255ZM237.91 79.339C237.91 79.339 237.91 79.339 237.915 79.339C237.926 79.339 237.936 79.339 237.958 79.339C237.939 79.339 237.926 79.339 237.912 79.339H237.91ZM237.348 86.4081C237.348 86.4081 237.348 86.4081 237.348 86.4108C237.345 86.4108 237.342 86.4108 237.34 86.4135C237.331 86.4135 237.326 86.4162 237.315 86.4189C237.326 86.4135 237.337 86.4108 237.348 86.4054V86.4081ZM237.315 86.4189C237.315 86.4189 237.329 86.4162 237.337 86.4135C237.313 86.4216 237.291 86.4296 237.281 86.4458C237.289 86.435 237.302 86.4243 237.315 86.4189ZM183.932 120.724C184.181 114.72 185.49 108.791 187.313 103.082C188.716 98.6884 190.443 94.3942 192.448 90.2425C192.975 89.1508 193.521 88.0672 194.1 87.0024C194.892 85.5423 195.575 84.0231 196.308 82.5334C196.715 81.7052 197.125 80.8797 197.534 80.0542C197.628 79.8687 197.754 79.6778 197.81 79.4761C197.877 79.2341 197.834 78.9222 197.834 78.6721V72.899C197.864 72.7888 197.864 72.6839 197.834 72.5871V71.8504C197.834 70.9603 196.456 70.9577 196.456 71.8504V72.5549C195.84 73.4798 195.259 74.4479 194.587 75.3325C193.923 76.2064 192.402 75.9268 192.445 74.6845C192.464 74.1897 192.876 73.6869 193.123 73.2809C193.795 72.173 194.434 71.0356 195.141 69.9466C195.805 68.9248 196.793 68.3602 198.008 68.3145C198.833 68.2849 199.866 68.2768 199.938 69.3739V76.0504C199.938 76.9405 201.317 76.9432 201.317 76.0504V69.3739C201.408 68.0133 203.333 68.0106 203.424 69.3739V76.0854C203.424 76.9754 204.803 76.9781 204.803 76.0854V69.3739C204.894 68.0133 206.818 68.0106 206.909 69.3739C206.909 69.3766 206.909 69.3793 206.909 69.3846C206.909 69.39 206.909 69.3954 206.909 69.4008V76.1204C206.909 77.0104 208.288 77.0131 208.288 76.1204V69.4008C208.288 69.4008 208.288 69.39 208.288 69.3846C208.288 69.382 208.288 69.3793 208.288 69.3739C208.371 68.1719 210.047 67.9353 210.36 69.14C210.416 69.3578 210.395 69.6105 210.395 69.831V78.4221C210.395 79.0943 211.348 79.382 211.677 78.7716C212.1 77.9892 212.521 77.2067 212.944 76.4242C213.192 75.9617 213.46 75.5207 214.055 75.4912C214.922 75.4481 215.393 76.3086 215.115 77.0642C214.48 78.7878 213.487 80.4522 212.692 82.1086C211.886 83.7864 211.064 85.4616 210.277 87.1503C207.006 94.1629 204.093 101.423 202.029 108.89C201.416 111.106 200.859 113.375 200.476 115.669C196.354 117.984 191.867 119.654 187.276 120.732C186.165 120.993 185.038 121.213 183.908 121.388C183.914 121.168 183.919 120.944 183.93 120.724H183.932ZM246.881 122.768C245.609 125.018 244.169 127.094 242.632 129.178C240.589 131.95 238.421 134.631 236.081 137.156C233.913 139.495 231.624 141.735 229.003 143.564C224.053 147.016 218.228 149.148 212.245 149.818C209.147 150.165 206.013 150.141 202.918 149.759C200.244 149.431 197.631 148.807 195.256 147.495C190.981 145.137 188.023 141.031 186.285 136.524C184.602 132.157 183.897 127.452 183.892 122.776C186.291 122.421 188.665 121.864 190.968 121.165C194.161 120.197 197.28 118.939 200.23 117.371C200.056 118.764 199.957 120.162 199.962 121.56C199.973 124.636 200.543 128.196 203.068 130.253C207.565 133.918 214.577 131.119 218.812 128.455C222.201 126.322 225.012 123.405 227.306 120.135C229.145 117.513 230.307 114.596 231.902 111.843C233.468 109.14 235.696 107.438 238.887 107.285C240.994 107.183 243.119 107.672 244.691 109.156C247.571 111.877 248.123 116.422 248.211 120.313C247.783 121.138 247.341 121.958 246.886 122.765L246.881 122.768ZM251.164 113.781C250.644 115.139 250.061 116.494 249.432 117.833C249.341 116.962 249.218 116.094 249.052 115.233C248.227 110.955 245.911 106.795 241.28 106.034C238.408 105.564 235.286 106.137 233.067 108.11C230.899 110.038 229.828 112.883 228.543 115.411C226.746 118.949 224.3 122.211 221.333 124.843C218.134 127.68 213.929 130.055 209.621 130.485C207.726 130.676 205.622 130.493 204.058 129.285C202.921 128.409 202.235 127.094 201.85 125.731C201.017 122.797 201.239 119.587 201.737 116.535C201.783 116.508 201.828 116.484 201.874 116.459C205.218 114.505 208.411 112.109 210.962 109.172C213.369 106.406 215.278 103.249 217.66 100.46C219.484 98.3307 221.987 95.8381 224.864 95.2062C225.991 96.2684 227.386 97.1046 228.805 97.6827C230.007 98.1721 231.332 98.4491 232.633 98.3523C234.242 98.234 235.827 97.5806 237.037 96.4996C237.385 96.1877 237.671 95.7817 237.963 95.4214C238.234 95.0879 238.501 94.7491 238.766 94.4103C239.098 93.9855 239.425 93.5579 239.749 93.1277C239.928 92.8857 239.84 92.4878 239.642 92.2888C239.417 92.0629 239.082 92.0414 238.807 92.1812C238.753 92.2081 238.697 92.235 238.643 92.2592C238.587 92.2861 238.528 92.313 238.472 92.3372C238.432 92.356 238.389 92.3748 238.349 92.391C238.341 92.3936 238.338 92.3963 238.333 92.399C237.768 92.6222 237.2 92.8373 236.622 93.0202C234.641 93.644 232.588 94.0097 230.518 94.1414C230.497 94.1414 230.478 94.1414 230.457 94.1414C230.304 94.128 230.154 94.1172 230.002 94.1092C229.932 94.1038 229.863 94.1011 229.793 94.093C229.737 94.0877 229.539 94.0581 229.777 94.093C229.729 94.085 229.68 94.0796 229.63 94.0715C229.506 94.0527 229.386 94.0312 229.263 94.007C229.043 93.964 228.824 93.9102 228.607 93.8457C228.387 93.7811 228.176 93.7005 227.962 93.6225C227.948 93.6171 227.943 93.6171 227.935 93.6117C227.927 93.609 227.924 93.6063 227.914 93.601C227.868 93.5795 227.82 93.5579 227.774 93.5364C227.665 93.4853 227.555 93.4289 227.445 93.3697C227.231 93.2541 227.025 93.125 226.827 92.9852C226.784 92.9556 226.741 92.9207 226.698 92.8911C226.693 92.8884 226.693 92.8884 226.69 92.8857C226.682 92.8776 226.674 92.8723 226.663 92.8615C226.564 92.7782 226.465 92.6948 226.369 92.6061C226.182 92.4313 226.008 92.2458 225.844 92.0522C225.826 92.0306 225.743 91.9231 225.74 91.9231C225.721 91.8962 225.7 91.8693 225.681 91.8424C225.595 91.7241 225.515 91.6031 225.44 91.4821C225.055 90.8637 224.923 90.5383 224.725 89.9252C224.615 89.5864 224.524 89.2395 224.452 88.89C224.367 88.4786 224.313 88.129 224.281 87.8386C224.126 86.4296 224.166 84.9991 224.318 83.5848C224.479 84.0016 224.934 84.3 225.303 84.5071C225.863 84.8217 226.484 84.9911 227.121 85.0314C227.37 85.0475 227.582 84.8082 227.582 84.5689C227.582 84.3054 227.37 84.1226 227.121 84.1064C226.535 84.0715 225.957 83.8617 225.464 83.5176C225.376 83.4557 225.271 83.3535 225.204 83.3024C225.154 83.2648 225.167 83.2298 225.183 83.2003C225.29 83.0094 225.552 82.9556 225.799 82.9099C226.431 82.7915 227.086 82.8534 227.699 82.6248C228.029 82.5011 228.331 82.3156 228.535 82.0198C228.76 81.6945 228.76 81.3046 228.674 80.9308C228.62 80.6888 228.339 80.5436 228.109 80.6082C227.86 80.6781 227.734 80.9308 227.788 81.1755C227.809 81.2723 227.828 81.3637 227.798 81.4578C227.793 81.474 227.785 81.4928 227.774 81.5062C227.761 81.5224 227.705 81.5842 227.67 81.6138C227.531 81.7267 227.282 81.802 227.068 81.8451C226.53 81.9553 225.97 81.923 225.432 82.0467C225.025 82.1381 224.637 82.3533 224.423 82.6921C224.463 82.4043 224.506 82.1166 224.554 81.8316C224.597 81.5788 224.642 81.3261 224.69 81.0733C224.773 81.0787 224.856 81.0814 224.945 81.068C225.087 81.0491 225.202 81.0115 225.333 80.9496C225.552 80.8448 225.737 80.6485 225.86 80.4387C226.104 79.9978 226.064 79.425 225.708 79.054C225.569 78.9088 225.384 78.8066 225.186 78.7582C225.237 78.5511 225.287 78.3468 225.341 78.1397C225.368 78.1317 225.395 78.1263 225.424 78.1209C225.48 78.1155 225.536 78.1182 225.59 78.1209C225.638 78.1317 225.684 78.1424 225.729 78.1586C225.78 78.1828 225.828 78.2123 225.874 78.2419C225.906 78.2688 225.935 78.2957 225.965 78.328C226.04 78.414 226.179 78.4624 226.289 78.4624C226.398 78.4624 226.535 78.4113 226.613 78.328C226.693 78.2392 226.752 78.1236 226.746 78.0026C226.741 77.8762 226.696 77.7714 226.613 77.6772C226.414 77.4487 226.117 77.282 225.82 77.2282C225.745 77.2147 225.668 77.2067 225.593 77.204C225.743 76.6958 225.898 76.1849 225.997 75.6713C226.037 75.4643 226.085 75.2572 226.139 75.0529C227.247 76.3382 228.741 77.3142 230.39 77.688C231.265 77.887 232.173 77.9139 233.051 77.7472C233.292 78.8496 233.969 79.8956 235.123 80.1349C235.993 80.3151 236.86 80.0085 237.583 79.5299C237.671 79.4707 237.762 79.417 237.851 79.3578C237.854 79.3632 237.859 79.3686 237.862 79.3739C237.875 79.4008 237.888 79.4277 237.902 79.4546C237.923 79.5433 237.961 79.6294 237.985 79.7208C238.009 79.8095 238.028 79.901 238.044 79.9924C238.052 80.0408 238.06 80.0892 238.068 80.1376C238.06 80.0973 238.057 80.0757 238.054 80.0623C238.06 80.0865 238.068 80.1376 238.068 80.1564C238.092 80.3984 238.108 80.6431 238.113 80.8878C238.124 81.4202 238.092 81.9553 238.038 82.485C238.003 82.8238 237.998 82.8561 237.95 83.1734C237.904 83.4611 237.854 83.7488 237.792 84.0338C237.671 84.5985 237.524 85.1578 237.323 85.6983C237.305 85.7493 237.283 85.8004 237.265 85.8515C237.257 85.8703 237.254 85.8784 237.254 85.8838C237.248 85.8945 237.243 85.908 237.232 85.9295C237.184 86.0317 237.139 86.1339 237.085 86.236C237.037 86.3248 236.983 86.4108 236.93 86.4996C236.908 86.5345 236.882 86.5641 236.86 86.599C236.874 86.5748 236.884 86.5587 236.895 86.5453C236.882 86.5641 236.866 86.5883 236.852 86.6017C236.427 87.0857 236.751 87.7069 237.34 87.7822C238.33 87.9112 238.964 86.6179 239.321 85.8972C239.869 84.7948 240.306 83.6359 240.905 82.5576C241.042 82.3102 241.192 82.0709 241.355 81.8397C241.366 81.8262 241.374 81.8128 241.385 81.7993C241.422 81.7536 241.457 81.7079 241.497 81.6649C241.572 81.5788 241.655 81.5063 241.738 81.4256C241.738 81.4256 241.738 81.4229 241.743 81.4202C241.743 81.4202 241.743 81.4202 241.746 81.4202C241.778 81.4041 241.816 81.3772 241.845 81.3584C241.853 81.353 241.864 81.3476 241.872 81.3422C241.864 81.3422 241.858 81.3449 241.848 81.3476C241.856 81.3476 241.866 81.3422 241.874 81.3422C241.907 81.3261 241.939 81.3207 241.941 81.3234C241.949 81.3207 241.957 81.318 241.965 81.3153C241.968 81.3153 241.973 81.3153 241.976 81.3153C241.976 81.3153 241.973 81.3153 241.971 81.3153H241.976C242.035 81.3153 242.073 81.3422 241.995 81.3207C242.081 81.3476 242.166 81.3718 242.252 81.4094C242.608 81.5708 242.902 81.7509 243.149 81.9929C243.208 82.0494 243.264 82.1113 243.317 82.1731C243.336 82.1946 243.352 82.2134 243.368 82.2349C243.374 82.2457 243.382 82.2565 243.392 82.2753C243.432 82.3398 243.475 82.4043 243.51 82.4716C243.526 82.4985 243.54 82.528 243.556 82.5576C243.564 82.5737 243.569 82.5818 243.574 82.5899C243.574 82.5899 243.574 82.5926 243.574 82.5953C243.794 83.1546 243.764 83.6251 243.623 84.179C243.577 84.3538 243.523 84.5259 243.462 84.6926C243.4 84.8566 243.39 84.8862 243.288 85.0933C243.122 85.4294 242.932 85.752 242.718 86.0613C242.667 86.1339 242.616 86.2065 242.562 86.2764C242.557 86.2817 242.546 86.2979 242.536 86.3113C242.514 86.3382 242.493 86.3651 242.471 86.392C242.367 86.5184 242.26 86.6448 242.148 86.7658C242.038 86.8841 241.923 86.997 241.805 87.1073C241.754 87.1557 241.7 87.1987 241.647 87.2444C241.631 87.2605 241.612 87.274 241.593 87.2874C241.588 87.2901 241.585 87.2928 241.577 87.3009C241.192 87.5859 241.141 88.0134 241.438 88.3872C241.762 88.7905 242.26 89.0728 242.723 89.2826C243.349 89.5703 243.997 89.7639 244.68 89.8446C244.857 89.8661 245.039 89.8741 245.221 89.8688C246.083 91.673 247.807 92.8803 249.536 93.7972C250.254 94.1764 250.928 94.8836 251.48 95.5612C251.611 95.7198 251.648 95.7709 251.793 95.9807C251.911 96.1527 252.026 96.3275 252.133 96.505C252.352 96.8707 252.548 97.2498 252.717 97.6397C252.714 97.6343 252.757 97.7338 252.794 97.8252C252.829 97.9113 252.861 97.9973 252.893 98.0861C252.973 98.3039 253.046 98.5244 253.11 98.7475C253.23 99.1536 253.327 99.5676 253.405 99.9844C253.549 100.767 253.619 101.633 253.621 102.531C253.64 106.363 252.534 110.178 251.153 113.784L251.164 113.781Z" fill="#1F1F1F"/>
<path d="M236.898 86.5424C236.919 86.5103 236.932 86.4888 236.898 86.5424V86.5424Z" fill="#1F1F1F"/>
<path d="M238.06 80.0658C238.057 80.0484 238.06 80.0484 238.06 80.0658V80.0658Z" fill="#1F1F1F"/>
<path d="M241.944 81.3232C241.92 81.3313 241.898 81.3366 241.877 81.342C241.877 81.342 241.877 81.342 241.874 81.342C241.928 81.3313 241.947 81.3232 241.944 81.3232Z" fill="#1F1F1F"/>
<path d="M241.981 81.3154C241.981 81.3154 241.997 81.3208 242.003 81.3208C241.997 81.3208 241.989 81.3154 241.984 81.3154H241.981Z" fill="#1F1F1F"/>
<path d="M231.718 79.6535C231.669 79.6184 231.696 79.6346 231.718 79.6535V79.6535Z" fill="#1F1F1F"/>
<path d="M231.477 78.5458C231.019 78.4463 230.572 78.4947 230.146 78.691C229.927 78.7905 229.857 79.1266 229.98 79.3229C230.119 79.538 230.35 79.5891 230.572 79.5031C230.572 79.5031 230.572 79.5031 230.583 79.5004C230.599 79.495 230.615 79.4869 230.631 79.4815C230.668 79.4681 230.706 79.4573 230.743 79.4466C230.781 79.4358 230.818 79.4278 230.856 79.4224C230.845 79.4224 230.834 79.4251 230.826 79.4251C230.837 79.4251 230.848 79.4251 230.858 79.4224C230.888 79.417 230.912 79.4116 230.858 79.4224C230.864 79.4224 230.869 79.4224 230.877 79.4224C230.955 79.417 231.032 79.4143 231.11 79.4224C231.126 79.4224 231.142 79.4251 231.158 79.4278C231.19 79.4331 231.225 79.4385 231.257 79.4466C231.329 79.4627 231.399 79.4896 231.469 79.5138C231.479 79.5192 231.49 79.5246 231.501 79.5299C231.536 79.5461 231.57 79.5649 231.603 79.5864C231.635 79.6052 231.669 79.6267 231.702 79.6509C231.715 79.6617 231.728 79.6725 231.744 79.6805C231.731 79.6698 231.726 79.6671 231.715 79.6617C231.715 79.6617 231.72 79.6644 231.72 79.6671C231.782 79.7209 231.841 79.78 231.892 79.8445C232.047 80.0301 232.384 80.0166 232.542 79.8445C232.722 79.6483 232.708 79.3901 232.542 79.1911C232.277 78.8712 231.881 78.6426 231.477 78.5539V78.5458Z" fill="#1F1F1F"/>
<path d="M229.541 81.5707C229.587 81.6756 229.635 81.767 229.718 81.8504C229.753 81.8853 229.793 81.9149 229.833 81.9418C229.846 81.9499 229.857 81.9579 229.871 81.9633C229.929 81.9902 229.991 82.0198 230.055 82.0305C230.181 82.0547 230.285 82.0601 230.409 82.044C230.526 82.0278 230.617 81.9983 230.73 81.9445C230.901 81.8638 231.048 81.7052 231.142 81.5411C231.343 81.1808 231.303 80.7183 231.016 80.4172C230.976 80.3742 230.928 80.3419 230.88 80.3069C230.861 80.2935 230.842 80.28 230.824 80.2693C230.754 80.2316 230.676 80.1967 230.599 80.1779C230.518 80.159 230.433 80.1456 230.35 80.1483C230.269 80.151 230.184 80.1617 230.106 80.1859C229.932 80.2397 229.782 80.3392 229.67 80.4844C229.6 80.5758 229.56 80.6592 229.517 80.7694C229.482 80.8609 229.472 80.9577 229.458 81.0545C229.448 81.1351 229.458 81.2104 229.466 81.2911C229.48 81.3906 229.501 81.4766 229.541 81.568V81.5707Z" fill="#1F1F1F"/>
<path d="M231 85.7735C230.494 85.709 229.962 85.8219 229.477 85.9644C228.968 86.115 228.476 86.3355 228.026 86.6151C227.815 86.7469 227.734 87.0265 227.86 87.247C227.983 87.4594 228.278 87.5428 228.489 87.4137C228.816 87.2121 229.183 87.0319 229.56 86.9001C229.616 86.9943 229.707 87.0696 229.825 87.1072C229.841 87.1126 229.854 87.118 229.868 87.1233C229.932 87.1529 229.994 87.1879 230.05 87.2282C230.122 87.29 230.192 87.3546 230.251 87.4299C230.245 87.4245 230.243 87.4191 230.237 87.4137C230.269 87.4541 230.304 87.489 230.342 87.5159C230.32 87.5778 230.296 87.6369 230.28 87.7014C230.221 87.9434 230.358 88.2016 230.601 88.2688C230.837 88.3333 231.107 88.1908 231.166 87.9461C231.198 87.8171 231.22 87.7579 231.271 87.6665C231.319 87.5804 231.367 87.5132 231.412 87.4594C231.57 87.2766 231.798 87.1529 231.929 86.9485C232.347 86.2924 231.546 85.8407 231 85.7708V85.7735Z" fill="#1F1F1F"/>
<path d="M110.394 118.503H107.358C107.061 118.503 106.822 118.261 106.822 117.965C106.822 117.669 107.063 117.427 107.358 117.427H110.394C110.691 117.427 110.929 117.669 110.929 117.965C110.929 118.261 110.688 118.503 110.394 118.503ZM104.319 118.503H101.284C100.986 118.503 100.748 118.261 100.748 117.965C100.748 117.669 100.989 117.427 101.284 117.427H104.319C104.617 117.427 104.855 117.669 104.855 117.965C104.855 118.261 104.614 118.503 104.319 118.503ZM87.4379 118.503H85.1624C84.8652 118.503 84.627 118.261 84.627 117.965C84.627 117.669 84.8679 117.427 85.1624 117.427H87.4379C87.6387 117.427 87.8368 117.398 88.0269 117.338C88.3106 117.25 88.6104 117.408 88.6988 117.691C88.7871 117.976 88.6292 118.277 88.3481 118.366C88.0536 118.457 87.7484 118.505 87.4379 118.505V118.503ZM82.1266 118.503H79.0908C78.7937 118.503 78.5554 118.261 78.5554 117.965C78.5554 117.669 78.7964 117.427 79.0908 117.427H82.1266C82.4238 117.427 82.662 117.669 82.662 117.965C82.662 118.261 82.4211 118.503 82.1266 118.503ZM76.0524 118.503H74.4328C73.9134 118.503 73.3968 118.438 72.8961 118.306C72.6097 118.231 72.4384 117.938 72.5106 117.65C72.5856 117.363 72.8774 117.188 73.1638 117.263C73.5761 117.371 74.0018 117.424 74.4328 117.424H76.0524C76.3495 117.424 76.5878 117.666 76.5878 117.962C76.5878 118.258 76.3469 118.5 76.0524 118.5V118.503ZM98.2639 118.363C98.205 118.363 98.1461 118.352 98.0872 118.333C96.8959 117.917 96.0767 116.787 96.0473 115.521C96.0419 115.225 96.2748 114.978 96.572 114.97C96.8638 114.964 97.1128 115.198 97.1208 115.497C97.1395 116.317 97.6696 117.048 98.4406 117.317C98.719 117.414 98.8689 117.72 98.7699 118.003C98.6922 118.226 98.4861 118.363 98.2639 118.363ZM113.413 118.333C113.175 118.333 112.956 118.169 112.894 117.927C112.822 117.64 112.996 117.347 113.282 117.274C114.171 117.048 114.985 116.58 115.635 115.921C115.844 115.709 116.181 115.709 116.393 115.916C116.604 116.123 116.604 116.465 116.398 116.677C115.611 117.476 114.626 118.043 113.545 118.317C113.502 118.328 113.456 118.333 113.413 118.333ZM70.4386 116.811C70.2994 116.811 70.1602 116.758 70.0558 116.65C69.2741 115.846 68.728 114.846 68.4763 113.757C68.4094 113.466 68.5888 113.179 68.8779 113.111C69.1643 113.044 69.4535 113.224 69.5204 113.515C69.7292 114.413 70.1789 115.238 70.8241 115.903C71.0302 116.115 71.0276 116.456 70.8134 116.664C70.709 116.766 70.5751 116.817 70.4386 116.817V116.811ZM89.9356 116.123C89.9356 116.123 89.9168 116.123 89.9061 116.123C89.6117 116.107 89.3841 115.854 89.4002 115.558C89.4002 115.523 89.4029 115.491 89.4002 115.456C89.4002 114.771 89.0629 114.149 88.4953 113.792C88.3374 113.692 88.1821 113.587 88.0295 113.477C87.7886 113.302 87.7351 112.966 87.9091 112.727C88.0831 112.485 88.4177 112.431 88.656 112.606C88.7898 112.703 88.9263 112.794 89.0655 112.883C89.9463 113.44 90.471 114.399 90.471 115.456C90.471 115.51 90.471 115.566 90.4656 115.62C90.4496 115.908 90.214 116.128 89.9302 116.128L89.9356 116.123ZM117.477 114.206C117.434 114.206 117.394 114.201 117.351 114.19C117.062 114.12 116.885 113.829 116.955 113.542C117.046 113.157 117.094 112.757 117.094 112.356V110.63C117.094 110.331 117.335 110.092 117.63 110.092C117.924 110.092 118.165 110.334 118.165 110.63V112.356C118.165 112.84 118.109 113.324 117.996 113.792C117.938 114.039 117.718 114.206 117.477 114.206ZM98.1327 113.609C97.9641 113.609 97.8008 113.531 97.6964 113.383C97.525 113.141 97.5813 112.805 97.8222 112.633C98.6012 112.079 99.2651 111.396 99.8005 110.603C99.9665 110.358 100.298 110.291 100.545 110.458C100.791 110.624 100.853 110.958 100.689 111.205C100.082 112.106 99.3267 112.88 98.4433 113.509C98.3496 113.577 98.2398 113.609 98.1327 113.609ZM86.2493 111.396C86.0753 111.396 85.9066 111.313 85.8022 111.157C85.1999 110.25 84.7716 109.253 84.5279 108.196C84.461 107.906 84.6404 107.618 84.9295 107.551C85.2186 107.484 85.5051 107.664 85.572 107.954C85.7862 108.885 86.1636 109.761 86.6937 110.56C86.857 110.807 86.7927 111.141 86.5464 111.307C86.4554 111.369 86.351 111.399 86.2493 111.399V111.396ZM68.8511 111.132C68.554 111.132 68.3157 110.89 68.3157 110.595V107.545C68.3157 107.247 68.5566 107.008 68.8511 107.008C69.1456 107.008 69.3865 107.25 69.3865 107.545V110.595C69.3865 110.893 69.1456 111.132 68.8511 111.132ZM101.46 108.664C101.42 108.664 101.377 108.659 101.337 108.651C101.048 108.581 100.871 108.293 100.941 108.003C101.083 107.406 101.155 106.787 101.155 106.166C101.155 106.048 101.155 105.932 101.147 105.814C101.136 105.599 101.12 105.381 101.091 105.166C101.053 104.87 101.262 104.601 101.554 104.563C101.851 104.526 102.116 104.736 102.154 105.029C102.183 105.271 102.205 105.518 102.215 105.763C102.221 105.897 102.223 106.029 102.223 106.163C102.223 106.868 102.143 107.57 101.982 108.25C101.923 108.497 101.704 108.664 101.46 108.664ZM117.63 108.118C117.333 108.118 117.094 107.876 117.094 107.58V104.531C117.094 104.233 117.335 103.993 117.63 103.993C117.924 103.993 118.165 104.235 118.165 104.531V107.58C118.165 107.879 117.924 108.118 117.63 108.118ZM84.9081 105.583C84.884 105.583 84.8599 105.583 84.8385 105.577C84.544 105.537 84.3379 105.268 84.378 104.972C84.5199 103.894 84.8519 102.859 85.3659 101.901C85.5077 101.641 85.8317 101.541 86.0913 101.684C86.351 101.823 86.4501 102.151 86.3082 102.412C85.8558 103.257 85.564 104.165 85.4381 105.115C85.4033 105.386 85.1731 105.583 84.9081 105.583ZM68.8511 105.034C68.554 105.034 68.3157 104.792 68.3157 104.496V101.447C68.3157 101.149 68.5566 100.909 68.8511 100.909C69.1456 100.909 69.3865 101.151 69.3865 101.447V104.496C69.3865 104.795 69.1456 105.034 68.8511 105.034ZM100.705 102.743C100.513 102.743 100.328 102.641 100.232 102.458C99.7845 101.614 99.1928 100.864 98.4781 100.229C98.2559 100.033 98.2345 99.6911 98.4326 99.468C98.628 99.2448 98.968 99.226 99.1902 99.4222C100.001 100.146 100.673 100.995 101.179 101.953C101.318 102.216 101.219 102.541 100.96 102.681C100.879 102.724 100.794 102.746 100.708 102.746L100.705 102.743ZM57.1015 102.45C56.7053 102.45 56.3064 102.423 55.9129 102.372C55.6184 102.332 55.4123 102.063 55.4525 101.767C55.4926 101.471 55.763 101.264 56.0548 101.304C56.9945 101.431 57.9662 101.385 58.8818 101.173C59.1709 101.106 59.4573 101.286 59.5243 101.576C59.5912 101.866 59.4118 102.154 59.1227 102.221C58.4642 102.375 57.7842 102.45 57.1042 102.45H57.1015ZM130.498 102.415C130.233 102.415 130.003 102.219 129.968 101.947C129.928 101.651 130.134 101.382 130.429 101.342C131.374 101.216 132.279 100.923 133.116 100.468C133.376 100.328 133.703 100.425 133.842 100.686C133.981 100.947 133.885 101.275 133.625 101.415C132.672 101.931 131.644 102.267 130.568 102.41C130.544 102.412 130.52 102.415 130.496 102.415H130.498ZM127.484 102.275C127.444 102.275 127.404 102.27 127.363 102.262C126.309 102.017 125.316 101.59 124.413 100.985C124.167 100.82 124.1 100.484 124.266 100.237C124.429 99.9896 124.764 99.9224 125.01 100.089C125.805 100.622 126.678 101.001 127.604 101.213C127.894 101.28 128.073 101.568 128.006 101.858C127.95 102.108 127.728 102.275 127.484 102.275ZM117.63 102.02C117.333 102.02 117.094 101.778 117.094 101.482V99.3389C117.094 98.9678 117.159 98.6075 117.29 98.2633C117.394 97.9837 117.702 97.8439 117.98 97.9487C118.256 98.0536 118.398 98.3628 118.294 98.6425C118.211 98.8656 118.168 99.0996 118.168 99.3389V101.482C118.168 101.78 117.927 102.02 117.632 102.02H117.63ZM53.1127 101.442C53.0271 101.442 52.9414 101.42 52.8584 101.377C51.9054 100.864 51.0621 100.186 50.35 99.3658C50.1546 99.1426 50.1787 98.8011 50.4009 98.6075C50.6231 98.4112 50.9631 98.4354 51.1558 98.6586C51.7849 99.3819 52.5265 99.9762 53.3644 100.431C53.624 100.57 53.7231 100.898 53.5812 101.159C53.4848 101.339 53.3001 101.442 53.11 101.442H53.1127ZM61.7757 101.03C61.6017 101.03 61.433 100.947 61.3286 100.791C61.1653 100.544 61.2296 100.21 61.4758 100.043C62.2682 99.511 62.9536 98.8468 63.5104 98.0697C63.6844 97.8304 64.019 97.7739 64.2573 97.946C64.4982 98.1208 64.5518 98.4569 64.3804 98.6962C63.7487 99.5782 62.9696 100.334 62.0701 100.936C61.9791 100.998 61.8747 101.028 61.773 101.028L61.7757 101.03ZM87.719 100.326C87.5691 100.326 87.4218 100.264 87.3148 100.143C87.1193 99.9197 87.1434 99.5782 87.3656 99.3846C88.1821 98.6667 89.1111 98.1101 90.123 97.7309C90.4014 97.6261 90.7093 97.7686 90.8137 98.0455C90.9181 98.3225 90.7762 98.6344 90.5004 98.7393C89.609 99.0727 88.7925 99.5648 88.075 100.197C87.9733 100.285 87.8475 100.328 87.7217 100.328L87.719 100.326ZM135.732 99.5863C135.606 99.5863 135.48 99.5432 135.381 99.4545C135.159 99.2582 135.135 98.9194 135.33 98.6962C135.959 97.9729 136.447 97.1528 136.779 96.2574C136.88 95.9778 137.191 95.8379 137.467 95.9401C137.745 96.045 137.884 96.3542 137.783 96.6312C137.405 97.6476 136.851 98.5806 136.139 99.4007C136.032 99.5217 135.885 99.5863 135.735 99.5863H135.732ZM122.539 98.9678C122.373 98.9678 122.21 98.8898 122.103 98.7446C121.993 98.5914 121.886 98.4327 121.787 98.2714C121.431 97.704 120.815 97.3652 120.138 97.3625C119.841 97.3625 119.603 97.1205 119.603 96.8221C119.603 96.5263 119.844 96.2843 120.138 96.2843C121.185 96.2843 122.141 96.814 122.692 97.696C122.78 97.8385 122.874 97.9756 122.97 98.1128C123.144 98.3548 123.088 98.6909 122.85 98.863C122.756 98.9302 122.646 98.9651 122.537 98.9651L122.539 98.9678ZM68.6932 98.9517C68.4763 98.9517 68.2729 98.8172 68.1926 98.6021C67.9061 97.8358 67.1673 97.3195 66.3508 97.3195C66.0536 97.3195 65.8153 97.0775 65.8153 96.7817C65.8153 96.486 66.0536 96.244 66.3508 96.244C67.6116 96.244 68.7547 97.0399 69.1965 98.223C69.3009 98.5026 69.159 98.8119 68.8832 98.9167C68.8217 98.9409 68.7574 98.9517 68.6958 98.9517H68.6932ZM96.2508 98.7904C96.1865 98.7904 96.1223 98.7796 96.058 98.7554C95.2629 98.4489 94.4304 98.2768 93.5791 98.2445C93.4773 98.2391 93.3783 98.2391 93.2792 98.2391C92.9821 98.2391 92.7438 97.9971 92.7438 97.6987C92.7438 97.4029 92.9848 97.1609 93.2792 97.1609C93.3917 97.1609 93.5041 97.1609 93.6192 97.1689C94.5856 97.2066 95.5333 97.4029 96.4381 97.7497C96.7139 97.8573 96.8531 98.1665 96.746 98.4435C96.663 98.6586 96.4622 98.7904 96.2454 98.7904H96.2508ZM49.2069 96.9458C48.9901 96.9458 48.7866 96.8113 48.7036 96.5962C48.3288 95.5905 48.1388 94.5311 48.1388 93.4475C48.1388 93.149 48.3797 92.8963 48.6742 92.8963C48.9686 92.8963 49.2096 93.1248 49.2096 93.4206V93.4448C49.2096 94.3994 49.3756 95.3324 49.7048 96.2171C49.8092 96.4967 49.6674 96.8059 49.3916 96.9108C49.33 96.935 49.2658 96.9458 49.2042 96.9458H49.2069ZM137.807 93.996C137.512 93.996 137.271 93.7567 137.271 93.4582C137.271 93.3615 137.271 93.2646 137.266 93.1678C137.231 92.3101 137.06 91.4685 136.755 90.6699C136.647 90.3929 136.787 90.081 137.062 89.9761C137.338 89.8686 137.649 90.0084 137.753 90.2853C138.101 91.1942 138.297 92.1514 138.334 93.1248C138.339 93.2351 138.342 93.3453 138.342 93.4582C138.342 93.7567 138.104 93.996 137.807 93.9987V93.996ZM49.2283 90.9791C49.1641 90.9791 49.0998 90.9683 49.0356 90.9441C48.7598 90.8366 48.6206 90.5273 48.7277 90.2504C49.1132 89.2394 49.6754 88.3117 50.3955 87.4943C50.5909 87.2711 50.9309 87.2522 51.1531 87.4485C51.3753 87.6448 51.3941 87.9863 51.1986 88.2095C50.5642 88.9301 50.0689 89.7475 49.7289 90.6376C49.6459 90.8527 49.4452 90.9845 49.2283 90.9845V90.9791ZM120.068 90.6887H120.055C118.794 90.6564 117.67 89.8309 117.26 88.6317C117.164 88.352 117.314 88.0455 117.592 87.9487C117.873 87.8519 118.176 88.0025 118.272 88.2821C118.537 89.0565 119.265 89.5916 120.082 89.6131C120.376 89.6212 120.612 89.8686 120.604 90.1643C120.596 90.4574 120.358 90.6887 120.068 90.6887ZM66.3508 90.6483C65.3067 90.6483 64.3403 90.1079 63.7674 89.2044C63.6951 89.0915 63.6202 88.9785 63.5425 88.8683C63.3712 88.6263 63.4301 88.2902 63.671 88.1181C63.912 87.946 64.2466 88.0051 64.4179 88.2471C64.5063 88.3708 64.5919 88.4999 64.6722 88.629C65.047 89.2205 65.6735 89.5755 66.3508 89.5755H66.3963C66.3963 89.5755 66.407 89.5755 66.4096 89.5755C66.6988 89.5755 66.937 89.8067 66.9451 90.0998C66.9531 90.3956 66.7202 90.643 66.423 90.651H66.3481L66.3508 90.6483ZM122.499 89.1372C122.392 89.1372 122.285 89.1049 122.191 89.0377C121.95 88.8656 121.892 88.5295 122.063 88.2875C122.689 87.4001 123.46 86.6419 124.357 86.0315C124.601 85.8648 124.935 85.9293 125.101 86.174C125.267 86.4214 125.203 86.7548 124.959 86.9215C124.17 87.4593 123.49 88.1288 122.938 88.9086C122.834 89.0565 122.668 89.1345 122.502 89.1345L122.499 89.1372ZM68.7146 88.957C68.6557 88.957 68.5968 88.9463 68.5379 88.9274C68.2595 88.8306 68.1096 88.5241 68.2059 88.2418C68.2782 88.0347 68.313 87.8169 68.313 87.5937V85.3835C68.313 85.085 68.554 84.8457 68.8484 84.8457C69.1429 84.8457 69.3839 85.0877 69.3839 85.3835V87.5937C69.3839 87.9352 69.3276 88.2713 69.2179 88.594C69.1402 88.8172 68.9341 88.957 68.7119 88.957H68.7146ZM135.684 88.4246C135.537 88.4246 135.389 88.3628 135.282 88.2444C134.648 87.5265 133.901 86.9323 133.06 86.4832C132.798 86.3434 132.699 86.018 132.838 85.7545C132.977 85.4937 133.301 85.3942 133.564 85.5313C134.517 86.0395 135.365 86.7118 136.083 87.5292C136.278 87.7524 136.259 88.0912 136.037 88.2902C135.935 88.3816 135.81 88.4246 135.681 88.4246H135.684ZM61.8212 86.9726C61.7168 86.9726 61.6124 86.943 61.5213 86.8812C60.7289 86.3434 59.8589 85.9589 58.9353 85.7384C58.6462 85.6685 58.4695 85.3808 58.5391 85.0904C58.6087 84.8 58.8952 84.6225 59.1843 84.6924C60.2364 84.9425 61.2242 85.3808 62.1237 85.9911C62.37 86.1579 62.4315 86.4913 62.2682 86.7387C62.1638 86.8919 61.9952 86.9753 61.8239 86.9753L61.8212 86.9726ZM53.1663 86.5074C52.9735 86.5074 52.7888 86.4052 52.6924 86.2224C52.5532 85.9589 52.6523 85.6335 52.9119 85.4937C53.8703 84.9801 54.901 84.6521 55.9745 84.5149C56.269 84.4773 56.5367 84.687 56.5742 84.9801C56.6116 85.2732 56.4028 85.5448 56.111 85.5824C55.1687 85.7034 54.2612 85.9911 53.4179 86.4429C53.3376 86.4859 53.2519 86.5074 53.1663 86.5074ZM117.63 85.9589C117.333 85.9589 117.094 85.7169 117.094 85.4211V82.3719C117.094 82.0734 117.335 81.8341 117.63 81.8341C117.924 81.8341 118.165 82.0761 118.165 82.3719V85.4211C118.165 85.7196 117.924 85.9589 117.63 85.9589ZM127.42 85.7922C127.176 85.7922 126.957 85.6255 126.9 85.3781C126.831 85.0877 127.01 84.8 127.297 84.73C128.102 84.5364 128.935 84.4558 129.778 84.4934C130.019 84.5042 130.263 84.5257 130.504 84.5553C130.798 84.5929 131.004 84.8618 130.969 85.1576C130.932 85.4534 130.662 85.6604 130.37 85.6255C130.158 85.5986 129.944 85.5797 129.733 85.5717C128.991 85.5394 128.255 85.6093 127.546 85.7787C127.503 85.7895 127.463 85.7949 127.42 85.7949V85.7922ZM68.8511 82.8747C68.554 82.8747 68.3157 82.6327 68.3157 82.3369V79.2877C68.3157 78.9892 68.5566 78.7499 68.8511 78.7499C69.1456 78.7499 69.3865 78.9919 69.3865 79.2877V82.3369C69.3865 82.6354 69.1456 82.8747 68.8511 82.8747ZM117.63 79.8604C117.333 79.8604 117.094 79.6184 117.094 79.3227V76.2734C117.094 75.975 117.335 75.7356 117.63 75.7356C117.924 75.7356 118.165 75.9776 118.165 76.2734V79.3227C118.165 79.6211 117.924 79.8604 117.63 79.8604ZM68.8511 76.7736C68.554 76.7736 68.3157 76.5316 68.3157 76.2358V74.5767C68.3157 74.0685 68.3773 73.5603 68.5004 73.0682C68.5727 72.7805 68.8645 72.6058 69.1509 72.6784C69.4374 72.751 69.6114 73.044 69.5391 73.3318C69.4374 73.7351 69.3865 74.1546 69.3865 74.5767V76.2358C69.3865 76.5342 69.1456 76.7736 68.8511 76.7736ZM117.469 73.7754C117.228 73.7754 117.009 73.6114 116.95 73.364C116.73 72.4686 116.27 71.6485 115.617 70.9924C115.408 70.7827 115.408 70.4412 115.617 70.2314C115.825 70.0217 116.165 70.0217 116.374 70.2314C117.164 71.0274 117.723 72.0196 117.988 73.1059C118.058 73.3936 117.884 73.6867 117.595 73.7566C117.552 73.7674 117.509 73.7727 117.466 73.7727L117.469 73.7754ZM70.5109 71.1242C70.3717 71.1242 70.2352 71.0704 70.1308 70.9655C69.9219 70.7531 69.9246 70.4143 70.1361 70.2046C70.9339 69.414 71.9271 68.8601 73.0086 68.5993C73.295 68.5321 73.5842 68.7095 73.6538 68.9972C73.7234 69.285 73.544 69.5754 73.2575 69.6453C72.3661 69.8604 71.5469 70.3175 70.8884 70.9682C70.7839 71.0704 70.6474 71.1242 70.5109 71.1242ZM113.387 69.6695C113.344 69.6695 113.301 69.6641 113.258 69.6533C112.865 69.5565 112.46 69.5081 112.051 69.5081H110.362C110.064 69.5081 109.826 69.2661 109.826 68.9703C109.826 68.6746 110.067 68.4326 110.362 68.4326H112.051C112.543 68.4326 113.036 68.4917 113.512 68.61C113.799 68.6799 113.976 68.973 113.906 69.2607C113.847 69.5054 113.628 69.6695 113.387 69.6695ZM107.326 69.5081H104.29C103.993 69.5081 103.755 69.2661 103.755 68.9703C103.755 68.6746 103.995 68.4326 104.29 68.4326H107.326C107.623 68.4326 107.861 68.6746 107.861 68.9703C107.861 69.2661 107.62 69.5081 107.326 69.5081ZM101.254 69.5081H99.0858C98.7297 69.5081 98.3844 69.4463 98.0524 69.328C97.774 69.2258 97.6294 68.9193 97.7312 68.6396C97.8329 68.36 98.1381 68.2175 98.4165 68.3169C98.6307 68.3949 98.8555 68.4353 99.0858 68.4353H101.254C101.551 68.4353 101.79 68.6773 101.79 68.973C101.79 69.2688 101.549 69.5108 101.254 69.5108V69.5081ZM85.2641 69.5081H82.2284C81.9312 69.5081 81.6929 69.2661 81.6929 68.9703C81.6929 68.6746 81.9339 68.4326 82.2284 68.4326H85.2641C85.5613 68.4326 85.7995 68.6746 85.7995 68.9703C85.7995 69.2661 85.5586 69.5081 85.2641 69.5081ZM79.1926 69.5081H76.1568C75.8596 69.5081 75.6214 69.2661 75.6214 68.9703C75.6214 68.6746 75.8623 68.4326 76.1568 68.4326H79.1926C79.4897 68.4326 79.728 68.6746 79.728 68.9703C79.728 69.2661 79.4871 69.5081 79.1926 69.5081ZM88.2838 69.3602C88.0643 69.3602 87.8582 69.2231 87.7806 69.0053C87.6815 68.7257 87.8261 68.4164 88.1045 68.3169C88.8728 68.04 89.3948 67.3032 89.4055 66.4831C89.4082 66.1846 89.6599 65.9399 89.949 65.9507C90.2461 65.9534 90.4817 66.1981 90.479 66.4966C90.463 67.763 89.6572 68.9031 88.4712 69.3307C88.4123 69.3522 88.3508 69.3629 88.2892 69.3629L88.2838 69.3602ZM96.5827 67.0074C96.2856 67.0074 96.0473 66.7789 96.0473 66.4831H96.5827L96.0473 66.4724C96.0473 65.4075 96.5854 64.4368 97.4849 63.8614C97.608 63.7834 97.7258 63.7028 97.8436 63.6194C98.0845 63.4446 98.4192 63.5011 98.5905 63.7431C98.7618 63.9851 98.7083 64.3212 98.4674 64.4933C98.3335 64.5901 98.197 64.6815 98.0578 64.7703C97.4688 65.1467 97.1154 65.7759 97.1154 66.4562C97.1154 66.7547 96.8745 67.0074 96.58 67.0074H96.5827ZM88.3722 64.6009C88.2651 64.6009 88.1554 64.5686 88.0617 64.5014C87.1809 63.8695 86.426 63.0924 85.8236 62.1889C85.6577 61.9415 85.7246 61.6081 85.9682 61.4414C86.2118 61.2747 86.5464 61.3419 86.7124 61.5866C87.2452 62.3798 87.9091 63.0655 88.6854 63.6221C88.9263 63.7942 88.9826 64.1303 88.8112 64.3723C88.7068 64.5202 88.5408 64.5982 88.3749 64.5982L88.3722 64.6009ZM100.261 62.4175C100.159 62.4175 100.055 62.3879 99.9638 62.3261C99.7175 62.1593 99.6533 61.8259 99.8193 61.5785C100.352 60.7826 100.732 59.906 100.949 58.9757C101.016 58.6853 101.305 58.5078 101.591 58.575C101.881 58.6422 102.06 58.9327 101.99 59.2204C101.744 60.2771 101.313 61.2747 100.708 62.1782C100.604 62.3341 100.435 62.4148 100.264 62.4148L100.261 62.4175ZM85.0553 59.6479C84.8117 59.6479 84.5922 59.4812 84.5333 59.2338C84.3753 58.5616 84.2977 57.8678 84.2977 57.1714C84.2977 56.7842 84.3218 56.3943 84.37 56.0125C84.4075 55.7167 84.6779 55.5097 84.9697 55.5473C85.2641 55.585 85.4703 55.8539 85.4328 56.1496C85.39 56.4857 85.3685 56.8299 85.3685 57.1687C85.3685 57.7845 85.4381 58.3949 85.5774 58.9864C85.6443 59.2768 85.4649 59.5645 85.1785 59.6345C85.1383 59.6452 85.0955 59.6479 85.0553 59.6479ZM101.618 56.6094C101.353 56.6094 101.123 56.4105 101.088 56.1416C100.965 55.1951 100.673 54.2862 100.221 53.4419C100.082 53.1811 100.178 52.853 100.438 52.7132C100.7 52.5707 101.024 52.6702 101.163 52.931C101.677 53.8936 102.009 54.9262 102.148 56.0017C102.186 56.2975 101.98 56.5664 101.685 56.6041C101.661 56.6067 101.64 56.6094 101.616 56.6094H101.618ZM85.821 53.7296C85.7353 53.7296 85.6496 53.7081 85.5693 53.6651C85.307 53.5253 85.2106 53.1999 85.3498 52.9364C85.8584 51.9791 86.5304 51.1267 87.3442 50.4088C87.5664 50.2125 87.9037 50.234 88.0991 50.4572C88.2946 50.6804 88.2731 51.0192 88.0509 51.2155C87.3335 51.8501 86.7445 52.5976 86.2948 53.4419C86.1984 53.6247 86.0137 53.7269 85.821 53.7269V53.7296ZM98.81 51.3499C98.6842 51.3499 98.5584 51.3069 98.4566 51.2155C97.7365 50.5809 96.9227 50.0861 96.0339 49.75C95.7582 49.6452 95.619 49.3332 95.7234 49.0563C95.8278 48.7793 96.1383 48.6395 96.4141 48.7444C97.4233 49.1289 98.3469 49.6882 99.1634 50.4088C99.3856 50.6051 99.407 50.9439 99.2116 51.1671C99.1045 51.2881 98.9573 51.3499 98.81 51.3499ZM90.2836 49.7877C90.0668 49.7877 89.8633 49.6559 89.783 49.4408C89.6786 49.1638 89.8178 48.8519 90.0962 48.7471C91.1055 48.3652 92.1683 48.1689 93.2551 48.1689C93.5496 48.1689 93.7905 48.4083 93.7905 48.7067C93.7905 49.0052 93.5523 49.2445 93.2551 49.2445C92.2967 49.2445 91.3598 49.4166 90.4737 49.7527C90.4121 49.7769 90.3479 49.7877 90.2836 49.7877Z" fill="#1F1F1F"/>
<path d="M104.595 83.7647C108.057 79.5431 113.186 77.1769 118.342 75.7732C119.555 75.4425 120.778 75.1629 122.012 74.9289C122.588 74.8187 123.166 74.7192 123.747 74.6278C124.328 74.5364 124.818 74.4664 125.332 74.4019C126.999 74.1922 128.675 74.0523 130.354 73.9878C131.491 73.9448 132.627 73.9448 133.759 74.09C136.024 74.3804 138.219 75.1118 140.334 75.9507C140.679 76.0879 141.091 75.8001 141.182 75.4667C141.289 75.0741 141.049 74.7542 140.701 74.6143C137.507 73.3479 134.222 72.482 130.766 72.5896C129.165 72.638 127.567 72.759 125.977 72.9418C120.861 73.528 115.729 74.7058 111.098 77.0236C108.273 78.438 105.639 80.331 103.623 82.7886C103.388 83.0763 103.342 83.485 103.623 83.7674C103.867 84.0121 104.36 84.0578 104.598 83.7674L104.595 83.7647Z" fill="#F953B2"/>
<path d="M103.476 79.5758C103.396 80.3233 103.324 81.0708 103.257 81.821C103.224 82.2029 103.19 82.5847 103.163 82.9665C103.136 83.3483 103.203 83.7517 103.471 84.0609C103.934 84.5933 104.705 84.5933 105.347 84.6713C106.118 84.7627 106.889 84.8568 107.66 84.9482C108.03 84.9913 108.348 84.5987 108.348 84.2572C108.348 83.8458 108.03 83.6092 107.66 83.5661C106.996 83.4855 106.335 83.4075 105.671 83.3268C105.503 83.3053 105.331 83.2865 105.163 83.265C105.085 83.2569 105.007 83.2462 104.932 83.2381C104.882 83.2327 104.724 83.2085 104.852 83.23C104.737 83.2112 104.622 83.187 104.512 83.1521C104.464 83.1359 104.472 83.1386 104.534 83.1628L104.48 83.1332C104.531 83.1789 104.539 83.1843 104.504 83.1521C104.469 83.1171 104.475 83.1252 104.52 83.1789C104.523 83.2031 104.528 83.3161 104.534 83.2273C104.536 83.1655 104.534 83.1037 104.534 83.0445C104.542 82.8832 104.558 82.7191 104.571 82.5578C104.598 82.2378 104.625 81.9152 104.651 81.5952C104.71 80.923 104.777 80.2507 104.849 79.5812C104.89 79.2101 104.504 78.8901 104.161 78.8901C103.755 78.8901 103.514 79.2101 103.473 79.5812L103.476 79.5758Z" fill="#F953B2"/>
<path d="M76.7993 129.019C77.0135 128.589 77.2276 128.159 77.4418 127.729C77.5248 127.562 77.5623 127.379 77.5114 127.196C77.4686 127.035 77.3427 126.863 77.1955 126.782C77.0349 126.696 76.8421 126.656 76.6655 126.712C76.5022 126.766 76.3335 126.871 76.2532 127.029C76.039 127.46 75.8249 127.89 75.6107 128.32C75.5277 128.487 75.4902 128.67 75.5411 128.853C75.5839 129.014 75.7097 129.186 75.857 129.267C76.0176 129.353 76.2103 129.393 76.387 129.337C76.5503 129.283 76.719 129.178 76.7993 129.019Z" fill="#FF009D"/>
<path d="M71.0597 126.645C71.9083 125.989 72.7569 125.336 73.6056 124.68C73.7555 124.564 73.8706 124.456 73.9215 124.265C73.967 124.099 73.9456 123.878 73.8519 123.733C73.7582 123.588 73.6163 123.456 73.4396 123.416C73.2629 123.375 73.0514 123.375 72.9095 123.486C72.0609 124.142 71.2123 124.795 70.3637 125.451C70.2137 125.567 70.0986 125.674 70.0478 125.865C70.0023 126.032 70.0237 126.253 70.1174 126.398C70.2111 126.543 70.3529 126.675 70.5296 126.715C70.7063 126.755 70.9178 126.755 71.0597 126.645Z" fill="#FF009D"/>
<path d="M81.369 127.218C81.5725 127.984 81.8429 128.726 82.1561 129.455C82.2203 129.603 82.4211 129.732 82.5683 129.772C82.7343 129.818 82.9538 129.796 83.0984 129.702C83.243 129.608 83.3741 129.466 83.4143 129.288L83.4384 129.105C83.4384 128.982 83.4063 128.863 83.3447 128.756C83.3233 128.707 83.3045 128.659 83.2831 128.611L83.3527 128.775C83.0904 128.148 82.8709 127.505 82.6968 126.847C82.6031 126.497 82.2016 126.25 81.8482 126.363C81.4948 126.476 81.2673 126.839 81.3663 127.215L81.369 127.218Z" fill="#FF009D"/>
</g>
<defs>
<clipPath id="clip0_169_254">
<rect width="255" height="196" fill="white"/>
</clipPath>
</defs>
</svg>
