<svg width="589" height="496" viewBox="0 0 589 496" fill="none" xmlns="http://www.w3.org/2000/svg">
<g clip-path="url(#clip0_169_332)">
<path d="M93.0149 172.951C77.7261 172.951 65.3335 144.383 65.3335 109.145C65.3335 73.907 77.7261 45.3396 93.0149 45.3396L294.882 65.1976C309.838 66.6697 321.158 77.9845 321.158 91.4552V130.106C321.158 143.761 309.536 155.168 294.352 156.413L93.0088 172.944L93.0149 172.951Z" fill="#FF66C4"/>
<path d="M101.815 52.8479C98.3331 48.0559 94.3583 45.3396 90.1371 45.3396C76.4381 45.3396 65.3335 73.907 65.3335 109.145C65.3335 144.383 76.4381 172.951 90.1371 172.951C94.3583 172.951 98.3392 170.234 101.815 165.442C94.0071 154.7 88.6951 133.518 88.6951 109.145C88.6951 84.7722 94.0071 63.5961 101.815 52.8479Z" fill="#00E8FF"/>
<path d="M101.815 52.8479C94.0071 63.5899 88.6951 84.7722 88.6951 109.145C88.6951 133.518 94.0071 154.694 101.815 165.442C109.623 154.7 114.935 133.518 114.935 109.145C114.935 84.7722 109.623 63.5961 101.815 52.8479Z" fill="#E6F5F2" stroke="black" stroke-width="0.5" stroke-miterlimit="10"/>
<path d="M405.823 88.8313V93.3277L293.243 82.29V145.757L405.823 135.772V139.215C405.823 144.845 409.675 149.409 414.42 149.409C419.165 149.409 423.016 144.845 423.016 139.215V92.8042C423.016 90.6053 421.235 88.8252 419.035 88.8252H406.44" fill="#FF66C4"/>
<path d="M148.125 197.089C132.836 197.089 120.444 168.522 120.444 133.284C120.444 98.0457 132.836 69.4783 148.125 69.4783L349.992 89.3363C364.948 90.8084 376.269 102.123 376.269 115.594V154.244C376.269 167.9 364.646 179.307 349.462 180.551L148.119 197.083L148.125 197.089Z" fill="#FF009D"/>
<path d="M157.578 77.9105C153.949 72.5457 149.74 69.4783 145.247 69.4783C131.548 69.4783 120.444 98.0457 120.444 133.284C120.444 168.522 131.548 197.089 145.247 197.089C149.733 197.089 153.942 194.022 157.578 188.657C150.128 177.65 145.105 156.973 145.105 133.284C145.105 109.595 150.128 88.9174 157.578 77.9105Z" fill="#00E8FF"/>
<path d="M157.578 77.9106C150.128 88.9175 145.105 109.595 145.105 133.284C145.105 156.973 150.128 177.65 157.578 188.657C165.028 177.65 170.051 156.973 170.051 133.284C170.051 109.595 165.028 88.9175 157.578 77.9106Z" fill="#E6F5F2" stroke="black" stroke-width="0.5" stroke-miterlimit="10"/>
<path d="M460.792 115.058V157.509C460.792 159.412 459.251 160.952 457.347 160.952H447.043C445.139 160.952 443.599 159.412 443.599 157.509L331.018 167.493V104.027L443.599 115.064C443.599 112.582 445.614 110.568 448.097 110.568H456.293C458.777 110.568 460.792 112.582 460.792 115.064V115.058Z" fill="#FF009D"/>
<path d="M451.45 123.743C451.745 125.049 451.634 126.17 450.575 127.063C449.626 127.864 448.381 128.245 447.191 128.51C444.492 129.102 441.688 128.954 438.977 129.496C436.265 130.038 433.542 131.498 433.443 134.479C433.351 137.121 436.253 138.883 438.268 139.998C440.937 141.476 443.907 142.307 446.951 142.486C448.504 142.578 448.498 140.164 446.951 140.072C444.517 139.93 442.107 139.277 439.938 138.156C438.903 137.62 437.886 136.992 436.993 136.247C436.179 135.569 435.532 134.805 436.081 133.733C436.629 132.662 437.886 132.243 438.958 131.972C440.222 131.652 441.516 131.535 442.81 131.436C445.386 131.233 448.005 131.073 450.39 129.995C451.573 129.459 452.67 128.627 453.354 127.512C454.186 126.157 454.124 124.599 453.785 123.102C453.44 121.587 451.117 122.228 451.456 123.743H451.45Z" fill="#1F1F1F"/>
<path d="M309.906 63.8055C306.899 68.2587 303.891 72.7182 300.884 77.1714C299.264 79.5736 297.606 81.7787 294.469 82.2345C289.416 82.9736 284.961 78.3787 285.873 73.3526C286.242 71.3261 287.629 69.4968 288.683 67.7598C290.39 64.9573 292.097 62.1486 293.804 59.3461C295.412 56.6975 297.02 54.0551 298.629 51.4066C300.015 49.1214 301.402 46.9348 303.429 45.1239C307.509 41.4714 312.488 40.4058 317.794 40.4058C319.63 40.4058 321.516 40.2457 323.235 41.0033C325.836 42.1489 327.389 44.6989 327.463 47.4953C327.524 49.8236 331.024 49.8297 331.08 47.4953C331.178 43.6334 334.229 40.3935 338.173 40.4058C342.117 40.4181 345.167 43.621 345.266 47.4953C345.327 49.8236 348.828 49.8297 348.883 47.4953C348.982 43.6334 352.032 40.3935 355.976 40.4058C359.92 40.4181 362.97 43.621 363.069 47.4953C363.13 49.8236 366.631 49.8297 366.686 47.4953C366.785 43.6888 369.743 40.4797 373.631 40.4058C377.458 40.3319 380.625 43.4732 380.86 47.2428C381.007 49.6018 380.872 52.004 380.872 54.3631C380.872 64.5939 380.872 74.8185 380.872 85.0493C380.872 87.8703 380.872 90.6914 380.872 93.5062C380.872 95.2617 383.38 96.0193 384.243 94.4178C386.498 90.2602 388.754 86.1026 391.009 81.9388C392.309 79.5366 393.911 77.5287 396.777 76.9805C401.054 76.1613 405.256 79.4073 405.497 83.7743C405.669 86.9588 403.377 90.3341 402.04 93.0935C399.575 98.1997 397.11 103.306 394.645 108.412C390.627 116.733 386.665 125.079 382.554 133.345C371.696 155.174 361.886 177.515 352.796 200.138C348.723 210.27 344.773 220.458 340.718 230.597C336.663 240.741 332.657 250.916 329.04 261.227C321.879 281.652 315.982 302.982 315.397 324.743C314.897 343.314 318.003 365.697 335.517 376.15C351.015 385.395 370.766 379.895 385.907 372.768C402.261 365.069 417.329 353.933 429.881 340.955C444.653 325.68 456.219 307.515 465.21 288.329C467.398 283.66 469.431 278.923 471.342 274.144C472.204 271.982 468.704 271.045 467.848 273.183C459.948 292.93 449.669 311.956 436.155 328.457C424.335 342.895 410.008 355.134 393.862 364.496C385.857 369.134 377.359 373.095 368.375 375.423C360.222 377.536 351.471 378.263 343.331 375.694C334.377 372.867 327.857 365.747 323.987 357.394C319.797 348.365 318.977 337.931 318.971 328.1C318.952 306.314 324.714 284.88 331.758 264.418C338.801 243.956 347.182 223.914 355.193 203.815C364.27 181.056 374.087 158.587 384.951 136.622C389.142 128.159 393.221 119.641 397.332 111.141C399.834 105.954 402.342 100.762 404.844 95.5758C406.15 92.8656 407.949 90.0015 408.744 87.0696C411.203 77.9537 401.306 70.1743 393.006 74.5106C390.535 75.804 389.062 77.9229 387.78 80.2943C386.424 82.8011 385.062 85.3019 383.707 87.8088C382.844 89.404 381.981 90.9932 381.112 92.5885L384.483 93.5001C384.483 85.0801 384.483 76.6602 384.483 68.2464C384.483 62.9986 384.483 57.7508 384.483 52.5029C384.483 48.8689 384.847 45.1116 382.819 41.8718C380.317 37.8743 375.449 35.8971 370.877 37.166C366.224 38.4595 363.174 42.7341 363.05 47.483H366.668C366.514 41.6623 361.892 36.7718 355.951 36.7718C350.011 36.7718 345.389 41.6623 345.235 47.483H348.852C348.698 41.6623 344.076 36.7718 338.136 36.7718C332.195 36.7718 327.574 41.6623 327.419 47.483H331.037C330.883 41.687 326.409 36.9812 320.561 36.7779C316.327 36.6301 311.958 36.6732 307.959 38.2069C303.17 40.0424 299.239 43.3747 296.558 47.7417C295.196 49.9591 293.853 52.1826 292.503 54.4062C290.464 57.7569 288.424 61.1077 286.384 64.4645C285.183 66.4356 283.722 68.425 282.865 70.587C280.758 75.9149 283.186 82.2776 288.381 84.7598C293.52 87.2174 299.448 85.4435 302.678 80.8548C306.209 75.8472 309.542 70.6856 312.969 65.604C314.275 63.67 311.138 61.8529 309.844 63.7747L309.906 63.8055Z" fill="#1F1F1F"/>
<path d="M309.659 60.0913C309.659 69.5522 309.659 79.0131 309.659 88.474C309.659 90.7653 309.659 93.0627 309.659 95.354C309.659 96.5551 309.641 97.399 309.16 98.5015C308.612 99.7642 307.922 100.978 307.305 102.209C305.327 106.17 303.361 110.131 301.408 114.103C293.335 130.512 285.466 147.019 277.905 163.668C262.918 196.67 248.689 230.258 237.332 264.701C226.529 297.445 219.541 331.556 220.823 366.172C221.778 392.029 228.532 418.028 241.799 440.35C254.802 462.222 274.281 479.85 298.265 488.793C326.372 499.277 358.176 497.583 386.369 488.418C415.745 478.864 442.157 461.698 465.605 441.865C491.376 420.067 513.468 394.517 533.329 367.311C540.471 357.53 547.053 347.829 552.987 337.302C561.282 322.594 568.689 307.337 574.777 291.581C581.759 273.515 587.348 254.249 587.706 234.754C588.026 217.292 583.201 199.467 569.656 187.622C565.25 183.773 559.932 181.481 555.187 178.1C551.28 175.316 547.632 171.953 545.204 167.777C541.051 160.638 541.636 152.261 542.523 144.371C544.606 125.775 548.174 104.439 536.127 88.3877C525.743 74.5413 508.741 65.7334 491.967 62.5305C475.908 59.4631 457.242 61.4587 445.743 74.295C442.847 77.5287 440.579 81.2366 438.897 85.2279C436.697 90.4635 435.68 96.1425 434.17 101.594C430.726 114.06 427.965 126.816 426.96 139.733C425.82 154.367 426.769 171.14 436.543 182.966C442.909 190.671 452.442 194.379 462.209 195.174C469.53 195.765 477.03 194.86 484.122 193.012C485.281 192.71 486.44 192.396 487.573 191.995C489.755 191.225 488.818 187.733 486.612 188.503C485.447 188.91 484.252 189.236 483.063 189.544C481.762 189.883 480.45 190.178 479.137 190.443C477.584 190.751 475.581 191.078 474.466 191.213C466.147 192.242 457.452 191.946 449.891 188.565C439.587 183.951 433.868 174.287 431.613 163.502C429.801 154.836 429.968 145.8 430.83 137.029C432.118 123.934 435.181 111.024 438.848 98.4091C440.253 93.5863 441.023 88.7758 443.321 84.2363C445.145 80.633 447.53 77.3747 450.488 74.6214C456.213 69.2997 463.737 66.3616 471.41 65.3022C488.134 62.9924 506.017 68.5113 519.79 77.9105C526.304 82.3577 532.214 88.0182 536.108 94.929C540.798 103.244 541.186 113.118 540.946 122.462C540.699 132.052 538.795 141.476 538.327 151.041C537.926 159.221 539.522 166.988 544.785 173.456C548.045 177.465 552.254 180.656 556.611 183.385C559.217 185.017 562.126 186.255 564.572 188.115C566.292 189.421 567.919 190.85 569.447 192.371C575.369 198.284 579.436 205.719 581.673 213.751C586.535 231.225 583.602 250.202 578.961 267.393C574.143 285.243 566.939 302.409 558.663 318.917C553.609 328.993 548.162 338.904 542.16 348.451C537.711 355.528 532.608 362.242 527.641 368.956C517.529 382.611 506.831 395.848 495.307 408.345C474.201 431.234 450.162 452.034 423.183 467.734C397.116 482.905 367.641 493.056 337.187 492.286C322.853 491.922 308.452 489.323 295.215 483.706C283.808 478.864 273.369 471.88 264.44 463.3C246.224 445.807 234.571 422.401 228.754 398.022C221.673 368.321 223.497 336.84 229.567 307.134C236.475 273.294 249.102 240.772 262.197 208.915C275.84 175.747 291 143.219 306.917 111.079C308.821 107.242 310.763 103.423 312.654 99.5794C313.579 97.7069 313.271 95.6867 313.277 93.6232C313.277 91.4736 313.277 89.324 313.277 87.1743C313.277 78.1446 313.277 69.1149 313.277 60.0852C313.277 57.7569 309.659 57.7508 309.659 60.0852V60.0913Z" fill="#1F1F1F"/>
<path d="M327.463 47.2859V81.446C327.463 83.7743 331.08 83.7805 331.08 81.446V47.2859C331.08 44.9576 327.463 44.9514 327.463 47.2859Z" fill="#1F1F1F"/>
<path d="M345.272 47.4646V81.6247C345.272 83.953 348.889 83.9592 348.889 81.6247V47.4646C348.889 45.1363 345.272 45.1302 345.272 47.4646Z" fill="#1F1F1F"/>
<path d="M363.081 47.6369V81.7971C363.081 84.1254 366.698 84.1315 366.698 81.7971V47.6369C366.698 45.3087 363.081 45.3025 363.081 47.6369Z" fill="#1F1F1F"/>
<path d="M206.544 43.307C208.917 47.1813 211.296 51.0494 213.674 54.9237C215.122 57.2827 216.564 59.6418 218.019 62.0009C220.256 65.6226 223.663 68.4559 228.162 67.7476C233.16 66.9592 237.356 63.1034 238.003 58.0527C236.882 58.3545 235.754 58.6624 234.632 58.9643C237.06 62.9186 239.495 67.1501 244.622 67.7045C247.124 67.9755 249.632 67.0085 251.727 65.6903C254.475 63.9595 256.071 61.2309 256.478 58.0527C255.357 58.3545 254.229 58.6624 253.107 58.9643C253.822 60.1284 254.506 61.311 255.258 62.4566C256.823 64.8403 259.294 66.565 262.111 67.1193C268.273 68.3204 274.158 64.3168 274.959 58.0527L271.588 58.9643C273.425 61.9577 275.113 65.2284 278.441 66.8175C282.6 68.807 287.875 67.2179 290.895 63.8548C293.828 60.5903 294.26 55.903 292.029 52.1396C291.345 50.9878 290.624 49.8545 289.921 48.7088C284.166 39.3342 278.435 29.9472 272.648 20.591C270.541 17.1849 267.238 14.9921 263.115 15.3001C260.798 15.4726 258.043 16.1624 256.133 17.5606C253.785 19.2729 252.996 21.7921 252.682 24.5639L256.053 23.6523C255.338 22.4881 254.654 21.3055 253.902 20.1599C252.337 17.7762 249.866 16.0515 247.05 15.4972C240.887 14.2961 235.002 18.2997 234.201 24.5639L237.572 23.6523C236.857 22.4881 236.173 21.3055 235.421 20.1599C233.856 17.7762 231.385 16.0515 228.569 15.4972C222.406 14.2961 216.521 18.2997 215.72 24.5639L219.091 23.6523C218.284 22.3403 217.538 20.9729 216.645 19.7226C214.827 17.1972 212.004 15.6573 208.923 15.3309C206.156 15.0414 203.42 15.7867 201.331 17.6099C199.433 19.2668 197.781 21.1577 196.333 23.2211C189.746 32.6142 187.916 44.7791 186.874 55.94C185.833 67.144 185.346 78.3849 185.426 89.6259C185.537 105.345 186.005 121.057 186.775 136.758C187.879 159.252 189.61 181.734 192.383 204.086C195.162 226.494 198.817 248.983 205.213 270.676C205.897 272.998 206.618 275.302 207.376 277.599C208.103 279.798 211.604 278.856 210.87 276.638C204.061 256.054 200.166 234.526 197.184 213.092C194.109 190.979 192.192 168.701 190.904 146.416C189.924 129.484 189.327 112.533 189.105 95.5697C189.043 91.1041 189.012 86.6324 189.025 82.1668C189.037 77.886 189.394 73.6237 189.61 69.349C190.171 58.1882 190.75 46.7686 194.183 36.0512C195.754 31.1545 198.016 26.3316 201.504 22.4943C202.249 21.6689 203.05 20.9052 203.888 20.1722C204.726 19.4392 205.583 19.1066 206.822 18.9403C209.416 18.5892 212.201 19.6733 213.711 21.8414C214.525 23.0055 215.215 24.2744 215.954 25.4816C216.971 27.1385 219.109 26.2639 219.325 24.57C219.898 20.1044 224.976 17.924 228.926 19.3592C231.736 20.3816 232.969 23.1041 234.429 25.4816C235.446 27.1385 237.584 26.2639 237.8 24.57C238.373 20.1044 243.451 17.924 247.401 19.3592C250.211 20.3816 251.443 23.1041 252.904 25.4816C253.908 27.12 256.084 26.2823 256.275 24.57C256.466 22.8577 257.027 21.0715 258.512 20.2461C260.108 19.353 262.308 18.8479 264.132 18.9034C266.615 18.9834 268.316 20.511 269.561 22.5251C271.705 26.0052 273.844 29.4976 275.982 32.9838L285.238 48.0559C286.23 49.6697 287.216 51.2773 288.208 52.8911C289.089 54.3262 289.884 55.6936 289.835 57.4614C289.773 59.5617 288.559 61.4958 286.797 62.5983C285.275 63.5469 283.445 64.3907 281.614 64.1012C278.028 63.5284 276.389 59.919 274.688 57.1472C273.671 55.4903 271.533 56.365 271.317 58.0588C270.744 62.5244 265.666 64.7048 261.716 63.2697C258.906 62.2472 257.674 59.5248 256.213 57.1472C255.196 55.4903 253.058 56.365 252.842 58.0588C252.368 61.7791 247.684 64.9697 244.036 63.9472C240.832 63.0541 239.347 59.7527 237.738 57.1411C236.722 55.4842 234.583 56.3588 234.368 58.0527C233.936 61.428 230.171 64.0951 226.985 64.2552C223.91 64.403 222.123 61.7914 220.693 59.4632C218.352 55.6505 216.004 51.8378 213.668 48.019C212.331 45.8385 210.994 43.6581 209.656 41.4838C208.442 39.5005 205.306 41.3175 206.532 43.3132L206.544 43.307Z" fill="#1F1F1F"/>
<path d="M279.797 64.5569C276.561 68.3572 273.326 72.1576 270.091 75.958C269.203 77.0051 267.342 78.5573 267.256 80.017C267.17 81.5384 267.256 83.0967 267.256 84.6181C267.256 92.9703 267.441 101.341 267.244 109.693C267.096 115.853 267.195 122.024 267.392 128.178C267.805 141.082 268.754 153.973 270.239 166.797C272.155 183.311 274.934 199.744 278.946 215.888C283.223 233.103 288.911 250.06 296.768 265.995C304.736 282.132 315.175 297.839 329.114 309.431C336.071 315.221 343.891 319.834 352.426 322.895C361.399 326.117 371.08 327.62 380.601 327.644C391.748 327.675 403.063 325.476 413.6 321.922C418.635 320.228 423.534 318.091 428.39 315.948C433.184 313.829 437.923 311.574 442.551 309.105C451.721 304.202 460.514 298.381 468.014 291.137C471.711 287.565 475.064 283.635 477.966 279.391C480.222 276.096 482.909 270.288 478.829 267.214C474.386 263.87 469.857 269.05 468.051 272.764C467.04 274.852 470.159 276.687 471.175 274.593C472.001 272.887 473.283 270.571 475.199 269.9C476.876 269.315 477.424 271.045 477.27 272.357C477.023 274.372 475.853 276.108 474.731 277.735C473.437 279.613 472.05 281.418 470.571 283.149C464.514 290.244 457.174 296.096 449.287 301.036C441.232 306.08 432.642 310.226 423.922 313.977C414.796 317.9 405.515 321.011 395.699 322.692C378.395 325.649 359.914 323.69 344.292 315.363C329.681 307.577 318.385 294.827 309.475 281.098C300.884 267.855 294.401 253.337 289.317 238.425C284.221 223.495 280.487 208.115 277.677 192.599C275.199 178.9 273.462 165.079 272.328 151.208C271.508 141.162 270.997 131.091 270.849 121.014C270.793 117.091 270.83 113.173 270.886 109.25C271.009 100.472 270.886 91.6891 270.886 82.912C270.886 81.9265 270.886 80.9348 270.886 79.9493C270.707 80.3743 270.535 80.7993 270.356 81.2304C274.361 76.5246 278.361 71.825 282.366 67.1192C283.87 65.3576 281.319 62.783 279.809 64.563L279.797 64.5569Z" fill="#1F1F1F"/>
<path d="M257.717 36.3284C259.276 38.8969 260.841 41.4715 262.4 44.04L269.912 56.4081C270.485 57.3505 271.058 58.2929 271.625 59.2353C272.833 61.2248 275.964 59.4077 274.75 57.4059C273.191 54.8374 271.625 52.2628 270.066 49.6943C267.564 45.5737 265.062 41.4469 262.554 37.3262C261.981 36.3838 261.408 35.4414 260.841 34.499C259.633 32.5095 256.503 34.3266 257.717 36.3284Z" fill="#1F1F1F"/>
<path d="M239.71 36.3284C241.269 38.8969 242.835 41.4715 244.394 44.04C246.896 48.1606 249.398 52.2874 251.906 56.4081C252.479 57.3505 253.052 58.2929 253.619 59.2353C254.827 61.2248 257.957 59.4077 256.743 57.4059C255.184 54.8374 253.619 52.2628 252.06 49.6943C249.558 45.5737 247.056 41.4469 244.548 37.3262C243.975 36.3838 243.402 35.4414 242.835 34.499C241.627 32.5095 238.496 34.3266 239.71 36.3284Z" fill="#1F1F1F"/>
<path d="M221.235 36.3284C222.795 38.8969 224.36 41.4715 225.919 44.04C228.421 48.1606 230.923 52.2874 233.431 56.4081C234.004 57.3505 234.577 58.2929 235.144 59.2353C236.352 61.2248 239.482 59.4077 238.268 57.4059C236.709 54.8374 235.144 52.2628 233.585 49.6943C231.083 45.5737 228.581 41.4469 226.073 37.3262C225.5 36.3838 224.927 35.4414 224.36 34.499C223.152 32.5095 220.021 34.3266 221.235 36.3284Z" fill="#1F1F1F"/>
<path d="M464.169 191.669C458.69 191.176 453.187 190.93 447.691 190.733C443.476 190.585 439.193 190.295 434.971 190.511C426.387 190.954 418.259 194.342 411.172 199.066C403.648 204.074 397.104 210.449 391.249 217.304C385.66 223.852 380.644 230.88 376.059 238.154C372.738 243.427 369.632 248.847 366.748 254.372C366.52 254.815 366.286 255.259 366.058 255.696C365.608 256.565 365.83 257.661 366.705 258.172C367.512 258.647 368.732 258.394 369.182 257.525C371.801 252.438 374.599 247.436 377.587 242.552C381.864 235.555 386.621 228.632 391.631 222.472C394.442 219.023 397.399 215.691 400.555 212.549C402.138 210.973 403.765 209.451 405.447 207.985C406.249 207.289 407.056 206.612 407.882 205.946C408.806 205.201 409.324 204.801 410.297 204.086C413.699 201.586 417.316 199.368 421.168 197.625C421.408 197.514 421.648 197.41 421.889 197.305C421.993 197.256 422.104 197.212 422.209 197.169C421.938 197.28 422.209 197.169 422.258 197.151C422.739 196.954 423.226 196.763 423.719 196.578C424.693 196.215 425.679 195.888 426.671 195.592C427.632 195.309 428.606 195.063 429.586 194.853C430.06 194.749 430.535 194.656 431.015 194.576C431.243 194.539 431.465 194.502 431.693 194.465C431.835 194.441 431.977 194.422 432.118 194.404C432.248 194.385 432.5 194.354 432.229 194.385C436.161 193.892 440.154 194.127 444.098 194.244C449.527 194.404 454.956 194.619 460.379 194.995C461.642 195.081 462.899 195.18 464.163 195.297C465.136 195.383 465.974 194.404 465.974 193.486C465.974 192.433 465.142 191.767 464.163 191.675L464.169 191.669Z" fill="#1F1F1F"/>
<path d="M464.169 193.48C455.301 194.01 442.04 192.334 437.221 192.273C437.221 192.273 468.193 222.423 495.548 199.103C501.18 192.673 508.421 183.021 508.421 183.021C508.421 183.021 491.123 191.866 464.169 193.474V193.48Z" fill="#1F1F1F"/>
<path d="M464.169 191.669C456.62 192.106 449.04 191.256 441.522 190.702C440.092 190.597 438.657 190.486 437.221 190.468C435.662 190.443 434.823 192.47 435.939 193.554C437.683 195.247 439.642 196.757 441.596 198.204C445.965 201.432 450.698 204.142 455.72 206.217C461.796 208.724 468.445 210.147 475.033 209.679C482.946 209.119 490.698 205.842 496.626 200.557C497.378 199.886 498.006 199.023 498.653 198.253C499.337 197.44 500.009 196.627 500.681 195.808C501.975 194.225 503.251 192.63 504.514 191.028C506.264 188.805 507.996 186.563 509.703 184.302C509.795 184.185 509.881 184.062 509.974 183.945C510.448 183.311 510.214 182.276 509.69 181.752C509.099 181.161 508.217 181.099 507.496 181.469C506.88 181.783 506.245 182.066 505.617 182.344C505.457 182.411 505.303 182.485 505.142 182.553C504.951 182.633 504.397 182.861 504.921 182.651C504.489 182.824 504.064 183.009 503.639 183.175C502.597 183.594 501.556 183.988 500.502 184.37C493.89 186.76 487.043 188.528 480.129 189.778C474.854 190.733 469.524 191.355 464.169 191.681C463.195 191.743 462.357 192.47 462.357 193.492C462.357 194.428 463.189 195.358 464.169 195.303C473.326 194.749 482.446 193.344 491.32 191.01C496.614 189.618 501.827 187.893 506.856 185.731C507.687 185.374 508.526 185.011 509.333 184.598C508.507 183.773 507.681 182.947 506.856 182.122C503.435 186.68 499.978 191.096 496.176 195.611C495.554 196.35 494.956 197.163 494.266 197.834C493.576 198.506 492.694 199.122 491.893 199.701C490.297 200.846 488.621 201.881 486.865 202.768C483.796 204.32 480.388 205.392 476.876 205.879C476.66 205.909 476.826 205.879 476.876 205.879C476.746 205.897 476.617 205.909 476.487 205.928C476.296 205.953 476.099 205.971 475.908 205.99C475.489 206.033 475.076 206.063 474.657 206.088C473.831 206.137 472.999 206.156 472.174 206.15C471.348 206.144 470.541 206.1 469.727 206.039C469.327 206.008 468.92 205.971 468.519 205.922C468.334 205.903 468.15 205.879 467.965 205.854C467.965 205.854 467.657 205.811 467.835 205.836C467.996 205.854 467.65 205.811 467.62 205.805C464.52 205.343 461.488 204.536 458.555 203.452C456.996 202.873 456.17 202.528 454.716 201.844C453.44 201.247 452.183 200.6 450.944 199.916C448.787 198.721 446.692 197.397 444.677 195.974C444.24 195.666 443.808 195.358 443.383 195.038C443.18 194.89 442.983 194.742 442.785 194.588C442.644 194.478 442.077 194.04 442.502 194.373C441.861 193.868 441.22 193.363 440.598 192.839C439.92 192.266 439.285 191.632 438.595 191.071C438.564 191.047 438.533 191.016 438.509 190.985C438.083 192.014 437.658 193.042 437.227 194.071C440.135 194.114 443.038 194.422 445.934 194.65C449.878 194.958 453.822 195.247 457.778 195.346C459.911 195.401 462.043 195.401 464.175 195.278C465.149 195.223 465.987 194.49 465.987 193.467C465.987 192.531 465.155 191.601 464.175 191.657L464.169 191.669Z" fill="#1F1F1F"/>
<path d="M440.031 55.9707C440.031 55.9707 423.54 72.8598 428.766 83.3124C436.734 99.2406 459.337 92.1573 459.337 92.1573C459.337 92.1573 456.521 110.248 480.253 102.209C480.253 111.054 487.093 120.706 499.159 112.262C511.225 103.817 506.8 145.633 499.159 154.078C506.8 155.285 513.745 117.374 524.498 121.507C545.414 129.551 531.185 151.984 522.619 158.174C526.674 163.397 546.855 169.815 546.547 158.106C548.797 159.591 551.927 159.061 554.139 157.515C556.352 155.969 557.818 153.598 559.143 151.251C566.495 138.193 571.339 122.881 570.014 107.765C569.022 96.4997 562.058 84.5504 550.251 82.5055C542.61 42.7033 471.41 22.9993 440.031 55.9707Z" fill="#1F1F1F"/>
<path d="M438.749 54.6957C436.389 57.1163 434.275 59.8203 432.346 62.5859C429.154 67.1685 426.11 72.6073 425.937 78.3294C425.759 84.3348 430.128 89.7982 435.206 92.57C439.827 95.0953 445.269 95.779 450.464 95.4649C453.588 95.2801 456.817 94.8366 459.818 93.9004C459.079 93.1613 458.333 92.416 457.593 91.6769C457.254 93.8758 457.402 96.2287 458.074 98.3475C458.653 100.177 459.646 101.926 461.1 103.207C463.047 104.913 465.45 105.714 468.002 105.991C472.285 106.447 476.715 105.308 480.739 103.959C479.975 103.38 479.211 102.795 478.447 102.216C478.484 108.997 482.243 116.659 489.724 117.3C491.653 117.466 493.662 117.054 495.449 116.339C496.607 115.877 497.717 115.335 498.783 114.682C499.461 114.27 500.095 113.777 500.786 113.383C500.952 113.29 501.137 113.216 501.297 113.118C501.531 112.982 500.872 113.259 501.205 113.155C501.303 113.124 501.402 113.087 501.5 113.056C501.648 113.013 501.815 112.995 501.963 112.945C502.215 112.859 501.463 112.958 501.79 112.97C501.876 112.97 501.969 112.964 502.055 112.958C502.129 112.958 502.209 112.976 502.277 112.964C502.486 112.933 501.845 112.853 502.043 112.927C502.16 112.976 502.357 113.019 502.486 113.044C502.733 113.087 502.246 112.921 502.277 112.952C502.314 112.995 502.419 113.019 502.468 113.05C502.529 113.087 502.591 113.13 502.653 113.167C502.967 113.346 502.486 113.105 502.517 113.05C502.517 113.05 502.831 113.34 502.856 113.364C502.912 113.42 502.961 113.481 503.016 113.543C503.275 113.82 502.93 113.426 502.93 113.426C503.01 113.401 503.442 114.257 503.485 114.344C503.528 114.43 503.565 114.522 503.608 114.608C503.774 114.929 503.478 114.251 503.577 114.528C503.645 114.725 503.731 114.923 503.799 115.12C503.947 115.551 504.07 115.994 504.175 116.438C504.292 116.931 504.391 117.423 504.471 117.922C504.489 118.052 504.508 118.187 504.532 118.316C504.6 118.741 504.501 118.027 504.538 118.353C504.569 118.631 504.606 118.908 504.631 119.191C504.754 120.398 504.81 121.618 504.828 122.831C504.865 125.554 504.699 128.282 504.403 130.992C504.366 131.35 504.323 131.707 504.28 132.064C504.255 132.243 504.236 132.421 504.212 132.6C504.2 132.692 504.138 133.167 504.163 132.976C504.193 132.766 504.119 133.271 504.107 133.352C504.082 133.53 504.058 133.709 504.027 133.887C503.971 134.245 503.916 134.602 503.861 134.965C503.633 136.382 503.368 137.792 503.066 139.197C502.505 141.796 501.827 144.371 500.933 146.878C500.742 147.414 500.539 147.943 500.33 148.473C500.311 148.528 500.12 148.972 500.237 148.701C500.342 148.448 500.175 148.842 500.138 148.923C500.028 149.169 499.917 149.409 499.806 149.656C499.393 150.518 498.937 151.362 498.395 152.15C498.284 152.31 497.828 152.797 498.253 152.36C498.117 152.495 498.006 152.661 497.877 152.803C497.076 153.702 497.224 155.618 498.678 155.827C500.94 156.154 502.727 154.922 504.107 153.228C505.796 151.152 507.04 148.75 508.211 146.354C511.009 140.607 513.283 134.577 516.549 129.071C516.912 128.461 517.288 127.857 517.689 127.266C517.874 126.995 518.059 126.73 518.25 126.465C518.342 126.336 518.441 126.213 518.533 126.083C518.675 125.886 518.311 126.354 518.465 126.17C518.527 126.096 518.582 126.022 518.644 125.948C519.02 125.486 519.414 125.036 519.846 124.617C520.037 124.427 520.234 124.248 520.437 124.075C520.487 124.032 520.856 123.731 520.591 123.94C520.326 124.149 520.715 123.854 520.789 123.804C520.986 123.669 521.189 123.54 521.399 123.423C521.497 123.367 521.608 123.318 521.707 123.262C521.374 123.355 522.089 123.059 521.707 123.262C521.904 123.207 522.095 123.127 522.298 123.078C522.403 123.053 522.514 123.041 522.619 123.01C522.878 122.93 522.385 123.071 522.379 123.041C522.379 123.041 522.607 123.022 522.619 123.022C522.835 123.022 523.056 123.041 523.266 123.034C523.556 123.028 522.804 122.924 523.155 123.022C523.278 123.053 523.408 123.071 523.525 123.102C524.412 123.336 525.115 123.7 525.947 124.119C527.82 125.061 529.126 125.942 530.482 127.365C530.63 127.519 530.772 127.679 530.913 127.839C530.981 127.919 531.049 127.999 531.117 128.079C531.148 128.116 531.357 128.375 531.221 128.202C531.086 128.03 531.283 128.288 531.314 128.325C531.376 128.412 531.431 128.492 531.493 128.578C531.622 128.763 531.751 128.954 531.869 129.151C532.078 129.49 532.269 129.834 532.448 130.192C532.534 130.364 532.614 130.543 532.694 130.721C532.528 130.346 532.768 130.925 532.811 131.029C533.083 131.775 533.274 132.545 533.415 133.327C533.434 133.419 533.446 133.518 533.458 133.61C533.446 133.549 533.415 133.216 533.452 133.561C533.471 133.752 533.495 133.943 533.508 134.134C533.539 134.522 533.551 134.91 533.557 135.298C533.563 135.686 533.545 136.08 533.52 136.474C533.508 136.671 533.489 136.869 533.471 137.066C533.458 137.164 533.446 137.263 533.44 137.361C533.397 137.86 533.508 136.979 533.428 137.472C533.298 138.273 533.144 139.061 532.941 139.85C532.725 140.675 532.466 141.488 532.171 142.283C532.097 142.48 532.023 142.671 531.949 142.868C531.912 142.966 531.869 143.065 531.832 143.157C531.813 143.207 531.684 143.508 531.77 143.305C531.856 143.102 531.727 143.404 531.708 143.453C531.665 143.552 531.622 143.644 531.579 143.742C531.48 143.958 531.382 144.174 531.283 144.389C530.544 145.954 529.681 147.457 528.726 148.898C528.264 149.6 527.771 150.284 527.265 150.961C527.006 151.312 527.364 150.844 527.093 151.189C526.988 151.325 526.877 151.46 526.772 151.596C526.501 151.935 526.218 152.267 525.934 152.6C524.979 153.702 523.962 154.756 522.859 155.716C522.637 155.907 522.409 156.098 522.181 156.283C522.132 156.32 521.719 156.64 521.966 156.456C522.212 156.271 521.768 156.597 521.713 156.64C520.69 157.386 520.573 158.5 521.349 159.48C522.496 160.927 524.178 162.005 525.78 162.88C527.857 164.013 530.1 164.906 532.38 165.541C536.342 166.649 541.691 167.444 545.284 164.857C547.484 163.274 548.421 160.786 548.371 158.131C547.466 158.654 546.554 159.172 545.648 159.695C548.606 161.549 552.537 160.94 555.267 158.956C558.176 156.837 559.957 153.635 561.627 150.53C565.121 144.038 567.962 137.14 569.792 129.995C572.978 117.54 573.767 102.825 566.353 91.6584C562.724 86.195 557.295 81.9634 550.738 80.7932L552.001 82.0558C550.423 73.9192 546.184 66.5464 540.582 60.5102C534.623 54.0859 527.148 49.0906 519.205 45.4381C510.695 41.5268 501.599 39.0569 492.294 38.0283C483.13 37.0181 473.72 37.4924 464.791 39.833C456.034 42.1243 447.758 46.3065 441.066 52.4475C440.271 53.1805 439.495 53.9381 438.749 54.7203C437.14 56.4018 439.698 58.9703 441.306 57.2765C442.835 55.675 444.468 54.1783 446.199 52.7986C446.279 52.7308 446.748 52.3674 446.495 52.5645C446.717 52.392 446.945 52.2257 447.167 52.0594C447.617 51.7268 448.073 51.4004 448.535 51.0801C449.41 50.4765 450.309 49.8975 451.222 49.3493C453.076 48.2344 454.993 47.2428 456.965 46.362C457.199 46.2573 457.427 46.1587 457.661 46.054C457.988 45.9123 457.766 46.0109 457.698 46.0355C457.852 45.9678 458.012 45.9062 458.167 45.8384C458.69 45.6228 459.214 45.4196 459.744 45.2225C460.749 44.8468 461.765 44.4957 462.794 44.1692C464.859 43.5163 466.966 42.9743 469.086 42.537C470.183 42.3091 471.286 42.112 472.395 41.9395C472.654 41.9025 472.907 41.8594 473.166 41.8225C473.283 41.804 473.394 41.7917 473.511 41.7732C474.078 41.6931 473.147 41.8163 473.714 41.7486C474.281 41.6808 474.805 41.6131 475.353 41.5576C479.833 41.0833 484.357 41.0279 488.849 41.3359C489.964 41.4098 491.08 41.5145 492.195 41.6315C493.532 41.7794 494.087 41.8533 495.313 42.0381C497.532 42.3768 499.732 42.8018 501.919 43.3131C506.307 44.3417 510.615 45.7091 514.78 47.4214C514.885 47.4645 514.996 47.5076 515.101 47.5569C515.612 47.7725 514.922 47.483 515.23 47.6123C515.47 47.7109 515.711 47.8156 515.945 47.9203C516.475 48.1482 516.999 48.3884 517.523 48.6286C518.509 49.0844 519.488 49.5649 520.456 50.0576C522.415 51.0616 524.332 52.158 526.193 53.3344C527.087 53.9011 527.968 54.4863 528.83 55.0899C529.237 55.3732 529.638 55.6627 530.038 55.9584C530.26 56.1185 530.482 56.2848 530.698 56.4511C530.784 56.5189 530.87 56.5805 530.963 56.6482C531.394 56.9747 530.692 56.4326 531.117 56.7652C532.756 58.0464 534.334 59.4015 535.831 60.8428C537.328 62.2841 538.678 63.7377 539.972 65.3022C540.268 65.6656 540.564 66.029 540.847 66.3986C540.619 66.1029 541.075 66.7004 541.131 66.7743C541.285 66.9837 541.439 67.187 541.587 67.3964C542.16 68.1848 542.702 68.9979 543.22 69.8232C544.273 71.4986 545.216 73.2479 546.024 75.0587C546.104 75.2435 546.184 75.4283 546.264 75.6131C546.097 75.2312 546.393 75.9334 546.43 76.0196C546.621 76.4877 546.8 76.962 546.966 77.4363C547.287 78.3417 547.576 79.2595 547.829 80.1834C548.082 81.1073 548.304 82.0558 548.482 83.0044C548.593 83.5649 549.179 84.1685 549.746 84.2671C554.78 85.1664 559.045 87.9997 562.101 91.9356C565.33 96.087 567.21 101.008 567.992 106.195C568.418 109.016 568.473 112.502 568.331 115.569C568.177 118.92 567.746 122.246 567.074 125.535C565.706 132.206 563.42 138.673 560.456 144.802C559.649 146.477 558.786 148.134 557.886 149.76C557.06 151.251 556.222 152.797 555.119 154.109C553.246 156.351 550.122 158.236 547.435 156.56C546.276 155.833 544.686 156.776 544.711 158.125C544.711 158.396 544.711 158.667 544.699 158.938C544.692 159.055 544.68 159.172 544.668 159.289C544.643 159.745 544.766 158.913 544.656 159.344C544.6 159.548 544.569 159.763 544.514 159.966C544.471 160.127 544.175 160.81 544.415 160.33C544.249 160.675 544.064 160.989 543.848 161.303C544.15 160.853 543.805 161.334 543.706 161.439C543.552 161.599 543.386 161.734 543.226 161.876C543.639 161.512 543.17 161.9 543.053 161.974C542.893 162.073 542.733 162.165 542.566 162.245C542.468 162.295 542.363 162.344 542.258 162.393C542.671 162.19 542.474 162.307 542.369 162.344C542.147 162.412 541.926 162.504 541.698 162.566C541.285 162.683 540.859 162.769 540.434 162.837C540.163 162.88 540.903 162.8 540.471 162.831C540.342 162.837 540.212 162.855 540.083 162.868C539.843 162.886 539.596 162.898 539.35 162.904C538.869 162.917 538.382 162.904 537.902 162.88C537.667 162.867 537.427 162.849 537.193 162.824C537.063 162.812 536.201 162.695 536.663 162.769C535.628 162.609 534.605 162.399 533.588 162.128C532.546 161.851 531.511 161.512 530.507 161.124C530.254 161.026 530.001 160.927 529.749 160.823C530.143 160.983 529.49 160.706 529.379 160.656C528.904 160.441 528.442 160.219 527.98 159.979C527.068 159.504 526.199 158.969 525.361 158.371C525.299 158.328 525.238 158.279 525.176 158.236C525.614 158.556 525.195 158.242 525.102 158.174C524.954 158.051 524.806 157.921 524.665 157.792C524.375 157.521 524.104 157.238 523.857 156.924L523.494 159.763C526.088 157.872 528.264 155.513 530.205 152.969C532.386 150.111 534.179 146.976 535.474 143.619C536.731 140.361 537.439 136.776 536.99 133.284C536.509 129.551 534.716 126.17 531.838 123.731C530.014 122.184 527.962 121.033 525.762 120.121C524.412 119.561 523.143 119.29 521.682 119.524C519.34 119.906 517.399 121.71 515.97 123.496C511.933 128.541 509.536 134.774 506.886 140.601C505.635 143.361 504.378 146.138 502.813 148.738C502.499 149.261 502.166 149.779 501.808 150.278C501.728 150.388 501.654 150.493 501.574 150.604C501.315 150.955 501.716 150.45 501.562 150.623C501.389 150.813 501.235 151.023 501.063 151.208C500.909 151.374 500.755 151.534 500.595 151.688C500.508 151.768 500.416 151.842 500.33 151.922C500.028 152.206 500.644 151.725 500.373 151.891C500.212 151.99 500.065 152.095 499.898 152.193C499.837 152.23 499.707 152.261 499.664 152.31C499.769 152.199 500.114 152.187 499.769 152.255C499.682 152.273 499.584 152.298 499.504 152.329C499.177 152.44 499.627 152.292 499.689 152.31C499.572 152.273 498.746 152.23 499.602 152.353L500.403 155.378C501.845 153.764 502.801 151.824 503.626 149.846C504.606 147.5 505.352 145.054 505.968 142.585C507.373 136.955 508.211 131.116 508.384 125.32C508.464 122.72 508.371 120.121 508.008 117.54C507.743 115.649 507.293 113.66 506.289 112.015C505.352 110.488 503.842 109.33 501.981 109.348C500.995 109.361 500.065 109.675 499.196 110.118C497.593 110.931 496.225 112.102 494.549 112.816C492.774 113.567 491.332 113.838 489.508 113.678C489.293 113.66 489.527 113.678 489.564 113.691C489.453 113.672 489.342 113.654 489.231 113.635C489.065 113.604 488.904 113.567 488.738 113.524C488.553 113.475 488.368 113.42 488.183 113.364C488.06 113.321 487.604 113.142 487.715 113.192C487.9 113.272 487.654 113.161 487.635 113.149C487.536 113.099 487.444 113.056 487.345 113.007C487.204 112.933 487.062 112.853 486.926 112.773C486.766 112.674 486.606 112.576 486.452 112.471C486.366 112.409 486.279 112.348 486.187 112.286C485.959 112.12 486.384 112.453 486.175 112.274C484.856 111.171 484.258 110.346 483.482 108.8C483.408 108.646 483.334 108.492 483.26 108.338C483.112 108.018 483.204 108.221 483.235 108.295C483.204 108.215 483.167 108.135 483.136 108.055C482.976 107.648 482.835 107.236 482.705 106.817C482.465 106.028 482.292 105.221 482.163 104.408C482.163 104.396 482.12 104.107 482.144 104.298C482.169 104.507 482.126 104.144 482.126 104.1C482.107 103.897 482.083 103.688 482.07 103.484C482.04 103.072 482.027 102.665 482.027 102.253C482.027 101.132 480.869 100.128 479.735 100.509C477.757 101.175 475.748 101.748 473.696 102.123C473.283 102.197 472.87 102.271 472.457 102.327C472.734 102.29 472.204 102.357 472.124 102.363C471.89 102.388 471.662 102.413 471.428 102.431C470.707 102.487 469.98 102.517 469.259 102.499C468.92 102.493 468.581 102.474 468.242 102.444C468.106 102.431 467.965 102.413 467.829 102.4C467.731 102.394 467.478 102.345 467.909 102.413C467.823 102.4 467.737 102.388 467.65 102.37C467.083 102.265 466.523 102.148 465.974 101.969C465.74 101.895 465.512 101.803 465.284 101.717C465.229 101.698 465.629 101.883 465.266 101.704C465.155 101.649 465.044 101.6 464.933 101.538C464.514 101.323 464.15 101.033 463.743 100.793C463.651 100.737 464.058 101.07 463.811 100.842C463.731 100.768 463.645 100.7 463.565 100.627C463.405 100.485 463.25 100.331 463.103 100.177C462.955 100.023 462.831 99.8566 462.69 99.7026C462.493 99.487 462.918 100.035 462.758 99.7888C462.696 99.6903 462.622 99.5979 462.554 99.5055C462.332 99.179 462.129 98.828 461.95 98.4769C461.895 98.366 461.654 97.8671 461.796 98.1627C461.938 98.4584 461.71 97.9348 461.667 97.8055C461.426 97.1341 461.254 96.4443 461.143 95.7421C461.131 95.6559 461.118 95.5758 461.106 95.4895C461.044 95.1446 461.149 95.9146 461.131 95.6559C461.118 95.4957 461.094 95.3356 461.081 95.1754C461.057 94.8921 461.038 94.6026 461.032 94.3193C461.02 93.8142 461.032 93.3091 461.063 92.8102C461.075 92.6624 461.094 92.5145 461.106 92.3729C461.131 92.0156 461.032 92.9088 461.063 92.6747C461.26 91.3997 460.28 89.9953 458.838 90.4511C458.204 90.6482 457.55 90.8022 456.903 90.9562C456.182 91.1225 455.455 91.2642 454.722 91.3935C454.278 91.4674 453.841 91.5352 453.397 91.603C452.904 91.6769 453.686 91.5722 453.163 91.6338C452.873 91.6707 452.583 91.7015 452.294 91.7323C450.051 91.9664 447.783 92.0279 445.527 91.8493C445.275 91.8308 445.022 91.8062 444.776 91.7816C444.634 91.7693 443.771 91.6522 444.196 91.7138C443.531 91.6153 442.872 91.5044 442.218 91.3566C441.01 91.0917 439.833 90.7283 438.687 90.2787C438.601 90.2479 438.281 90.1062 438.607 90.2479C438.459 90.1863 438.318 90.1185 438.17 90.0508C437.88 89.9153 437.59 89.7736 437.307 89.6258C436.734 89.324 436.173 88.9975 435.637 88.6341C435.366 88.4493 435.095 88.2584 434.836 88.0613C435.138 88.2892 434.706 87.9566 434.682 87.9319C434.552 87.8272 434.423 87.7164 434.3 87.6116C433.782 87.162 433.295 86.6816 432.833 86.1765C431.927 85.1725 431.225 84.1439 430.504 82.7765C430.417 82.6163 430.337 82.4501 430.257 82.2899C430.226 82.2345 430.041 81.7663 430.195 82.1667C430.085 81.8895 429.986 81.6062 429.9 81.3167C429.832 81.0765 429.77 80.8363 429.715 80.5899C429.684 80.4421 429.666 80.2942 429.629 80.1464C429.598 79.937 429.598 79.9493 429.629 80.1834C429.616 80.0848 429.604 79.9863 429.598 79.8816C429.555 79.3211 429.53 78.7605 429.555 78.2C429.567 77.8859 429.592 77.5779 429.622 77.2638C429.629 77.2022 429.709 76.6848 429.641 77.116C429.672 76.9066 429.709 76.6971 429.746 76.4816C429.992 75.1758 430.387 73.9008 430.861 72.6627C430.923 72.5026 430.984 72.3424 431.052 72.1884C431.255 71.6772 430.972 72.3671 431.101 72.0653C431.231 71.7634 431.354 71.4863 431.49 71.1968C431.81 70.5131 432.149 69.8417 432.506 69.1826C433.147 68 433.844 66.8544 434.583 65.7334C435.323 64.6124 436.173 63.4113 437.023 62.2902C437.11 62.1732 437.202 62.0562 437.295 61.9392C437.023 62.2964 437.399 61.8037 437.449 61.7421C437.646 61.4895 437.843 61.2431 438.046 60.9968C438.379 60.5841 438.724 60.1714 439.069 59.7649C439.79 58.9149 440.524 58.071 441.3 57.2765C442.927 55.6073 440.37 53.0449 438.743 54.7203L438.749 54.6957Z" fill="#1F1F1F"/>
<path d="M564.012 307.054C562.342 322.267 562.471 337.666 564.363 352.855C566.261 368.118 569.847 383.153 575.165 397.591C578.148 405.684 581.648 413.593 585.654 421.237C586.732 423.3 589.863 421.471 588.778 419.408C581.784 406.06 576.392 391.918 572.651 377.326C568.898 362.698 566.828 347.656 566.507 332.56C566.329 324.041 566.705 315.523 567.635 307.054C567.74 306.08 566.729 305.243 565.823 305.243C564.757 305.243 564.123 306.074 564.012 307.054Z" fill="#1F1F1F"/>
<path d="M464.193 149.397C464.89 146.761 468.051 146.736 469.555 148.565C470.836 150.117 471.36 153.665 470.516 155.501C470.097 156.412 468.914 156.794 467.946 156.536C466.917 156.265 465.968 155.359 465.266 154.232C464.323 152.704 463.83 150.764 464.187 149.403L464.193 149.397Z" fill="#1F1F1F"/>
<path d="M465.358 149.717C465.383 149.619 465.42 149.52 465.451 149.428C465.543 149.132 465.327 149.619 465.481 149.36C465.561 149.231 465.629 149.101 465.722 148.972C465.543 149.231 465.826 148.892 465.876 148.83C466.061 148.627 465.66 148.953 465.894 148.812C465.962 148.769 466.03 148.719 466.104 148.682C466.178 148.645 466.252 148.608 466.319 148.572C466.067 148.701 466.19 148.621 466.258 148.602C466.418 148.559 466.572 148.516 466.732 148.485C466.424 148.547 466.775 148.485 466.905 148.491C466.973 148.491 467.047 148.498 467.114 148.498C467.429 148.498 466.929 148.448 467.17 148.498C467.312 148.528 467.447 148.559 467.583 148.602C467.663 148.627 467.743 148.664 467.823 148.689C467.57 148.602 467.712 148.639 467.774 148.67C467.928 148.756 468.076 148.843 468.23 148.935C468.285 148.966 468.402 149.077 468.199 148.904C468.291 148.978 468.384 149.058 468.464 149.138C468.526 149.2 468.815 149.563 468.624 149.298C468.71 149.422 468.797 149.545 468.877 149.674C468.957 149.81 469.031 149.957 469.105 150.099C469.123 150.136 469.247 150.444 469.148 150.179C469.191 150.29 469.234 150.407 469.277 150.524C469.401 150.881 469.499 151.251 469.579 151.627C469.616 151.811 469.647 151.99 469.678 152.175C469.635 151.904 469.684 152.267 469.69 152.298C469.703 152.409 469.709 152.52 469.721 152.631C469.746 153.025 469.752 153.425 469.721 153.819C469.721 153.887 469.709 153.955 469.703 154.023C469.678 154.355 469.758 153.776 469.69 154.103C469.653 154.294 469.616 154.478 469.561 154.663C469.536 154.749 469.505 154.836 469.475 154.922C469.407 155.125 469.475 154.91 469.499 154.873C469.45 154.965 469.407 155.051 469.345 155.137C469.499 154.916 469.296 155.162 469.265 155.193C469.302 155.156 469.456 155.082 469.265 155.193C469.173 155.242 469.092 155.298 468.994 155.341C469.21 155.242 469.037 155.322 468.994 155.328C468.932 155.341 468.513 155.402 468.803 155.384C468.717 155.384 468.63 155.384 468.538 155.39C468.47 155.39 468.242 155.359 468.495 155.402C468.316 155.372 468.137 155.322 467.971 155.254C468.205 155.353 467.866 155.187 467.848 155.181C467.743 155.125 467.644 155.057 467.546 154.99C467.527 154.977 467.367 154.854 467.496 154.959C467.367 154.854 467.244 154.737 467.127 154.62C466.486 153.986 465.944 153.037 465.66 152.224C465.574 151.978 465.5 151.731 465.438 151.479C465.407 151.356 465.383 151.232 465.358 151.109C465.358 151.103 465.309 150.721 465.327 150.943C465.303 150.709 465.29 150.475 465.296 150.241C465.296 150.13 465.309 150.019 465.321 149.908C465.29 150.185 465.358 149.76 465.37 149.705C465.518 149.095 465.173 148.368 464.526 148.22C463.879 148.073 463.201 148.405 463.041 149.064C462.449 151.454 463.528 154.127 465.056 155.944C465.833 156.862 466.893 157.601 468.1 157.768C469.339 157.934 470.608 157.46 471.354 156.443C471.94 155.643 472.094 154.522 472.137 153.561C472.18 152.526 472.044 151.454 471.773 150.456C471.262 148.547 470.128 146.828 468.143 146.256C467.102 145.954 465.999 146.052 465.031 146.52C464.064 146.989 463.337 148.011 463.041 149.07C462.869 149.68 463.251 150.407 463.885 150.555C464.52 150.703 465.186 150.364 465.37 149.711L465.358 149.717Z" fill="#1F1F1F"/>
<path d="M464.187 114.442C465.426 113.882 467.022 113.777 468.378 114.097C469.887 114.454 471.114 115.181 472.131 116.388C472.55 116.887 473.406 116.82 473.837 116.388C474.33 115.896 474.257 115.181 473.837 114.682C471.225 111.566 466.615 110.697 462.973 112.36C462.382 112.631 462.234 113.487 462.542 114.011C462.899 114.621 463.596 114.713 464.193 114.442H464.187Z" fill="#1F1F1F"/>
<path d="M436.949 107.734C437.017 107.704 437.085 107.673 437.153 107.636C437.301 107.556 436.956 107.71 437.11 107.654C437.233 107.611 437.362 107.562 437.486 107.525C437.609 107.488 437.744 107.451 437.874 107.426C437.948 107.408 438.022 107.396 438.09 107.383C438.256 107.346 438.096 107.402 438.034 107.383C438.139 107.408 438.324 107.353 438.435 107.353C438.57 107.353 438.7 107.346 438.835 107.353C438.983 107.353 439.131 107.371 439.279 107.383C439.445 107.402 439.285 107.359 439.223 107.377C439.285 107.365 439.384 107.408 439.445 107.414C439.71 107.47 439.969 107.537 440.222 107.63C440.277 107.648 440.333 107.673 440.388 107.691C440.179 107.593 440.53 107.741 440.388 107.691C440.511 107.753 440.628 107.808 440.745 107.87C440.863 107.932 440.974 108.005 441.084 108.079C441.134 108.11 441.183 108.147 441.232 108.178C441.109 108.067 441.467 108.338 441.232 108.178C441.448 108.369 441.651 108.554 441.836 108.769C442.255 109.244 443.124 109.225 443.543 108.769C444.012 108.264 443.987 107.574 443.543 107.063C441.633 104.876 438.281 104.353 435.729 105.659C435.169 105.948 434.959 106.78 435.298 107.309C435.668 107.882 436.346 108.049 436.949 107.741V107.734Z" fill="#1F1F1F"/>
<path d="M438.478 119.105C437.609 120.614 436.081 121.439 434.392 121.174C434.072 121.125 433.751 121.051 433.48 120.873C433.147 120.657 432.919 120.312 432.747 119.961C432.044 118.526 432.118 116.733 432.938 115.36C434.053 113.494 437.011 113.457 438.305 115.187C439.137 116.296 439.168 117.904 438.478 119.105Z" fill="#1F1F1F"/>
<path d="M437.436 118.495C437.356 118.637 437.264 118.84 437.14 118.951C437.356 118.766 437.159 118.926 437.11 118.982C437.054 119.049 436.993 119.111 436.931 119.172C436.832 119.277 436.721 119.37 436.617 119.462C436.407 119.653 436.832 119.326 436.592 119.48C436.5 119.542 436.407 119.604 436.309 119.659C436.198 119.721 436.037 119.77 435.939 119.85L436.074 119.795C436.025 119.813 435.97 119.832 435.92 119.85C435.84 119.875 435.76 119.899 435.68 119.924C435.6 119.949 435.52 119.967 435.434 119.979L435.353 119.998C435.218 120.016 435.243 120.016 435.421 119.992C435.353 120.059 435.002 120.016 434.91 120.01C434.817 120.004 434.737 119.998 434.651 119.992C434.349 119.973 434.928 120.053 434.614 119.985C434.503 119.961 434.232 119.949 434.146 119.868L434.257 119.918C434.201 119.893 434.139 119.856 434.09 119.825L434.189 119.905C434.139 119.868 434.096 119.825 434.053 119.782C433.837 119.61 434.158 119.979 434.016 119.745C433.961 119.653 433.899 119.567 433.85 119.468C433.813 119.4 433.782 119.326 433.745 119.259C433.603 118.975 433.813 119.493 433.72 119.191C433.665 119.006 433.597 118.828 433.554 118.643C433.536 118.563 433.517 118.489 433.505 118.409C433.492 118.329 433.418 118.138 433.505 118.396C433.443 118.199 433.468 117.928 433.474 117.725C433.474 117.571 433.474 117.399 433.505 117.245C433.431 117.553 433.505 117.245 433.523 117.189C433.542 117.097 433.56 117.004 433.585 116.906C433.628 116.739 433.665 116.505 433.764 116.358C433.64 116.549 433.727 116.444 433.757 116.382C433.813 116.265 433.868 116.154 433.93 116.043C433.973 115.976 434.01 115.902 434.059 115.834L434.102 115.772C434.176 115.668 434.158 115.692 434.047 115.846C434.115 115.828 434.232 115.643 434.293 115.588C434.343 115.545 434.417 115.501 434.454 115.452C434.293 115.655 434.318 115.551 434.435 115.477C434.565 115.391 434.7 115.335 434.836 115.261C434.978 115.181 434.54 115.366 434.774 115.292C434.842 115.274 434.91 115.249 434.971 115.224C435.107 115.181 435.243 115.156 435.384 115.132C435.625 115.083 435.144 115.138 435.31 115.144C435.366 115.144 435.427 115.132 435.489 115.132C435.655 115.126 435.822 115.132 435.988 115.144C436.247 115.157 435.692 115.083 435.951 115.144C436 115.157 436.044 115.163 436.093 115.169C436.235 115.2 436.37 115.237 436.506 115.286C436.641 115.335 436.691 115.428 436.481 115.267C436.53 115.304 436.617 115.329 436.672 115.36C436.802 115.428 436.919 115.501 437.036 115.581C437.251 115.723 436.832 115.391 437.017 115.569C437.085 115.637 437.159 115.699 437.227 115.766C437.245 115.785 437.35 115.926 437.375 115.926L437.276 115.797C437.313 115.846 437.344 115.896 437.381 115.945C437.43 116.019 437.479 116.099 437.523 116.173C437.553 116.228 437.578 116.278 437.603 116.333C437.658 116.456 437.652 116.444 437.584 116.29C437.677 116.395 437.707 116.666 437.738 116.807L437.757 116.893C437.781 117.029 437.775 117.01 437.757 116.838C437.794 116.93 437.775 117.097 437.781 117.195C437.781 117.288 437.781 117.374 437.781 117.466C437.781 117.528 437.775 117.589 437.769 117.645L437.788 117.503C437.8 117.688 437.695 117.941 437.64 118.119C437.621 118.181 437.553 118.464 437.633 118.168C437.603 118.279 437.523 118.39 437.467 118.489C437.159 119.037 437.313 119.832 437.898 120.139C438.484 120.447 439.223 120.293 439.55 119.708C440.548 117.922 440.4 115.557 438.952 114.048C437.794 112.847 435.908 112.416 434.324 112.902C433.499 113.155 432.759 113.635 432.229 114.319C431.582 115.157 431.262 116.154 431.132 117.195C430.886 119.197 431.73 121.876 433.961 122.301C435.107 122.517 436.216 122.394 437.27 121.895C438.231 121.439 439.014 120.614 439.55 119.708C439.87 119.166 439.692 118.359 439.119 118.058C438.546 117.756 437.806 117.91 437.467 118.489L437.436 118.495Z" fill="#1F1F1F"/>
<path d="M467.842 124.734C466.973 126.244 465.444 127.069 463.756 126.804C463.435 126.755 463.115 126.681 462.844 126.502C462.511 126.287 462.283 125.942 462.111 125.591C461.408 124.155 461.482 122.363 462.302 120.99C463.417 119.123 466.375 119.086 467.669 120.817C468.501 121.926 468.532 123.533 467.842 124.734Z" fill="#1F1F1F"/>
<path d="M466.8 124.125C466.72 124.266 466.628 124.47 466.504 124.581C466.72 124.396 466.523 124.556 466.473 124.611C466.418 124.679 466.356 124.741 466.295 124.802C466.196 124.907 466.085 124.999 465.98 125.092C465.771 125.283 466.196 124.956 465.956 125.11C465.863 125.172 465.771 125.233 465.672 125.289C465.561 125.351 465.401 125.4 465.303 125.48L465.438 125.424C465.389 125.443 465.333 125.461 465.284 125.48C465.204 125.505 465.124 125.529 465.044 125.554C464.964 125.578 464.884 125.597 464.797 125.609L464.717 125.628C464.582 125.646 464.606 125.646 464.785 125.622C464.717 125.689 464.366 125.646 464.273 125.64C464.181 125.634 464.101 125.628 464.015 125.622C463.713 125.603 464.292 125.683 463.978 125.615C463.867 125.591 463.596 125.578 463.509 125.498L463.62 125.548C463.565 125.523 463.503 125.486 463.454 125.455L463.552 125.535C463.503 125.498 463.46 125.455 463.417 125.412C463.201 125.24 463.522 125.609 463.38 125.375C463.324 125.283 463.263 125.197 463.214 125.098C463.177 125.03 463.146 124.956 463.109 124.889C462.967 124.605 463.177 125.123 463.084 124.821C463.029 124.636 462.961 124.457 462.918 124.273C462.899 124.193 462.881 124.119 462.868 124.039C462.856 123.958 462.782 123.768 462.868 124.026C462.807 123.829 462.831 123.558 462.838 123.355C462.838 123.201 462.838 123.028 462.868 122.874C462.795 123.182 462.868 122.874 462.887 122.819C462.905 122.727 462.924 122.634 462.949 122.536C462.992 122.369 463.029 122.135 463.127 121.987C463.004 122.178 463.09 122.074 463.121 122.012C463.177 121.895 463.232 121.784 463.294 121.673C463.337 121.606 463.374 121.532 463.423 121.464L463.466 121.402C463.54 121.298 463.522 121.322 463.411 121.476C463.479 121.458 463.596 121.273 463.657 121.218C463.707 121.174 463.78 121.131 463.817 121.082C463.657 121.285 463.682 121.181 463.799 121.107C463.928 121.02 464.064 120.965 464.2 120.891C464.341 120.811 463.904 120.996 464.138 120.922C464.206 120.903 464.273 120.879 464.335 120.854C464.471 120.811 464.606 120.786 464.748 120.762C464.988 120.712 464.508 120.768 464.674 120.774C464.729 120.774 464.791 120.762 464.853 120.762C465.019 120.756 465.186 120.762 465.352 120.774C465.611 120.786 465.056 120.712 465.315 120.774C465.364 120.786 465.407 120.793 465.457 120.799C465.598 120.829 465.734 120.866 465.87 120.916C466.005 120.965 466.054 121.057 465.845 120.897C465.894 120.934 465.98 120.959 466.036 120.99C466.165 121.057 466.282 121.131 466.399 121.211C466.615 121.353 466.196 121.02 466.381 121.199C466.449 121.267 466.523 121.328 466.591 121.396C466.609 121.415 466.714 121.556 466.738 121.556L466.64 121.427C466.677 121.476 466.708 121.526 466.745 121.575C466.794 121.649 466.843 121.729 466.886 121.803C466.917 121.858 466.942 121.907 466.966 121.963C467.022 122.086 467.016 122.074 466.948 121.92C467.04 122.024 467.071 122.295 467.102 122.437L467.121 122.523C467.145 122.659 467.139 122.64 467.121 122.468C467.157 122.56 467.139 122.727 467.145 122.825C467.145 122.918 467.145 123.004 467.145 123.096C467.145 123.158 467.139 123.219 467.133 123.275L467.151 123.133C467.164 123.318 467.059 123.57 467.003 123.749C466.985 123.811 466.917 124.094 466.997 123.798C466.966 123.909 466.886 124.02 466.831 124.119C466.523 124.667 466.677 125.461 467.262 125.769C467.829 126.071 468.587 125.923 468.914 125.338C469.912 123.552 469.764 121.187 468.316 119.678C467.157 118.477 465.272 118.045 463.688 118.532C462.862 118.785 462.123 119.265 461.593 119.949C460.946 120.786 460.625 121.784 460.496 122.825C460.249 124.827 461.094 127.506 463.324 127.931C464.471 128.147 465.58 128.024 466.634 127.525C467.595 127.069 468.378 126.244 468.914 125.338C469.234 124.796 469.055 123.989 468.482 123.687C467.909 123.386 467.17 123.54 466.831 124.119L466.8 124.125Z" fill="#1F1F1F"/>
<path d="M76.7401 34.2217C72.4511 27.8528 68.5934 21.1945 65.1979 14.3083C68.692 12.5344 72.4326 11.2347 76.2779 10.4709C76.4689 19.7101 77.3255 28.9369 78.8538 38.0529C77.7014 36.1927 76.5552 34.3264 75.4028 32.4663" fill="#FF009D"/>
<path d="M78.2992 33.3041C74.0163 26.9291 70.1587 20.2708 66.757 13.3907C66.5413 14.2161 66.3257 15.0414 66.11 15.8668C69.4808 14.1668 73.0611 12.9595 76.7586 12.2081C75.9944 11.6291 75.2303 11.044 74.4662 10.465C74.6634 19.8704 75.5631 29.2512 77.1037 38.5273C78.2067 38.0654 79.3098 37.5972 80.4129 37.1353C79.2605 35.2751 78.1143 33.4088 76.9619 31.5487C75.7418 29.5715 72.6051 31.3885 73.8376 33.378C74.99 35.2382 76.1362 37.1045 77.2885 38.9646C77.7569 39.7284 78.7182 40.0672 79.5501 39.7038C80.4313 39.3157 80.7518 38.4842 80.5977 37.5664C79.1064 28.6045 78.2807 19.544 78.0896 10.465C78.065 9.22693 76.9558 8.48163 75.7972 8.72185C71.7917 9.5349 67.9279 10.9084 64.2798 12.744C63.3616 13.2059 63.2198 14.3885 63.6327 15.22C67.0405 22.1063 70.8981 28.7585 75.1748 35.1335C75.7171 35.9465 76.7709 36.2976 77.6521 35.7802C78.4594 35.3121 78.8476 34.1172 78.2992 33.3041Z" fill="#FF009D"/>
<path d="M126.175 7.9271C125.263 7.42203 105.075 30.4583 103.362 32.534C106.128 22.063 109.259 12.6206 113.745 2.77783C113.936 2.35899 114.195 1.88471 114.651 1.80464C114.978 1.74304 115.292 1.90935 115.582 2.06949C119.113 4.02203 122.644 5.97457 126.175 7.93326V7.9271Z" fill="#FF009D"/>
<path d="M127.087 6.36274C125.281 5.57433 123.87 7.29281 122.699 8.44463C120.943 10.1816 119.26 11.9925 117.584 13.8095C113.523 18.2135 109.536 22.6914 105.586 27.1939C104.409 28.5367 103.214 29.8671 102.08 31.2468C103.09 31.832 104.095 32.4233 105.106 33.0084C106.572 27.4711 108.205 21.9769 110.116 16.5751C111.058 13.9204 112.063 11.2841 113.135 8.67869C113.659 7.40368 114.207 6.141 114.768 4.88448C114.904 4.57651 115.045 4.26238 115.187 3.95441C115.199 3.92361 115.384 3.59716 115.397 3.50477C115.415 3.33846 115.477 3.40006 115.446 3.3631L114.947 3.43701C114.423 3.41238 114.294 3.45549 114.559 3.56636C114.657 3.69571 114.922 3.76346 115.064 3.84354C115.458 4.06528 115.859 4.28086 116.253 4.50259C119.254 6.16564 122.255 7.82252 125.256 9.48557C127.296 10.6127 129.126 7.48992 127.087 6.36274C124.172 4.74897 121.263 3.14136 118.348 1.52759C116.9 0.726867 115.156 -0.646685 113.474 0.344983C112.174 1.10875 111.687 2.95042 111.12 4.25006C108.612 10.003 106.424 15.8852 104.545 21.8722C103.485 25.2414 102.523 28.6414 101.618 32.0537C101.186 33.6921 103.442 35.2689 104.643 33.8153C107.213 30.7109 109.937 27.7175 112.617 24.7117C116.401 20.4555 120.191 16.1932 124.166 12.1156C124.856 11.4135 125.546 10.7051 126.273 10.0461C126.397 9.92905 126.526 9.81818 126.655 9.70731C126.711 9.65803 126.766 9.61492 126.822 9.5718C127.056 9.36238 126.631 9.71347 126.637 9.71347C126.723 9.68267 126.785 9.58412 126.871 9.55948C127.118 9.47325 126.477 9.70731 126.544 9.68883C126.156 9.7997 125.743 9.71347 125.256 9.49789C126.15 9.88593 127.198 9.76274 127.734 8.85115C128.184 8.08738 127.986 6.76926 127.087 6.37506V6.36274Z" fill="#FF009D"/>
<path d="M41.9041 63.0848C46.8464 67.2856 59.4484 62.7337 64.933 62.7522C61.2479 59.2475 56.4042 57.2827 51.6777 55.3979C48.769 54.2399 45.8666 53.0758 42.9579 51.9178C42.7053 51.8131 42.4341 51.7145 42.163 51.7392C41.3742 51.8192 41.1154 52.8294 41.0784 53.6178C40.9428 56.445 41.0784 59.2845 41.4913 62.0808C41.5467 62.4443 41.6207 62.8446 41.9041 63.0848Z" fill="#FF009D"/>
<path d="M40.6224 64.3659C43.2106 66.5033 46.6492 66.8174 49.8906 66.6326C53.5018 66.4294 57.0574 65.6779 60.6131 65.062C61.026 64.988 61.4451 64.9203 61.8641 64.8525C62.0613 64.8217 62.2647 64.7909 62.4619 64.7601C62.5728 64.7417 62.6837 64.7293 62.7946 64.7109C62.6221 64.7355 62.6282 64.7293 62.7946 64.7109C63.5095 64.6308 64.2181 64.5569 64.9391 64.5569C66.4674 64.5569 67.3794 62.5551 66.2209 61.471C62.3633 57.8493 57.495 55.7859 52.6513 53.8456C49.9584 52.7677 47.2654 51.696 44.5786 50.6181C43.1551 50.0514 41.5467 49.4417 40.3143 50.7598C39.3899 51.7453 39.2975 53.0942 39.2543 54.3692C39.205 56.0384 39.2482 57.7076 39.3837 59.3645C39.5193 61.0091 39.47 63.0663 40.6347 64.3598C41.2879 65.0866 42.5266 65.025 43.1921 64.3598C43.9131 63.6391 43.8515 62.5304 43.1921 61.8036C43.3462 62.1178 43.377 62.1239 43.2845 61.8221C43.2537 61.6496 43.2291 61.4772 43.2044 61.2985C43.1613 60.9598 43.1243 60.6149 43.0873 60.2761C43.0011 59.4692 42.9394 58.6685 42.9025 57.8616C42.8655 57.0547 42.847 56.2478 42.8532 55.4348C42.8532 55.0283 42.8655 54.6279 42.8778 54.2214C42.884 54.0181 42.8901 53.8149 42.9025 53.6177C42.921 53.4022 42.921 53.3714 42.9025 53.5315C42.9271 53.4022 42.9579 53.279 42.9949 53.1558C42.9764 53.2297 42.9333 53.2851 42.8655 53.3221C42.6745 53.4638 42.4588 53.5438 42.2246 53.5623C42.4033 53.6301 42.5882 53.6978 42.7669 53.7717C43.5187 54.0674 44.2644 54.3692 45.0162 54.671C46.4705 55.25 47.9248 55.829 49.3791 56.4141C54.3706 58.4036 59.6765 60.2884 63.6635 64.0333C64.0887 63.0047 64.5139 61.9761 64.9453 60.9475C63.1459 60.9475 61.3403 61.2801 59.5717 61.588C57.4703 61.9576 55.369 62.3641 53.2553 62.6721C51.5298 62.9246 49.2189 63.1464 47.2346 63.0232C46.9943 63.0109 46.754 62.9862 46.5136 62.9678C46.2918 62.9431 46.2795 62.9431 46.4705 62.9678C46.3534 62.9493 46.2425 62.937 46.1254 62.9123C45.6879 62.8384 45.2503 62.7399 44.8251 62.6105C44.6218 62.5489 44.4184 62.475 44.2212 62.4011C44.6094 62.5428 44.0179 62.3025 43.9501 62.2656C43.7714 62.1732 43.5988 62.0623 43.4263 61.9638C43.34 61.9083 43.2599 61.8529 43.1798 61.7975C43.3462 61.933 43.3523 61.933 43.1921 61.8036C42.4403 61.1815 41.368 61.0645 40.6347 61.8036C39.9938 62.4442 39.8767 63.7377 40.6347 64.3598L40.6224 64.3659Z" fill="#FF009D"/>
<path d="M133.206 231.108C131.382 226.445 131.684 222.423 130.852 217.631C130.34 214.687 125.756 204.887 126.662 202.547C123.007 212.044 121.806 222.195 118.57 231.896C123.18 232.149 127.783 232.401 132.393 232.654C132.645 232.666 132.916 232.679 133.12 232.531C133.545 232.235 133.391 231.588 133.206 231.108Z" fill="#FF009D"/>
<path d="M134.956 230.627C133.995 228.108 133.57 225.503 133.298 222.836C133.077 220.618 132.972 218.296 132.349 216.146C131.4 212.87 129.983 209.741 129.009 206.47C128.763 205.638 128.572 204.807 128.393 203.957C128.338 203.686 128.412 204.29 128.375 203.828C128.362 203.68 128.35 203.538 128.35 203.39C128.35 203.279 128.424 202.824 128.344 203.162C128.264 203.501 128.375 203.107 128.399 203.021C128.726 202.097 128.03 201.044 127.136 200.797C126.119 200.52 125.256 201.142 124.911 202.06C121.276 211.57 120.018 221.764 116.82 231.41C116.432 232.586 117.455 233.639 118.564 233.701L128.239 234.231C129.755 234.311 131.382 234.569 132.892 234.434C134.87 234.255 135.56 232.315 134.95 230.627C134.617 229.71 133.717 229.087 132.725 229.365C131.838 229.611 131.129 230.664 131.462 231.588C131.511 231.711 131.554 231.841 131.585 231.97C131.554 231.637 131.684 231.329 131.98 231.065L132.892 230.818C131.739 230.954 130.476 230.738 129.317 230.67C128.14 230.609 126.963 230.541 125.786 230.479C123.383 230.35 120.974 230.215 118.57 230.085C119.15 230.849 119.735 231.613 120.314 232.377C123.513 222.731 124.77 212.537 128.405 203.027C127.241 202.707 126.076 202.386 124.911 202.066C124.443 203.39 124.868 205.029 125.207 206.328C125.657 208.078 126.273 209.79 126.889 211.484C127.481 213.128 128.116 214.761 128.652 216.424C129.237 218.247 129.41 220.138 129.601 222.041C129.928 225.293 130.285 228.521 131.462 231.594C131.813 232.506 132.682 233.134 133.687 232.857C134.562 232.617 135.301 231.551 134.95 230.633L134.956 230.627Z" fill="#FF009D"/>
<path d="M154.472 226.266C157.56 224.579 158.694 220.748 162.693 219.984C161.374 213.627 150.578 210.788 145.352 208.878C148.353 209.975 152.513 223.834 153.517 226.691C153.856 226.574 154.17 226.433 154.466 226.266H154.472Z" fill="#FF009D"/>
<path d="M155.384 227.831C156.962 226.938 158.12 225.595 159.322 224.271C160.524 222.947 161.479 222.084 163.167 221.733C164.16 221.53 164.634 220.415 164.431 219.51C163.562 215.58 159.951 212.999 156.561 211.293C153.117 209.562 149.438 208.453 145.826 207.141C144.908 206.809 143.842 207.517 143.602 208.404C143.318 209.433 143.953 210.27 144.865 210.628C144.686 210.56 144.514 210.388 144.693 210.566C144.73 210.603 145.05 210.831 144.773 210.609C144.514 210.4 144.773 210.615 144.822 210.671C144.914 210.763 145.007 210.856 145.093 210.954C145.161 211.034 145.229 211.12 145.297 211.201C145.315 211.225 145.099 210.917 145.327 211.25C145.481 211.478 145.635 211.706 145.783 211.946C146.523 213.153 147.114 214.44 147.675 215.734C147.712 215.814 147.743 215.894 147.78 215.974C147.768 215.937 147.688 215.752 147.768 215.949C147.848 216.147 147.928 216.331 148.002 216.522C148.15 216.886 148.291 217.243 148.433 217.606C148.729 218.364 149.012 219.122 149.29 219.885C149.789 221.253 150.257 222.632 150.719 224.018C151.071 225.072 151.403 226.131 151.773 227.178C152.075 228.034 153.03 228.804 153.998 228.441C154.472 228.262 154.934 228.065 155.384 227.831C157.449 226.753 155.625 223.63 153.554 224.708C153.382 224.801 153.215 224.881 153.036 224.948L155.261 226.211C154.423 223.815 153.671 221.394 152.808 219.005C151.712 215.968 150.578 212.814 148.871 210.055C148.107 208.817 147.213 207.684 145.826 207.135C145.506 208.299 145.186 209.464 144.865 210.628C146.387 211.182 147.934 211.681 149.462 212.229C151.293 212.882 152.747 213.443 154.392 214.249C155.212 214.65 156.013 215.081 156.789 215.568C157.652 216.103 158.09 216.424 158.712 216.978C159.002 217.243 159.285 217.52 159.55 217.81C159.593 217.859 160.018 218.37 159.79 218.074C159.92 218.241 160.043 218.419 160.16 218.598C160.357 218.906 160.536 219.232 160.69 219.565C160.518 219.189 160.764 219.793 160.783 219.861C160.844 220.064 160.894 220.267 160.943 220.47C161.362 219.731 161.787 218.986 162.206 218.247C160.197 218.666 158.539 219.83 157.153 221.296C156.561 221.918 156.007 222.583 155.415 223.199C154.743 223.895 154.324 224.271 153.56 224.708C151.533 225.854 153.357 228.983 155.39 227.831H155.384Z" fill="#FF009D"/>
<path d="M105.685 188.023C100.379 190.677 95.1471 193.622 90.2418 196.972C87.9433 198.543 85.0408 200.027 83.3893 202.288C85.0223 203.994 86.6553 205.7 88.2884 207.4C88.5287 206.199 89.3175 205.195 90.1001 204.253C92.4295 201.438 94.7773 198.648 97.5258 196.295C98.9678 195.063 100.2 193.468 101.531 192.113C102.696 190.93 104.2 188.768 105.685 188.023Z" fill="#FF009D"/>
<path d="M104.773 186.458C100.478 188.614 96.2625 190.924 92.2138 193.511C90.359 194.693 88.5349 195.919 86.6923 197.12C84.8559 198.315 83.1551 199.615 81.8241 201.37C81.3372 202.011 81.5961 203.033 82.1075 203.563C83.7406 205.269 85.3736 206.975 87.0066 208.675C87.9248 209.636 89.7242 209.199 90.0324 207.874C90.248 206.963 90.7903 206.242 91.3757 205.528C92.0906 204.659 92.8116 203.803 93.5387 202.947C95.0239 201.222 96.5768 199.541 98.2776 198.025C99.9291 196.553 101.353 194.909 102.875 193.313C104.064 192.069 105.136 190.357 106.591 189.575C108.643 188.472 106.819 185.349 104.76 186.452C102.936 187.431 101.766 189.217 100.379 190.683C98.7706 192.377 97.2362 194.083 95.5045 195.654C93.7421 197.249 92.146 199.011 90.6054 200.816C89.0587 202.627 87.0929 204.524 86.5321 206.913C87.5427 206.649 88.5472 206.384 89.5578 206.113C87.9248 204.407 86.2918 202.7 84.6588 201C84.7512 201.733 84.8498 202.46 84.9422 203.193C86.0206 201.77 87.6537 200.785 89.1326 199.836C90.9382 198.684 92.7007 197.465 94.5186 196.319C98.4193 193.862 102.468 191.644 106.591 189.575C107.466 189.137 107.712 187.906 107.238 187.099C106.72 186.212 105.635 186.008 104.76 186.452L104.773 186.458Z" fill="#FF009D"/>
<path d="M13.7914 134.011C15.0732 133.586 16.3488 133.161 17.6305 132.729C18.0804 132.582 18.4686 132.311 18.7151 131.898C18.9431 131.51 19.0356 130.937 18.9 130.506C18.7644 130.075 18.4871 129.644 18.0681 129.422C17.649 129.2 17.1376 129.083 16.6754 129.237C15.3936 129.662 14.118 130.087 12.8362 130.518C12.3864 130.666 11.9981 130.937 11.7516 131.35C11.5236 131.738 11.4312 132.311 11.5668 132.742C11.7023 133.173 11.9796 133.604 12.3987 133.826C12.8177 134.048 13.3292 134.165 13.7914 134.011Z" fill="#FF66C4"/>
<path d="M23.5341 174.472C26.9111 171.448 30.2881 168.423 33.6712 165.399C34.3799 164.765 34.3676 163.477 33.6712 162.843C32.9132 162.147 31.8656 162.165 31.1138 162.843C27.7369 165.867 24.3599 168.892 20.9767 171.916C20.268 172.55 20.2804 173.838 20.9767 174.472C21.7347 175.168 22.7823 175.15 23.5341 174.472Z" fill="#FF66C4"/>
<path d="M0.875062 94.1714C2.58204 95.0214 4.28902 95.8776 5.996 96.7276C6.43353 96.9432 6.90803 97.0417 7.38869 96.9124C7.80774 96.7953 8.26375 96.475 8.47327 96.0808C8.90464 95.2616 8.72593 94.0544 7.82622 93.6047C6.11924 92.7547 4.41227 91.8986 2.70529 91.0486C2.26776 90.833 1.79326 90.7345 1.31259 90.8638C0.893549 90.9808 0.437533 91.3011 0.228012 91.6953C-0.203354 92.5145 -0.0246451 93.7218 0.875062 94.1714Z" fill="#FF66C4"/>
</g>
<defs>
<clipPath id="clip0_169_332">
<rect width="589" height="496" fill="white"/>
</clipPath>
</defs>
</svg>
