<svg width="165" height="60" viewBox="0 0 165 60" fill="none" xmlns="http://www.w3.org/2000/svg">
<g clip-path="url(#clip0_155_101)">
<path d="M52.7009 28.5729L44.0499 23.4853C43.9156 23.4065 43.75 23.4065 43.6156 23.4853L35.1466 28.4664L26.8594 23.5917V13.6185C26.8594 13.4609 26.7766 13.3143 26.6422 13.2355L17.9913 8.14797C17.857 8.06917 17.6914 8.06917 17.557 8.14797L8.90608 13.2355C8.77172 13.3143 8.68893 13.4609 8.68893 13.6185V23.5917L0.217155 28.5729C0.0827905 28.6517 0 28.7982 0 28.9558V39.1309C0 39.2885 0.0827905 39.4351 0.217155 39.5139L8.68621 44.495V54.4682C8.68621 54.6258 8.769 54.7724 8.90337 54.8512L17.5543 59.9387C17.6208 59.9788 17.6968 59.9982 17.7714 59.9982C17.8461 59.9982 17.9221 59.9788 17.9886 59.9387L26.6395 54.8512C26.7739 54.7724 26.8567 54.6258 26.8567 54.4682V44.495L35.1439 39.6203L43.6129 44.6014C43.6794 44.6415 43.7554 44.6609 43.8301 44.6609C43.9047 44.6609 43.9807 44.6415 44.0472 44.6014L52.6982 39.5139C52.8325 39.4351 52.9153 39.2885 52.9153 39.1309V28.9558C52.9153 28.7982 52.8325 28.6517 52.6982 28.5729H52.7009ZM9.55483 13.8742L17.7714 9.04244L25.9881 13.8742V23.5392L17.7714 28.371L9.55483 23.5392V13.8742ZM0.868621 38.8765V29.2116L9.08523 24.3798L17.3018 29.2116V38.8765L9.08523 43.7083L0.868621 38.8765ZM25.9894 54.2139L17.7728 59.047L9.55619 54.2139V44.5489L17.7728 39.7171L25.9894 44.5489V54.2139ZM34.677 38.8765L26.4604 43.7083L18.2438 38.8765V29.2116L26.4604 24.3798L34.677 29.2116V38.8765ZM52.0494 38.8765L43.8328 43.7083L35.6162 38.8765V29.2116L43.8328 24.3798L52.0494 29.2116V38.8765Z" fill="#E6F5F2"/>
<path d="M36.7386 12.9591L43.6156 17.0029C43.6835 17.043 43.7582 17.0623 43.8328 17.0623C43.9074 17.0623 43.9821 17.043 44.05 17.0029L50.927 12.9591C51.0614 12.8803 51.1441 12.7338 51.1441 12.5762V4.48721C51.1441 4.32961 51.0614 4.18306 50.927 4.10426L44.05 0.0591014C43.9156 -0.0197005 43.75 -0.0197005 43.6156 0.0591014L36.7386 4.10288C36.6042 4.18168 36.5215 4.32823 36.5215 4.48583V12.5748C36.5215 12.7324 36.6042 12.8789 36.7386 12.9577V12.9591ZM37.3901 4.74159L43.8328 0.952189L50.2755 4.74159V12.319L43.8328 16.1084L37.3901 12.319V4.74159Z" fill="#E6F5F2"/>
<path d="M24.4897 33.1522L25.3271 32.4306C25.361 32.4015 25.3827 32.3587 25.3841 32.3117C25.3855 32.266 25.3692 32.2218 25.3366 32.1886C24.8684 31.7117 24.0038 31.42 23.2343 31.478C22.6208 31.5237 22.1322 31.7766 21.8187 32.2066L21.8133 32.2149C21.5581 32.5536 21.5893 32.8412 21.6599 33.0209C21.7739 33.3112 22.0562 33.5269 22.4552 33.6278C22.6113 33.6679 22.7877 33.6886 22.9764 33.6886C23.4731 33.6886 24.0445 33.5352 24.491 33.1495L24.4897 33.1522ZM22.5326 33.3112C22.2367 33.2366 22.0331 33.09 21.9585 32.9006C21.9001 32.7527 21.9368 32.5896 22.0684 32.4154L22.0779 32.4029C22.4009 31.9591 22.8977 31.8333 23.2587 31.8057C23.3157 31.8015 23.3727 31.7988 23.4297 31.7988C23.9902 31.7988 24.5928 31.9951 24.9769 32.302L24.282 32.9006C23.7568 33.3541 23.0076 33.4301 22.5326 33.3098V33.3112Z" fill="#E6F5F2"/>
<path d="M31.1061 32.2159L31.1007 32.2076C30.7872 31.7776 30.2986 31.5246 29.6851 31.479C28.9142 31.4209 28.0497 31.7126 27.5828 32.1896C27.5516 32.2214 27.5339 32.267 27.5353 32.3126C27.5366 32.3583 27.5584 32.4011 27.5923 32.4315L28.4297 33.1532C28.8762 33.5375 29.4476 33.6924 29.9444 33.6924C30.1317 33.6924 30.3094 33.6703 30.4655 33.6315C30.8646 33.5306 31.1469 33.315 31.2609 33.0246C31.3314 32.8435 31.3627 32.5573 31.1075 32.2186L31.1061 32.2159ZM30.9596 32.9002C30.8849 33.0896 30.6813 33.2361 30.3855 33.3108C29.9118 33.4311 29.1612 33.3537 28.636 32.9016L27.9411 32.303C28.3646 31.9656 29.0554 31.761 29.6607 31.8067C30.0204 31.8343 30.5185 31.9601 30.8415 32.4039L30.851 32.4163C30.9813 32.5905 31.0179 32.7537 30.9609 32.9016L30.9596 32.9002Z" fill="#E6F5F2"/>
<path d="M26.4916 39.1289L26.9042 37.915H26.079L26.4916 39.1289Z" fill="#E6F5F2"/>
<path d="M23.7297 33.9941C23.389 34.1573 23.1284 34.3881 22.9547 34.6812C22.5272 35.4015 22.6805 36.4384 23.3361 37.2637C23.3673 37.3038 23.4148 37.3245 23.4609 37.3245C23.4962 37.3245 23.5329 37.3121 23.5627 37.2886C23.6319 37.2319 23.6428 37.1282 23.5871 37.0577C23.0171 36.3402 22.8746 35.4526 23.2316 34.8513C23.3727 34.6149 23.5858 34.4268 23.8681 34.2914C23.9482 34.2526 23.9835 34.1545 23.9454 34.0729C23.9074 33.9914 23.8111 33.9554 23.731 33.9941H23.7297Z" fill="#E6F5F2"/>
<path d="M29.1897 33.9941C29.1097 33.9554 29.0133 33.9914 28.9753 34.0729C28.9373 34.1545 28.9726 34.2526 29.0527 34.2914C29.335 34.4268 29.5481 34.6149 29.6892 34.8513C30.0462 35.4526 29.9036 36.3402 29.3336 37.0577C29.278 37.1282 29.2888 37.2319 29.358 37.2886C29.3879 37.3135 29.4232 37.3245 29.4598 37.3245C29.5073 37.3245 29.5535 37.3038 29.5847 37.2637C30.2402 36.4384 30.3936 35.4001 29.9661 34.6812C29.7924 34.3881 29.5318 34.1573 29.1911 33.9941H29.1897Z" fill="#E6F5F2"/>
<path d="M24.2006 34.667C24.145 34.9504 24.1287 35.2684 24.1952 35.6181C24.1952 35.6237 24.1992 35.6347 24.202 35.6513H28.7174C28.7215 35.6361 28.7229 35.6237 28.7242 35.6181C28.7907 35.2684 28.7744 34.9504 28.7188 34.667H24.2006Z" fill="#E6F5F2"/>
<path d="M24.582 33.6508C24.5657 33.6826 24.5494 33.7158 24.5331 33.749H28.3876C28.3713 33.7144 28.3537 33.6812 28.3388 33.6508C28.1718 33.319 27.9303 33.0135 27.6995 32.7646H25.2226C24.9919 33.0135 24.7503 33.319 24.5833 33.6508H24.582Z" fill="#E6F5F2"/>
<path d="M25.3868 37.3579C25.3868 37.3579 25.3922 37.3607 25.3936 37.3621C25.5578 37.4616 25.7383 37.5252 25.9256 37.5542H26.9938C27.1811 37.5252 27.3616 37.4616 27.5258 37.3621C27.5285 37.3607 27.5312 37.3593 27.5326 37.3579C27.8909 37.1395 28.146 36.8506 28.3252 36.5713H24.5928C24.772 36.8506 25.0271 37.1395 25.3855 37.3579H25.3868Z" fill="#E6F5F2"/>
<path d="M25.0394 29.2328C25.4058 29.4706 25.661 29.8508 25.7628 30.278C25.5103 30.4536 25.3434 30.7494 25.3434 31.0854V31.814L26.459 32.4706L27.5747 31.814V31.0854C27.5747 30.7494 27.4091 30.4536 27.1553 30.278C27.2571 29.8508 27.5122 29.4706 27.8787 29.2328C28.032 29.1333 27.8895 28.8845 27.7362 28.984C27.3263 29.2508 27.0209 29.6725 26.8947 30.1508C26.8065 30.1232 26.7115 30.108 26.6137 30.108H26.3029C26.2052 30.108 26.1116 30.1232 26.022 30.1508C25.8958 29.6725 25.5904 29.2508 25.1805 28.984C25.0272 28.8845 24.8846 29.1333 25.038 29.2328H25.0394Z" fill="#E6F5F2"/>
<path d="M99.1327 36.8389L99.7367 37.9034L99.1327 38.9693H97.9248L97.3209 37.9034L97.9248 36.8389H99.1327Z" fill="#E6F5F2"/>
<path d="M74.9539 38.9904V24.748H77.1349V38.9904H74.9539Z" fill="#E6F5F2"/>
<path d="M85.2552 24.748H87.4756L84.0092 38.9697H82.1783L78.712 24.748H80.8931L82.6846 32.761L83.1135 35.4195L83.522 32.761L85.2552 24.748Z" fill="#E6F5F2"/>
<path d="M108.72 37.9979C107.922 38.6518 106.52 39.1674 105.487 39.1674C102.625 39.1674 101.184 37.8389 101.184 35.6767V28.0591C101.184 25.9163 102.567 24.5684 105.039 24.5684C106.344 24.5684 107.493 24.925 108.466 25.619V28.9315H106.441V26.7693C105.858 26.5909 105.371 26.5108 105 26.5108C103.91 26.5108 103.365 27.0458 103.365 28.0979V35.6352C103.365 36.6665 104.26 37.2223 105.487 37.2223C106.266 37.2223 107.279 36.7661 107.766 36.3886L108.72 37.9951V37.9979Z" fill="#E6F5F2"/>
<path d="M110.182 35.6573V28.0799C110.182 25.9578 111.642 24.5684 113.882 24.5684C116.121 24.5684 117.698 25.9965 117.698 28.0799V35.6573C117.698 37.7407 116.16 39.1688 113.882 39.1688C111.603 39.1688 110.182 37.7808 110.182 35.6573ZM115.497 35.6379V28.1006C115.497 27.0499 114.951 26.5135 113.88 26.5135C112.887 26.5135 112.381 27.0485 112.381 28.1006V35.6379C112.381 36.6886 112.887 37.225 113.88 37.225C114.951 37.225 115.497 36.69 115.497 35.6379Z" fill="#E6F5F2"/>
<path d="M122.079 32.1858L121.865 35.0614C121.884 34.8831 121.982 34.4462 122.138 33.7328C122.294 33.0388 122.45 32.4831 122.605 32.0669L125.331 24.748H127.727V38.9697H125.643V31.0757L125.877 28.2001C125.683 29.4499 125.41 30.5213 125.058 31.3743L122.059 38.9711H119.955V24.7494H122.078V32.1872L122.079 32.1858Z" fill="#E6F5F2"/>
<path d="M135.926 24.7475H138.048V38.9691H135.945L132.945 31.3724C132.595 30.5194 132.322 29.4479 132.127 28.1982L132.36 31.0737V38.9678H130.277V24.7461H132.672L135.399 32.065C135.555 32.4811 135.711 33.0369 135.866 33.7309C136.022 34.4456 136.12 34.8811 136.139 35.0595L135.924 32.1839V24.7461L135.926 24.7475Z" fill="#E6F5F2"/>
<path d="M147.201 26.6918H142.762V30.6388H146.031V32.5826H142.762V37.0259H147.201V38.9697H140.6V24.748H147.201V26.6918Z" fill="#E6F5F2"/>
<path d="M95.6732 26.6918H91.2337V30.6388H94.5033V32.5826H91.2337V37.0259H95.6732V38.9697H89.0717V24.748H95.6732V26.6918Z" fill="#E6F5F2"/>
<path d="M165 24.748V26.6918H162.04V38.9697H159.859V26.6918H156.899V24.748H165Z" fill="#E6F5F2"/>
<path d="M153.062 37.2246C151.835 37.2246 150.939 36.6688 150.939 35.6375V28.2785C150.939 27.2472 151.835 26.6914 153.062 26.6914C153.841 26.6914 154.853 27.1476 155.341 27.5251L156.295 25.9186C155.497 25.2647 154.095 24.749 153.062 24.749C150.2 24.749 148.758 26.0776 148.758 28.2398V35.6776C148.758 37.8398 150.2 39.1684 153.062 39.1684C154.093 39.1684 155.495 38.6527 156.295 37.9988L155.341 36.3923C154.853 36.7698 153.841 37.226 153.062 37.226V37.2246Z" fill="#E6F5F2"/>
<path d="M70.2022 24.748V30.1038V30.3236L66.8906 31.1006V30.1038V24.748H64.7095V38.9697H66.8906V32.9448L70.2022 32.1679V38.9697H72.4023V24.748H70.2022Z" fill="#E6F5F2"/>
</g>
<defs>
<clipPath id="clip0_155_101">
<rect width="165" height="60" fill="white"/>
</clipPath>
</defs>
</svg>
